{"glyphs":{"0":{"ha":1006,"x_min":46,"x_max":960,"o":"m 499 931 q 156 816 267 929 q 46 465 46 703 q 132 146 46 260 q 524 -6 249 -6 q 839 96 729 -6 q 960 463 960 211 q 868 792 960 674 q 499 931 760 931 m 494 776 q 604 755 554 775 q 682 700 654 735 q 726 603 710 665 q 743 471 743 542 q 728 325 743 397 q 644 185 708 232 q 514 150 599 150 q 306 251 360 150 q 275 349 288 286 q 263 474 263 411 q 274 585 263 528 q 304 674 286 643 q 381 749 331 722 q 494 776 432 776 "},"1":{"ha":386,"x_min":94,"x_max":292,"o":"m 292 0 l 292 926 l 94 926 l 94 0 l 292 0 "},"2":{"ha":918,"x_min":49,"x_max":876,"o":"m 247 164 l 247 246 q 271 340 249 318 q 322 371 288 363 q 425 379 356 379 l 556 379 q 772 422 700 379 q 849 513 821 451 q 876 656 876 575 q 854 777 876 721 q 790 867 832 833 q 543 926 721 926 l 65 926 l 65 761 l 501 761 q 614 740 579 761 q 660 649 660 711 q 610 563 660 592 q 501 544 578 544 l 350 544 q 211 532 256 544 q 129 483 167 519 q 51 246 49 401 l 51 0 l 853 0 l 853 164 l 247 164 "},"3":{"ha":860,"x_min":46,"x_max":807,"o":"m 46 0 l 454 0 q 610 10 558 0 q 707 50 663 21 q 807 246 807 114 q 683 469 807 389 q 807 671 807 542 q 765 811 807 746 q 651 908 724 882 q 595 922 621 919 q 478 926 569 925 l 46 926 l 46 761 l 443 761 q 512 758 492 761 q 547 743 532 754 q 589 654 589 715 q 557 572 589 599 q 443 550 531 550 l 133 550 l 133 386 l 443 386 q 544 369 515 386 q 590 274 590 343 q 554 188 590 217 q 443 164 525 164 l 46 164 l 46 0 "},"4":{"ha":981,"x_min":33,"x_max":938,"o":"m 33 161 l 618 161 l 618 0 l 815 0 l 815 161 l 938 161 l 938 325 l 815 325 l 815 926 l 556 926 l 33 357 l 33 161 m 254 325 l 618 721 l 618 325 l 254 325 "},"5":{"ha":939,"x_min":79,"x_max":890,"o":"m 840 926 l 79 926 l 79 386 l 485 386 q 607 378 583 385 q 654 341 636 369 q 672 274 672 313 q 656 213 672 239 q 613 178 640 188 q 485 164 568 164 l 79 164 l 79 0 l 485 0 q 740 36 661 0 q 890 285 890 106 q 793 500 890 426 q 706 539 757 528 q 569 550 656 550 l 275 550 l 275 761 l 840 761 l 840 926 "},"6":{"ha":960,"x_min":46,"x_max":911,"o":"m 267 546 q 286 655 268 608 q 338 725 304 701 q 579 761 393 764 l 861 761 l 861 926 l 519 926 q 306 906 378 926 q 110 744 175 871 q 46 464 46 619 q 76 263 46 363 q 179 90 111 156 q 311 17 235 39 q 514 -6 388 -6 q 775 46 690 -6 q 911 288 911 129 q 821 494 911 421 q 735 535 786 524 q 579 546 685 546 l 267 546 m 267 381 l 546 381 q 650 360 621 381 q 694 267 694 328 q 658 181 694 208 q 604 157 636 164 q 517 150 572 150 q 379 165 425 150 q 307 221 333 181 q 267 381 268 279 "},"7":{"ha":876,"x_min":36,"x_max":843,"o":"m 843 926 l 36 926 l 36 761 l 622 761 l 40 0 l 282 0 l 843 761 l 843 926 "},"8":{"ha":982,"x_min":53,"x_max":929,"o":"m 192 463 q 101 389 128 424 q 53 244 53 328 q 135 65 53 142 q 331 -1 203 3 q 514 -6 417 -6 q 735 10 663 -6 q 846 65 807 25 q 925 249 925 146 q 876 394 925 335 q 786 463 850 426 q 929 675 929 525 q 899 800 929 742 q 782 907 860 876 q 683 926 743 922 q 469 931 622 931 q 203 907 265 931 q 54 686 54 851 q 85 558 54 608 q 192 463 115 508 m 490 776 q 635 767 601 776 q 713 656 713 746 q 654 554 713 578 q 617 547 638 549 q 492 543 597 546 q 340 551 358 546 q 271 660 271 571 q 335 764 271 742 q 490 776 369 776 m 489 390 q 632 381 599 390 q 707 267 707 358 q 650 163 707 185 q 614 153 635 156 q 489 150 593 151 q 339 158 357 153 q 271 269 271 178 q 333 376 271 353 q 489 390 368 390 "},"9":{"ha":960,"x_min":49,"x_max":914,"o":"m 693 381 q 674 271 693 318 q 622 200 656 224 q 382 164 568 161 l 99 164 l 99 0 l 440 0 q 654 19 582 0 q 850 182 785 54 q 914 461 914 307 q 883 663 914 563 q 782 836 850 771 q 649 909 725 888 q 447 931 572 931 q 186 879 271 931 q 49 639 49 796 q 139 431 49 504 q 224 391 174 401 q 382 381 275 381 l 693 381 m 693 544 l 415 544 q 311 565 339 544 q 265 657 265 597 q 313 753 265 722 q 449 776 347 776 q 582 760 536 776 q 653 706 628 744 q 693 544 693 646 "}," ":{"ha":694,"x_min":0,"x_max":0,"o":""},"!":{"ha":379,"x_min":90,"x_max":288,"o":"m 288 926 l 90 926 l 90 228 l 288 228 l 288 926 m 288 157 l 90 157 l 90 0 l 288 0 l 288 157 "},"\"":{"ha":568,"x_min":86,"x_max":479,"o":"m 211 553 l 211 926 l 86 926 l 86 553 l 211 553 m 479 553 l 479 926 l 353 926 l 353 553 l 479 553 "},"#":{"ha":907,"x_min":25,"x_max":881,"o":"m 269 879 l 232 646 l 79 646 l 64 553 l 218 553 l 193 392 l 39 392 l 25 299 l 178 299 l 138 46 l 294 46 l 335 299 l 515 299 l 475 46 l 632 46 l 672 299 l 825 299 l 840 392 l 688 392 l 713 553 l 865 553 l 881 646 l 726 646 l 764 879 l 607 879 l 571 646 l 389 646 l 426 879 l 269 879 m 556 553 l 531 392 l 349 392 l 375 553 l 556 553 "},"$":{"ha":967,"x_min":49,"x_max":919,"o":"m 428 165 l 93 165 l 93 0 l 428 0 l 428 -136 l 542 -136 l 542 0 q 658 1 619 0 q 777 25 729 4 q 860 89 825 46 q 919 272 919 165 q 897 400 919 338 q 793 518 867 481 q 703 547 749 540 q 542 553 657 553 l 542 761 l 867 761 l 867 926 l 542 926 l 542 1060 l 428 1060 l 428 926 q 231 915 283 926 q 139 867 179 904 q 73 769 97 828 q 49 651 49 711 q 79 522 49 583 q 194 414 119 443 q 276 393 238 397 q 428 389 314 389 l 428 165 m 542 165 l 542 389 q 643 371 614 386 q 700 274 700 340 q 678 209 700 238 q 624 172 657 181 q 542 165 594 165 m 428 761 l 428 553 q 358 557 375 554 q 267 658 267 574 q 349 756 267 746 q 428 761 381 760 "},"%":{"ha":1225,"x_min":54,"x_max":1169,"o":"m 299 929 q 113 872 172 929 q 54 697 54 815 q 311 463 54 463 q 547 696 547 463 q 486 872 547 814 q 299 929 425 929 m 297 829 q 411 699 411 828 q 385 596 411 629 q 306 563 360 563 q 217 595 244 563 q 190 700 190 628 q 217 796 190 763 q 297 829 244 829 m 738 926 l 363 0 l 481 0 l 856 926 l 738 926 m 921 463 q 736 406 796 463 q 676 231 676 349 q 933 -6 676 -6 q 1169 229 1169 -6 q 1108 405 1169 347 q 921 463 1047 463 m 919 363 q 1033 232 1033 361 q 1008 128 1033 161 q 928 94 982 94 q 840 128 867 94 q 813 233 813 161 q 919 363 813 363 "},"&":{"ha":1042,"x_min":49,"x_max":1024,"o":"m 1024 546 l 553 546 l 553 381 l 688 381 q 599 213 660 264 q 432 161 539 161 q 316 190 353 161 q 279 278 279 218 q 317 363 279 336 q 352 377 332 374 q 422 381 372 381 q 453 381 442 381 l 453 546 l 385 546 q 306 577 338 546 q 275 657 275 608 q 407 761 275 761 l 671 761 l 671 926 l 361 926 q 210 912 263 926 q 121 861 157 897 q 49 681 49 789 q 93 533 49 593 q 179 461 122 496 q 93 390 124 440 q 63 269 63 339 q 88 147 63 207 q 181 42 115 82 q 407 -6 258 -6 q 717 81 608 -6 q 896 381 826 167 l 1024 381 l 1024 546 "},"'":{"ha":300,"x_min":86,"x_max":211,"o":"m 211 553 l 211 926 l 86 926 l 86 553 l 211 553 "},"(":{"ha":590,"x_min":60,"x_max":544,"o":"m 544 1058 q 442 1050 479 1056 q 228 946 318 1032 q 60 457 60 788 q 332 -86 60 26 q 544 -128 408 -118 l 544 28 q 425 53 469 35 q 347 111 381 72 q 260 446 260 210 q 318 779 260 668 q 544 904 381 896 l 544 1058 "},")":{"ha":590,"x_min":46,"x_max":529,"o":"m 46 1058 l 46 904 q 265 791 199 897 q 331 446 331 685 q 243 111 331 210 q 165 53 210 72 q 46 28 119 35 l 46 -128 q 235 -94 161 -119 q 365 -21 308 -69 q 529 457 529 122 q 464 803 529 664 q 247 1022 390 960 q 46 1058 183 1051 "},"*":{"ha":508,"x_min":40,"x_max":465,"o":"m 179 526 l 253 632 l 326 526 l 415 590 l 340 694 l 465 732 l 426 835 l 304 794 l 308 926 l 199 926 l 201 794 l 79 835 l 40 732 l 167 694 l 90 590 l 179 526 "},"+":{"ha":776,"x_min":50,"x_max":724,"o":"m 50 549 l 50 397 l 308 397 l 308 149 l 465 149 l 465 397 l 724 397 l 724 549 l 465 549 l 465 796 l 308 796 l 308 549 l 50 549 "},",":{"ha":324,"x_min":60,"x_max":251,"o":"m 251 181 l 83 181 l 83 0 l 144 0 l 60 -190 l 144 -190 l 251 19 l 251 181 "},"-":{"ha":324,"x_min":0,"x_max":324,"o":"m 324 442 l 0 442 l 0 275 l 324 275 l 324 442 "},".":{"ha":311,"x_min":71,"x_max":239,"o":"m 239 181 l 71 181 l 71 0 l 239 0 l 239 181 "},"/":{"ha":740,"x_min":-57,"x_max":799,"o":"m 117 -128 l 799 1053 l 625 1053 l -57 -128 l 117 -128 "},":":{"ha":311,"x_min":71,"x_max":239,"o":"m 239 181 l 71 181 l 71 0 l 239 0 l 239 181 m 239 506 l 71 506 l 71 325 l 239 325 l 239 506 "},";":{"ha":324,"x_min":60,"x_max":251,"o":"m 251 506 l 83 506 l 83 325 l 251 325 l 251 506 m 251 181 l 83 181 l 83 0 l 144 0 l 60 -190 l 144 -190 l 251 19 l 251 181 "},"<":{"ha":694,"x_min":46,"x_max":647,"o":"m 647 876 l 46 558 l 46 379 l 647 60 l 647 272 l 274 468 l 647 663 l 647 876 "},"=":{"ha":776,"x_min":50,"x_max":724,"o":"m 50 682 l 50 529 l 724 529 l 724 682 l 50 682 m 50 415 l 50 263 l 724 263 l 724 415 l 50 415 "},">":{"ha":694,"x_min":46,"x_max":647,"o":"m 46 60 l 647 378 l 647 558 l 46 876 l 46 665 l 419 468 l 46 274 l 46 60 "},"?":{"ha":946,"x_min":82,"x_max":899,"o":"m 82 926 l 82 761 l 496 761 q 625 753 597 761 q 682 657 682 732 q 643 567 682 590 q 525 547 613 547 l 411 547 q 270 535 322 547 q 183 496 218 524 q 108 292 110 435 l 108 226 l 306 226 l 306 274 q 339 361 306 339 q 472 383 372 383 l 594 383 q 760 407 700 383 q 856 486 819 431 q 899 650 899 554 q 875 785 899 729 q 801 876 851 840 q 715 917 760 907 q 564 926 671 926 l 82 926 m 306 157 l 108 157 l 108 0 l 306 0 l 306 157 "},"@":{"ha":1100,"x_min":46,"x_max":1054,"o":"m 817 101 l 546 101 q 340 133 403 101 q 238 257 276 165 q 199 463 199 349 q 224 634 199 553 q 289 758 249 715 q 565 839 365 839 q 807 788 731 839 q 882 694 854 756 q 910 557 910 633 q 853 353 910 442 q 808 307 836 326 l 750 307 l 807 715 l 600 715 q 479 701 528 715 q 389 657 431 688 q 310 549 339 618 q 282 394 282 479 q 346 246 282 294 q 405 217 376 224 q 515 211 433 211 l 810 211 q 926 269 882 235 q 1004 364 971 304 q 1054 561 1054 457 q 1017 732 1054 651 q 914 858 979 811 q 564 939 800 939 q 304 906 400 939 q 115 743 179 861 q 46 463 46 618 q 115 183 46 308 q 304 22 183 58 q 503 0 381 0 l 817 0 l 817 101 m 636 603 l 596 324 l 568 324 q 474 348 503 324 q 444 424 444 372 q 482 554 444 504 q 614 603 518 603 l 636 603 "},"A":{"ha":1003,"x_min":4,"x_max":997,"o":"m 4 0 l 235 0 l 325 214 l 676 214 l 767 0 l 997 0 l 614 926 l 388 926 l 4 0 m 501 703 l 633 379 l 369 379 l 501 703 "},"B":{"ha":969,"x_min":94,"x_max":919,"o":"m 94 0 l 607 0 q 781 20 722 0 q 876 93 839 40 q 919 244 919 154 q 785 463 919 401 q 881 549 843 486 q 919 683 919 611 q 896 790 919 739 q 797 897 863 865 q 618 926 742 926 l 94 926 l 94 0 m 292 546 l 292 761 l 564 761 q 661 742 632 761 q 701 660 701 715 q 658 568 701 601 q 622 550 640 554 q 560 546 603 546 l 292 546 m 292 165 l 292 381 l 564 381 q 661 361 632 381 q 701 279 701 335 q 658 188 701 221 q 622 169 642 174 q 560 165 603 165 l 292 165 "},"C":{"ha":842,"x_min":44,"x_max":799,"o":"m 799 165 l 515 165 q 342 210 397 165 q 263 479 263 274 q 314 690 263 632 q 507 761 375 761 l 799 761 l 799 926 l 485 926 q 258 888 346 926 q 117 764 169 849 q 44 461 44 647 q 92 200 44 306 q 335 10 164 43 q 475 0 383 0 l 799 0 l 799 165 "},"D":{"ha":994,"x_min":94,"x_max":951,"o":"m 94 926 l 94 0 l 488 0 q 680 12 617 0 q 796 57 743 24 q 915 225 879 111 q 951 461 951 336 q 914 699 951 588 q 715 897 864 843 q 488 926 635 926 l 94 926 m 292 761 l 488 761 q 654 714 601 761 q 713 613 690 681 q 735 463 735 544 q 716 324 735 389 q 667 222 697 258 q 488 165 617 165 l 292 165 l 292 761 "},"E":{"ha":850,"x_min":44,"x_max":789,"o":"m 789 926 l 457 926 q 302 908 360 926 q 193 844 244 890 q 44 468 44 710 q 150 122 44 250 q 349 13 224 33 q 532 0 428 0 l 789 0 l 789 165 l 542 165 q 339 212 399 165 q 268 378 279 258 l 789 378 l 789 543 l 268 543 q 281 638 274 610 q 310 693 289 665 q 386 747 340 733 q 532 761 432 761 l 789 761 l 789 926 "},"F":{"ha":883,"x_min":83,"x_max":832,"o":"m 832 547 l 279 547 l 279 597 q 360 739 282 707 q 536 761 399 758 l 832 761 l 832 926 l 511 926 q 259 888 349 926 q 122 757 169 849 q 83 483 85 692 l 83 0 l 279 0 l 279 382 l 832 382 l 832 547 "},"G":{"ha":960,"x_min":44,"x_max":889,"o":"m 435 550 l 435 385 l 693 385 l 693 165 l 514 165 q 399 179 446 165 q 326 224 353 193 q 278 325 296 257 q 261 478 261 393 q 328 707 261 643 q 507 761 383 761 l 889 761 l 889 926 l 485 926 q 254 886 343 926 q 114 758 165 846 q 44 460 44 639 q 190 72 44 185 q 305 16 242 32 q 475 0 368 0 l 889 0 l 889 550 l 435 550 "},"H":{"ha":940,"x_min":94,"x_max":846,"o":"m 846 926 l 650 926 l 650 549 l 292 549 l 292 926 l 94 926 l 94 0 l 292 0 l 292 383 l 650 383 l 650 0 l 846 0 l 846 926 "},"I":{"ha":385,"x_min":94,"x_max":292,"o":"m 94 0 l 292 0 l 292 926 l 94 926 l 94 0 "},"J":{"ha":739,"x_min":19,"x_max":654,"o":"m 19 0 l 229 0 q 428 13 361 0 q 619 164 567 46 q 647 258 640 208 q 654 406 654 308 l 654 926 l 458 926 l 458 406 q 447 265 458 310 q 404 197 435 221 q 340 172 382 178 q 208 165 297 165 l 19 165 l 19 0 "},"K":{"ha":915,"x_min":94,"x_max":913,"o":"m 292 926 l 94 926 l 94 0 l 292 0 l 292 926 m 299 468 l 635 0 l 894 0 l 525 468 l 913 926 l 653 926 l 299 468 "},"L":{"ha":739,"x_min":83,"x_max":718,"o":"m 83 926 l 83 406 q 99 211 83 269 q 293 17 140 61 q 508 0 360 0 l 718 0 l 718 165 l 529 165 q 349 188 400 165 q 288 275 297 211 q 279 406 283 307 l 279 926 l 83 926 "},"M":{"ha":1235,"x_min":90,"x_max":1139,"o":"m 378 926 l 90 926 l 90 0 l 278 0 l 278 694 l 507 0 l 710 0 l 951 694 l 951 0 l 1139 0 l 1139 926 l 851 926 l 608 203 l 378 926 "},"N":{"ha":997,"x_min":94,"x_max":903,"o":"m 283 679 l 661 0 l 903 0 l 903 926 l 715 926 l 715 236 l 347 926 l 94 926 l 94 0 l 283 0 l 283 679 "},"O":{"ha":1003,"x_min":44,"x_max":958,"o":"m 501 932 q 176 836 288 931 q 44 458 44 724 q 96 206 44 310 q 244 53 147 101 q 517 -6 360 -6 q 728 31 636 -6 q 911 204 851 81 q 958 450 958 308 q 919 694 958 590 q 746 885 869 828 q 501 932 640 932 m 503 776 q 694 685 640 775 q 742 463 742 608 q 684 226 742 303 q 504 150 626 150 q 319 225 378 150 q 261 464 261 301 q 308 688 261 618 q 503 776 367 776 "},"P":{"ha":951,"x_min":94,"x_max":921,"o":"m 292 324 l 608 324 q 735 338 689 324 q 824 388 782 351 q 895 491 869 428 q 921 625 921 554 q 882 782 921 710 q 738 908 829 878 q 557 926 683 926 l 94 926 l 94 0 l 292 0 l 292 324 m 292 489 l 292 761 l 564 761 q 639 751 615 761 q 704 632 704 725 q 661 511 704 546 q 560 489 632 489 l 292 489 "},"Q":{"ha":1050,"x_min":44,"x_max":1014,"o":"m 1014 165 l 857 165 q 960 469 960 292 q 919 694 960 585 q 853 810 894 765 q 746 885 811 854 q 501 932 642 932 q 176 836 289 932 q 44 458 44 722 q 100 199 44 307 q 329 21 174 57 q 432 3 389 7 q 592 0 475 0 l 667 0 l 1014 0 l 1014 165 m 503 776 q 692 685 635 775 q 742 472 742 603 q 700 254 742 329 q 504 156 646 156 q 301 263 353 156 q 263 476 263 344 q 322 702 263 628 q 503 776 381 776 "},"R":{"ha":992,"x_min":94,"x_max":942,"o":"m 292 351 l 450 351 q 607 324 553 353 q 672 256 650 299 q 700 132 693 213 q 721 0 711 32 l 942 0 q 919 140 928 40 q 908 231 915 200 q 883 294 900 261 q 833 358 861 336 q 751 399 806 379 q 861 464 819 421 q 928 668 928 536 q 899 788 928 733 q 818 876 871 843 q 547 926 742 926 l 94 926 l 94 0 l 292 0 l 292 351 m 292 517 l 292 761 l 568 761 q 644 753 621 761 q 711 644 711 729 q 667 538 711 568 q 568 517 638 517 l 292 517 "},"S":{"ha":965,"x_min":47,"x_max":917,"o":"m 90 0 l 556 0 q 715 8 663 0 q 878 122 824 28 q 917 274 917 189 q 888 417 917 350 q 751 533 850 500 q 582 553 696 553 l 433 553 q 317 569 351 553 q 264 658 264 592 q 326 753 264 738 q 450 761 357 760 l 865 761 l 865 926 l 406 926 q 282 922 324 926 q 104 831 160 908 q 47 653 47 750 q 72 536 47 590 q 139 446 96 482 q 365 389 208 389 l 538 389 q 640 371 608 389 q 697 272 697 340 q 649 185 697 214 q 514 165 615 165 l 90 165 l 90 0 "},"T":{"ha":811,"x_min":6,"x_max":804,"o":"m 300 761 l 300 0 l 497 0 l 497 761 l 804 761 l 804 926 l 6 926 l 6 761 l 300 761 "},"U":{"ha":976,"x_min":83,"x_max":892,"o":"m 279 926 l 83 926 l 83 367 q 103 197 83 257 q 174 88 122 136 q 488 -7 272 -7 q 799 89 689 -7 q 869 202 846 132 q 892 381 892 272 l 892 926 l 694 926 l 694 371 q 675 232 694 271 q 606 170 656 193 q 490 147 557 147 q 328 204 386 147 q 290 267 301 231 q 279 371 279 304 l 279 926 "},"V":{"ha":997,"x_min":1,"x_max":994,"o":"m 994 926 l 772 926 l 496 229 l 224 926 l 1 926 l 392 0 l 589 0 l 994 926 "},"W":{"ha":1468,"x_min":18,"x_max":1450,"o":"m 222 926 l 18 926 l 318 0 l 543 0 l 735 668 l 926 0 l 1151 0 l 1450 926 l 1247 926 l 1039 229 l 844 926 l 625 926 l 431 229 l 222 926 "},"X":{"ha":885,"x_min":6,"x_max":876,"o":"m 321 468 l 6 0 l 240 0 l 440 318 l 644 0 l 876 0 l 563 468 l 876 926 l 638 926 l 440 621 l 258 926 l 17 926 l 321 468 "},"Y":{"ha":907,"x_min":3,"x_max":904,"o":"m 346 406 l 346 0 l 543 0 l 543 399 l 904 926 l 669 926 l 446 564 l 233 926 l 3 926 l 346 406 "},"Z":{"ha":908,"x_min":51,"x_max":856,"o":"m 635 761 l 51 160 l 51 0 l 856 0 l 856 165 l 292 165 l 856 756 l 856 926 l 51 926 l 51 761 l 635 761 "},"[":{"ha":489,"x_min":83,"x_max":442,"o":"m 442 1053 l 313 1053 q 199 1045 236 1053 q 135 1013 163 1038 q 94 953 106 988 q 83 850 83 919 l 83 75 q 94 -28 83 7 q 135 -87 106 -62 q 200 -119 164 -111 q 313 -128 236 -128 l 442 -128 l 442 21 l 394 21 q 296 39 317 21 q 281 67 285 49 q 276 128 276 85 l 276 797 q 296 888 276 869 q 394 906 315 906 l 442 906 l 442 1053 "},"\\":{"ha":740,"x_min":-57,"x_max":799,"o":"m 625 -128 l 799 -128 l 117 1053 l -57 1053 l 625 -128 "},"]":{"ha":489,"x_min":46,"x_max":404,"o":"m 46 1053 l 46 906 l 93 906 q 190 888 169 906 q 207 859 203 878 q 211 797 211 840 l 211 128 q 192 39 211 57 q 93 21 172 21 l 46 21 l 46 -128 l 175 -128 q 288 -119 251 -128 q 351 -87 324 -111 q 393 -28 382 -62 q 404 75 404 7 l 404 850 q 393 953 404 918 q 351 1013 382 988 q 288 1044 324 1036 q 175 1053 251 1053 l 46 1053 "},"^":{"ha":694,"x_min":19,"x_max":675,"o":"m 210 485 l 347 786 l 486 485 l 675 485 l 467 931 l 229 931 l 19 485 l 210 485 "},"_":{"ha":694,"x_min":0,"x_max":694,"o":"m 0 -54 l 0 -206 l 694 -206 l 694 -54 l 0 -54 "},"`":{"ha":694,"x_min":133,"x_max":425,"o":"m 133 938 l 306 756 l 425 756 l 297 938 l 133 938 "},"a":{"ha":826,"x_min":53,"x_max":751,"o":"m 557 411 l 329 411 q 172 394 219 411 q 85 322 118 375 q 53 200 53 268 q 135 32 53 88 q 206 6 165 13 q 351 0 246 0 l 743 0 l 743 381 q 597 660 751 601 q 532 673 564 669 q 415 676 500 676 l 101 676 l 101 532 l 415 532 q 528 507 500 532 q 557 411 557 482 m 557 267 l 557 144 l 343 144 q 265 158 288 144 q 242 204 242 172 q 260 250 242 233 q 311 267 279 267 l 343 267 l 557 267 "},"b":{"ha":828,"x_min":90,"x_max":781,"o":"m 276 676 l 276 926 l 90 926 l 90 0 l 393 0 q 535 10 485 0 q 632 50 585 21 q 781 347 781 142 q 751 503 781 432 q 617 643 710 597 q 440 676 549 676 l 276 676 m 276 532 l 414 532 q 590 342 590 532 q 546 199 590 257 q 414 144 501 144 l 276 144 l 276 532 "},"c":{"ha":707,"x_min":46,"x_max":656,"o":"m 656 676 l 401 676 q 250 661 308 676 q 150 610 192 646 q 46 340 46 521 q 133 93 46 190 q 239 21 179 42 q 401 0 299 0 l 656 0 l 656 144 l 456 144 q 365 152 397 144 q 304 179 332 160 q 236 338 236 229 q 278 482 236 435 q 433 532 321 532 l 656 532 l 656 676 "},"d":{"ha":821,"x_min":46,"x_max":729,"o":"m 544 676 l 369 676 q 163 613 239 676 q 46 343 46 517 q 86 163 46 236 q 263 15 144 53 q 410 0 313 0 l 729 0 l 729 926 l 544 926 l 544 676 m 544 144 l 410 144 q 301 178 347 144 q 235 343 235 228 q 275 472 235 422 q 410 532 321 532 l 544 532 l 544 144 "},"e":{"ha":704,"x_min":46,"x_max":643,"o":"m 643 411 l 251 411 q 289 506 258 481 q 396 532 319 532 l 643 532 l 643 676 l 382 676 q 218 650 281 676 q 111 561 156 624 q 46 347 46 469 q 169 63 46 158 q 265 15 214 29 q 396 0 315 0 l 643 0 l 643 144 l 417 144 q 294 172 332 144 q 251 267 257 200 l 643 267 l 643 411 "},"f":{"ha":528,"x_min":25,"x_max":507,"o":"m 146 532 l 146 0 l 332 0 l 332 532 l 507 532 l 507 676 l 332 676 l 332 707 q 411 782 331 785 l 506 782 l 506 926 l 343 926 q 192 876 239 926 q 146 717 146 826 l 146 676 l 25 676 l 25 532 l 146 532 "},"g":{"ha":831,"x_min":49,"x_max":739,"o":"m 739 676 l 392 676 q 266 663 315 676 q 172 618 217 650 q 49 339 49 531 q 150 75 49 171 q 247 17 193 35 q 382 0 300 0 l 553 0 q 534 -77 553 -58 q 454 -96 515 -96 l 108 -96 l 108 -240 l 479 -240 q 610 -226 565 -240 q 688 -172 656 -211 q 726 -97 713 -142 q 739 4 739 -53 l 739 676 m 553 532 l 553 144 l 408 144 q 281 194 325 144 q 238 338 238 243 q 399 532 238 532 l 553 532 "},"h":{"ha":828,"x_min":90,"x_max":744,"o":"m 276 926 l 90 926 l 90 0 l 276 0 l 276 532 l 428 532 q 533 501 506 531 q 553 462 549 485 q 558 385 558 439 l 558 0 l 744 0 l 744 421 q 681 617 744 558 q 599 663 647 650 q 467 676 551 676 l 276 676 l 276 926 "},"i":{"ha":369,"x_min":90,"x_max":276,"o":"m 90 676 l 90 0 l 276 0 l 276 676 l 90 676 m 90 746 l 276 746 l 276 926 l 90 926 l 90 746 "},"j":{"ha":413,"x_min":-32,"x_max":322,"o":"m 322 676 l 138 676 l 138 39 q 133 -34 138 -12 q 118 -69 129 -56 q 15 -100 96 -99 l -32 -100 l -32 -240 l 50 -240 q 242 -187 181 -236 q 304 -98 286 -153 q 322 54 322 -43 l 322 676 m 138 751 l 322 751 l 322 926 l 138 926 l 138 751 "},"k":{"ha":754,"x_min":90,"x_max":733,"o":"m 276 926 l 90 926 l 90 0 l 276 0 l 276 265 l 403 265 q 485 244 464 265 q 506 158 506 222 l 506 0 l 692 0 l 692 150 q 654 351 692 294 q 519 408 617 408 l 469 408 l 733 676 l 525 676 l 276 408 l 276 926 "},"l":{"ha":369,"x_min":90,"x_max":276,"o":"m 276 0 l 276 926 l 90 926 l 90 0 l 276 0 "},"m":{"ha":1142,"x_min":90,"x_max":1058,"o":"m 90 676 l 90 0 l 276 0 l 276 532 l 476 532 l 476 0 l 663 0 l 663 532 l 761 532 q 849 504 819 532 q 868 469 864 489 q 872 401 872 450 l 872 0 l 1058 0 l 1058 431 q 997 614 1058 547 q 915 663 964 649 q 774 676 867 676 l 90 676 "},"n":{"ha":803,"x_min":90,"x_max":719,"o":"m 90 676 l 90 0 l 276 0 l 276 532 l 438 532 q 511 510 489 532 q 533 438 533 488 l 533 0 l 719 0 l 719 417 q 649 622 719 557 q 572 665 614 653 q 449 676 529 676 l 90 676 "},"o":{"ha":808,"x_min":46,"x_max":761,"o":"m 403 686 q 131 579 225 685 q 46 343 46 485 q 135 88 46 175 q 400 -10 231 -10 q 658 76 564 -10 q 761 329 761 171 q 679 578 761 479 q 403 686 590 686 m 404 544 q 571 339 571 542 q 406 132 571 132 q 264 207 310 132 q 236 336 236 251 q 404 544 236 544 "},"p":{"ha":818,"x_min":90,"x_max":772,"o":"m 90 676 l 90 -254 l 276 -254 l 276 0 l 440 0 q 581 21 524 0 q 683 88 639 42 q 772 328 772 179 q 651 618 772 524 q 558 665 607 653 q 415 676 510 676 l 90 676 m 276 532 l 403 532 q 535 483 489 532 q 581 342 581 433 q 522 183 581 235 q 390 144 481 144 l 276 144 l 276 532 "},"q":{"ha":828,"x_min":46,"x_max":736,"o":"m 736 676 l 403 676 q 260 665 308 676 q 168 618 211 653 q 46 331 46 524 q 133 90 46 185 q 372 0 217 0 l 550 0 l 550 -254 l 736 -254 l 736 676 m 550 532 l 550 144 l 422 144 q 285 194 332 144 q 238 339 238 243 q 283 483 238 433 q 415 532 329 532 l 550 532 "},"r":{"ha":650,"x_min":90,"x_max":629,"o":"m 90 676 l 90 0 l 276 0 l 276 532 l 329 532 q 425 506 400 532 q 450 407 450 479 l 450 371 l 629 371 l 629 436 q 617 556 629 514 q 574 625 604 597 q 497 665 543 653 q 365 676 450 676 l 90 676 "},"s":{"ha":761,"x_min":53,"x_max":710,"o":"m 678 676 l 281 676 q 126 640 171 676 q 53 479 53 581 q 74 380 53 426 q 133 307 96 333 q 199 276 164 285 q 301 268 235 268 l 414 268 q 494 260 478 268 q 528 203 528 244 q 478 146 528 151 q 394 144 456 144 l 63 144 l 63 0 l 447 0 q 594 15 550 0 q 668 79 638 31 q 710 214 710 140 q 642 361 710 311 q 475 406 581 406 l 365 406 q 275 417 292 406 q 244 472 244 436 q 276 526 244 515 q 349 532 292 532 l 678 532 l 678 676 "},"t":{"ha":535,"x_min":22,"x_max":499,"o":"m 140 676 l 22 676 l 22 532 l 140 532 l 140 254 q 192 58 140 117 q 364 0 243 0 l 499 0 l 499 144 l 425 144 q 342 178 365 144 q 326 286 326 200 l 326 532 l 499 532 l 499 676 l 326 676 l 326 926 l 140 926 l 140 676 "},"u":{"ha":810,"x_min":82,"x_max":718,"o":"m 532 144 l 357 144 q 291 170 315 144 q 267 242 267 196 l 267 676 l 82 676 l 82 261 q 153 54 82 118 q 229 12 186 24 q 351 0 272 0 l 718 0 l 718 676 l 532 676 l 532 144 "},"v":{"ha":779,"x_min":8,"x_max":769,"o":"m 383 211 l 211 676 l 8 676 l 278 0 l 478 0 l 769 676 l 572 676 l 383 211 "},"w":{"ha":1142,"x_min":82,"x_max":1049,"o":"m 478 144 l 378 144 q 290 172 319 144 q 272 207 276 188 q 267 275 267 226 l 267 676 l 82 676 l 82 246 q 143 63 82 129 q 224 14 175 28 q 365 0 272 0 l 1049 0 l 1049 676 l 864 676 l 864 144 l 664 144 l 664 676 l 478 676 l 478 144 "},"x":{"ha":729,"x_min":4,"x_max":722,"o":"m 258 335 l 4 0 l 222 0 l 365 193 l 503 0 l 722 0 l 469 335 l 722 676 l 503 676 l 365 476 l 222 676 l 14 676 l 258 335 "},"y":{"ha":796,"x_min":82,"x_max":719,"o":"m 533 144 l 381 144 q 302 178 321 144 q 283 317 283 211 l 283 676 l 97 676 l 97 299 q 368 0 82 -7 l 533 0 q 525 -62 529 -49 q 507 -83 521 -75 q 429 -96 489 -96 l 97 -96 l 97 -240 l 429 -240 q 650 -179 581 -240 q 719 14 719 -118 l 719 676 l 533 676 l 533 144 "},"z":{"ha":731,"x_min":42,"x_max":679,"o":"m 433 532 l 42 140 l 42 0 l 679 0 l 679 144 l 288 144 l 679 536 l 679 676 l 42 676 l 42 532 l 433 532 "},"{":{"ha":528,"x_min":56,"x_max":481,"o":"m 232 463 q 297 528 279 490 q 315 635 315 565 l 315 772 q 317 856 315 840 q 329 885 319 872 q 400 906 346 906 l 481 906 l 481 1053 l 364 1053 q 253 1045 290 1053 q 185 1014 217 1038 q 122 853 124 971 l 122 651 q 108 563 122 590 q 56 526 93 536 l 56 399 q 108 363 93 390 q 122 274 122 335 l 122 72 q 175 -81 124 -36 q 249 -119 208 -110 q 386 -128 290 -128 l 481 -128 l 481 21 l 400 21 q 331 40 347 21 q 317 67 319 51 q 315 154 315 83 l 315 290 q 297 399 315 360 q 232 463 278 438 "},"|":{"ha":694,"x_min":239,"x_max":456,"o":"m 239 926 l 239 -232 l 456 -232 l 456 926 l 239 926 "},"}":{"ha":528,"x_min":46,"x_max":471,"o":"m 294 463 q 230 399 249 438 q 211 290 211 360 l 211 154 q 208 67 211 83 q 196 40 206 51 q 126 21 179 21 l 46 21 l 46 -128 l 140 -128 q 269 -120 231 -128 q 342 -87 308 -112 q 404 72 403 -44 l 404 274 q 419 363 404 335 q 471 399 433 390 l 471 526 q 419 563 433 536 q 404 651 404 590 l 404 853 q 351 1007 403 963 q 280 1043 319 1033 q 163 1053 240 1053 l 46 1053 l 46 906 l 126 906 q 197 885 181 906 q 209 857 207 872 q 211 772 211 842 l 211 635 q 229 528 211 565 q 294 463 247 490 "},"~":{"ha":925,"x_min":128,"x_max":800,"o":"m 232 764 q 326 849 276 849 q 428 818 358 849 q 527 778 501 786 q 581 771 553 771 q 725 831 668 771 q 800 960 764 872 l 694 1046 q 597 961 650 961 q 564 967 581 961 q 492 996 547 972 q 336 1042 382 1042 q 128 851 204 1042 l 232 764 "},"":{"ha":694,"x_min":0,"x_max":0,"o":""}," ":{"ha":694,"x_min":0,"x_max":0,"o":""},"¡":{"ha":694,"x_min":157,"x_max":310,"o":"m 233 765 q 179 744 201 765 q 157 690 157 722 q 179 635 157 657 q 233 613 201 613 q 288 635 265 613 q 310 690 310 657 q 288 744 310 722 q 233 765 265 765 m 244 504 l 217 504 l 157 -49 q 157 -109 157 -76 q 176 -169 157 -142 q 226 -196 196 -196 q 280 -169 256 -196 q 307 -108 304 -142 q 304 -43 310 -75 l 244 504 "},"¢":{"ha":694,"x_min":86,"x_max":613,"o":"m 613 342 l 613 342 l 592 353 q 523 241 553 276 q 458 187 493 206 q 374 171 424 168 q 276 211 325 174 l 439 663 q 458 608 461 640 q 477 556 456 575 q 524 540 499 538 q 565 559 549 543 q 583 608 581 575 q 562 672 586 640 q 467 732 538 704 l 564 1004 l 515 1004 l 424 743 q 379 749 390 749 q 196 678 278 749 q 86 413 86 586 q 117 253 86 315 q 201 142 147 190 l 92 -151 l 136 -151 l 239 119 q 366 86 293 86 q 510 149 439 86 q 613 342 581 211 m 401 689 l 239 250 q 171 399 179 315 q 187 546 163 483 q 255 646 211 608 q 334 689 299 683 q 401 689 369 694 "},"£":{"ha":694,"x_min":43,"x_max":663,"o":"m 304 478 l 489 478 l 489 543 l 304 543 q 296 621 304 558 q 288 762 288 683 q 328 881 288 840 q 415 922 369 922 q 483 903 461 922 q 504 844 504 885 q 521 784 504 803 q 556 765 538 765 q 594 784 575 765 q 613 838 613 803 q 569 915 613 874 q 451 956 526 956 q 315 923 375 956 q 228 822 256 890 q 201 694 201 754 q 211 543 200 635 l 65 543 l 65 478 l 211 478 q 211 211 222 314 q 179 211 196 211 q 133 211 163 211 q 73 184 103 211 q 43 111 43 157 q 65 44 43 65 q 122 22 86 22 q 190 47 157 22 q 250 125 222 71 q 385 35 347 49 q 481 22 424 22 q 594 76 538 22 q 663 239 651 131 l 640 244 q 588 158 624 190 q 507 125 553 125 q 426 136 461 125 q 276 190 390 147 q 301 313 299 256 q 304 478 304 369 m 206 157 q 170 81 194 103 q 127 60 146 60 q 95 73 108 60 q 82 111 82 86 q 98 152 82 136 q 133 171 114 168 q 170 171 151 174 q 206 157 189 168 "},"¤":{"ha":1389,"x_min":131,"x_max":1258,"o":"m 1031 108 l 1031 108 l 1193 -54 l 1243 -6 l 1079 157 q 1201 483 1193 288 q 1079 836 1210 679 l 1258 1014 l 1210 1064 l 1031 885 q 687 1004 890 1004 q 347 885 483 1004 l 174 1058 l 131 1010 l 304 836 q 174 493 168 683 q 299 157 179 303 l 131 -11 l 179 -54 l 342 108 q 656 -8 467 0 q 1031 108 846 -17 m 1031 211 q 795 70 939 103 q 535 76 651 38 q 331 228 418 114 q 244 497 244 342 q 356 792 244 651 q 686 933 467 933 q 1022 792 906 933 q 1131 485 1139 651 q 1031 211 1122 319 "},"¥":{"ha":694,"x_min":38,"x_max":657,"o":"m 657 319 l 396 319 l 396 444 l 657 444 l 657 493 l 418 493 l 549 825 q 597 903 581 885 q 657 922 614 922 l 657 956 l 450 956 l 450 922 q 504 909 493 922 q 515 882 515 896 q 504 836 515 868 l 375 493 l 244 851 q 233 885 233 874 q 250 906 233 896 q 310 922 267 917 l 310 956 l 49 956 l 49 922 q 110 909 86 922 q 163 831 135 896 l 288 493 l 38 493 l 38 444 l 304 444 l 310 418 l 310 319 l 38 319 l 38 271 l 310 271 l 310 206 q 307 101 310 119 q 290 71 304 82 q 211 60 276 60 l 196 60 l 196 28 l 504 28 l 504 60 l 489 60 q 415 71 429 60 q 399 101 401 82 q 396 206 396 119 l 396 271 l 657 271 l 657 319 "},"¦":{"ha":694,"x_min":108,"x_max":168,"o":"m 168 1069 l 108 1069 l 108 564 l 168 564 l 168 1069 m 168 310 l 108 310 l 108 -196 l 168 -196 l 168 310 "},"§":{"ha":1389,"x_min":429,"x_max":956,"o":"m 667 672 q 469 588 510 667 q 502 401 429 510 q 686 185 575 293 q 800 30 797 76 q 743 -35 803 -17 q 635 -46 683 -54 q 569 -22 586 -37 q 564 13 553 -6 q 575 43 575 32 q 562 70 575 54 q 526 92 549 86 q 483 78 504 97 q 464 22 461 60 q 510 -49 467 -17 q 669 -87 553 -82 q 841 -51 786 -92 q 892 59 896 -11 q 743 265 889 129 q 885 301 831 261 q 947 407 939 342 q 920 540 956 472 q 828 660 885 608 q 673 795 771 711 q 572 933 575 879 q 626 1015 569 988 q 743 1031 683 1042 q 811 1001 803 1019 q 814 969 819 982 q 814 939 808 956 q 838 911 819 922 q 876 906 857 900 q 909 928 896 911 q 919 972 922 944 q 876 1028 917 999 q 760 1069 836 1058 q 618 1060 683 1079 q 528 996 553 1042 q 513 884 504 950 q 667 672 521 818 m 717 299 q 583 448 657 364 q 524 570 510 532 q 583 624 538 608 q 700 635 629 640 q 827 497 792 564 q 857 391 863 429 q 822 326 851 353 q 717 299 793 299 "},"¨":{"ha":1389,"x_min":444,"x_max":949,"o":"m 911 956 q 841 967 879 983 q 803 906 803 950 q 838 847 803 863 q 906 847 874 831 q 944 898 939 863 q 911 956 949 933 m 549 846 q 581 901 576 863 q 553 960 586 939 q 483 966 521 982 q 444 903 444 950 q 483 843 444 857 q 549 846 521 829 "},"©":{"ha":694,"x_min":0,"x_max":689,"o":"m 347 911 q 176 865 261 911 q 46 735 92 819 q 0 565 0 651 q 46 394 0 478 q 174 263 92 310 q 344 217 256 217 q 518 263 433 217 q 646 394 603 310 q 689 565 689 478 q 643 735 689 651 q 515 865 597 819 q 347 911 433 911 m 342 879 q 499 838 424 879 q 616 722 575 797 q 657 565 657 646 q 616 410 657 483 q 499 293 575 336 q 344 250 424 250 q 190 293 265 250 q 73 410 114 336 q 32 565 32 483 q 73 722 32 646 q 190 838 114 797 q 342 879 265 879 m 515 786 l 499 786 q 494 749 499 760 q 464 759 489 738 q 399 789 439 781 q 296 787 358 797 q 179 714 233 776 q 125 562 125 651 q 188 410 125 472 q 347 347 250 347 q 532 444 467 347 l 515 456 q 364 379 461 379 q 247 426 293 379 q 193 529 201 472 q 201 635 185 586 q 263 719 217 683 q 361 760 310 754 q 450 738 413 765 q 510 646 488 711 l 526 646 l 515 786 "},"ª":{"ha":694,"x_min":-6,"x_max":379,"o":"m 233 906 q 74 844 119 874 q 11 784 28 814 q -6 722 -6 754 q 22 665 -6 689 q 81 640 49 640 q 152 654 114 640 q 233 700 190 668 q 252 649 239 663 q 282 635 265 635 q 315 643 299 635 q 379 683 331 651 l 379 717 q 342 700 353 700 l 331 700 q 325 717 325 706 q 325 760 325 722 l 325 906 q 315 980 325 956 q 272 1026 304 1004 q 165 1050 239 1047 q 54 1023 92 1053 q 14 963 17 993 q 24 919 11 933 q 57 906 38 906 q 90 919 76 906 q 100 958 103 933 q 108 1001 97 982 q 158 1022 119 1019 q 215 1001 196 1025 q 233 906 233 976 m 233 879 l 233 879 l 233 726 q 187 703 206 711 q 151 694 168 694 q 108 713 125 694 q 92 754 92 732 q 122 819 92 786 q 233 879 151 851 "},"«":{"ha":694,"x_min":43,"x_max":651,"o":"m 347 97 l 179 418 l 347 738 l 304 738 l 43 418 l 304 97 l 347 97 m 651 97 l 489 418 l 651 738 l 613 738 l 347 418 l 613 97 l 651 97 "},"¬":{"ha":694,"x_min":28,"x_max":694,"o":"m 694 700 l 28 700 l 28 646 l 640 646 l 640 424 l 694 424 l 694 700 "},"­":{"ha":694,"x_min":54,"x_max":407,"o":"m 54 467 l 54 364 l 407 364 l 407 467 l 54 467 "},"®":{"ha":694,"x_min":0,"x_max":694,"o":"m 358 911 q 182 868 272 911 q 46 735 92 825 q 0 562 0 646 q 43 394 0 478 q 174 263 86 310 q 347 217 261 217 q 518 260 433 217 q 646 383 603 304 q 692 556 689 461 q 651 738 694 651 q 526 868 608 825 q 358 911 444 911 m 353 879 q 508 838 429 879 q 622 719 586 797 q 657 562 657 640 q 622 404 657 483 q 508 288 586 325 q 347 250 429 250 q 190 288 265 250 q 71 404 114 325 q 30 567 28 483 q 73 724 32 651 q 195 838 114 797 q 353 879 276 879 m 151 781 l 151 760 q 188 757 179 760 q 199 740 196 754 q 201 694 201 726 l 201 433 q 196 389 201 400 q 182 372 190 375 q 146 369 174 369 l 146 353 l 331 353 l 331 369 q 285 374 299 369 q 271 401 271 379 l 271 549 l 304 549 l 444 353 l 543 353 l 543 369 q 515 369 526 369 q 483 418 500 386 l 375 558 q 461 605 433 581 q 489 670 489 629 q 451 746 489 711 q 342 781 413 781 l 151 781 m 271 575 l 271 754 q 326 754 299 754 q 380 727 353 754 q 407 670 407 700 q 391 616 407 640 q 353 583 375 592 q 271 575 331 575 "},"¯":{"ha":694,"x_min":0,"x_max":694,"o":"m 0 1096 l 694 1096 l 694 1156 l 0 1156 l 0 1096 "},"°":{"ha":1389,"x_min":179,"x_max":504,"o":"m 325 694 q 442 724 396 689 q 497 830 489 760 q 472 947 504 900 q 393 1003 439 993 q 299 1001 347 1014 q 217 952 250 988 q 182 851 185 917 q 219 743 179 786 q 325 694 260 700 m 228 863 q 263 933 233 906 q 336 965 293 960 q 415 941 379 971 q 450 854 450 911 q 415 765 450 797 q 322 740 379 732 q 244 787 265 749 q 228 863 222 825 "},"±":{"ha":1389,"x_min":217,"x_max":1167,"o":"m 1167 38 l 217 38 l 217 -28 l 1167 -28 l 1167 38 m 717 1019 l 651 1019 l 651 592 l 217 592 l 217 526 l 651 526 l 651 151 l 717 151 l 717 526 l 1167 526 l 1167 592 l 717 592 l 717 1019 "},"²":{"ha":694,"x_min":17,"x_max":390,"o":"m 347 553 l 390 657 l 358 657 q 328 626 347 635 q 250 618 310 618 l 125 618 q 312 808 271 743 q 353 919 353 874 q 309 1003 353 965 q 195 1042 265 1042 q 82 1003 125 1042 q 28 900 39 965 l 60 900 q 103 963 76 944 q 171 982 131 982 q 241 955 211 982 q 271 881 271 928 q 239 786 271 835 q 17 575 179 706 l 17 553 l 347 553 "},"³":{"ha":694,"x_min":32,"x_max":353,"o":"m 38 939 l 38 939 l 60 928 q 152 988 103 988 q 223 966 201 988 q 244 906 244 944 q 209 838 244 868 q 119 808 174 808 l 119 786 q 209 773 174 786 q 260 733 244 760 q 276 673 276 706 q 249 613 276 640 q 192 586 222 586 q 124 602 163 586 q 70 618 86 618 q 43 608 54 618 q 32 586 32 597 q 51 559 32 575 q 131 543 71 543 q 296 594 239 543 q 353 700 353 646 q 328 786 353 754 q 256 840 304 818 q 325 939 325 896 q 290 1012 325 982 q 196 1042 256 1042 q 98 1015 136 1042 q 38 939 60 988 "},"´":{"ha":694,"x_min":163,"x_max":385,"o":"m 385 1047 l 233 1047 l 163 814 l 185 814 l 385 1047 "},"µ":{"ha":694,"x_min":92,"x_max":743,"o":"m 228 825 l 136 825 l 136 364 q 131 231 136 271 q 108 125 125 190 q 92 33 92 60 q 108 -13 92 6 q 147 -32 125 -32 q 185 -10 168 -32 q 203 38 201 11 q 195 135 206 65 q 185 282 185 206 q 228 239 206 250 q 296 228 250 228 q 393 255 342 228 q 499 347 444 282 q 528 260 504 288 q 608 233 553 233 q 700 266 663 233 q 743 375 738 299 l 717 375 q 692 312 706 331 q 648 290 678 293 q 605 307 618 288 q 592 413 592 326 l 592 825 l 499 825 l 499 390 q 372 304 433 315 q 280 301 310 293 q 239 328 250 310 q 228 433 228 347 l 228 825 "},"¶":{"ha":694,"x_min":-11,"x_max":629,"o":"m 543 988 l 629 988 l 629 1025 l 299 1025 q 125 990 190 1025 q 22 890 60 956 q -11 771 -11 847 q 24 635 -11 694 q 122 545 60 575 q 315 510 185 515 l 315 -196 l 364 -196 l 364 988 l 493 988 l 493 -196 l 543 -196 l 543 988 "},"·":{"ha":1389,"x_min":531,"x_max":857,"o":"m 613 358 q 770 358 694 321 q 851 491 846 396 q 776 632 857 586 q 613 635 694 678 q 531 494 532 592 q 613 358 531 396 "},"¸":{"ha":694,"x_min":125,"x_max":336,"o":"m 288 114 l 244 114 l 168 -6 q 195 -6 179 -6 q 228 -19 211 -6 q 244 -57 244 -32 q 220 -106 244 -82 q 172 -131 196 -131 q 125 -125 147 -131 l 125 -157 q 212 -157 168 -157 q 296 -122 256 -157 q 336 -43 336 -86 q 315 24 336 0 q 250 60 293 49 l 288 114 "},"¹":{"ha":694,"x_min":92,"x_max":325,"o":"m 233 1042 l 92 982 l 103 965 q 152 974 136 976 q 171 958 168 971 q 174 896 174 944 l 174 640 q 171 594 174 603 q 157 581 168 586 q 103 575 146 575 l 103 553 l 325 553 l 325 575 q 272 581 282 575 q 258 594 261 586 q 256 640 256 603 l 256 1042 l 233 1042 "},"º":{"ha":694,"x_min":22,"x_max":413,"o":"m 222 1042 q 76 985 131 1042 q 22 836 22 928 q 76 694 22 749 q 211 640 129 640 q 353 700 293 640 q 413 846 413 760 q 358 985 413 928 q 222 1042 304 1042 m 201 1014 q 271 971 244 1014 q 319 797 319 906 q 295 702 319 732 q 233 672 271 672 q 163 711 190 674 q 114 885 114 782 q 142 985 114 956 q 201 1014 169 1014 "},"»":{"ha":694,"x_min":43,"x_max":651,"o":"m 353 738 l 515 418 l 353 97 l 390 97 l 651 418 l 390 738 l 353 738 m 43 738 l 206 418 l 43 97 l 82 97 l 353 418 l 82 738 l 43 738 "},"¼":{"ha":694,"x_min":38,"x_max":689,"o":"m 142 1042 l 38 982 l 54 965 q 81 976 71 976 q 94 974 92 976 q 100 958 97 971 q 103 896 103 944 l 103 640 q 94 589 103 603 q 54 575 86 575 l 54 553 l 211 553 l 211 575 q 163 589 168 575 q 157 640 157 603 l 157 1042 l 142 1042 m 592 1042 l 543 1042 l 108 71 l 151 71 l 592 1042 m 689 256 l 635 256 l 635 564 l 597 564 l 418 250 l 418 201 l 586 201 l 586 76 l 635 76 l 635 201 l 689 201 l 689 256 m 586 256 l 461 256 l 586 472 l 586 256 "},"½":{"ha":694,"x_min":38,"x_max":694,"o":"m 136 1042 l 38 982 l 43 965 q 78 974 65 976 q 94 958 92 971 q 97 896 97 944 l 97 640 q 89 586 97 597 q 43 575 81 575 l 43 553 l 201 553 l 201 575 q 163 589 168 575 q 157 640 157 603 l 157 1042 l 136 1042 m 581 1042 l 538 1042 l 92 71 l 136 71 l 581 1042 m 663 76 l 694 179 l 667 179 q 649 149 663 157 q 586 142 635 142 l 493 142 q 635 331 603 265 q 667 442 667 396 q 635 526 667 489 q 549 564 603 564 q 469 526 499 564 q 433 424 439 489 l 456 424 q 485 485 467 467 q 531 504 504 504 q 581 477 558 504 q 603 410 603 450 q 562 290 603 369 q 424 97 521 211 l 424 76 l 663 76 "},"¾":{"ha":694,"x_min":43,"x_max":694,"o":"m 592 1042 l 553 1042 l 136 71 l 179 71 l 592 1042 m 49 939 q 90 1015 65 988 q 155 1042 114 1042 q 217 1012 196 1042 q 239 938 239 982 q 196 840 239 894 q 239 787 222 819 q 256 700 256 754 q 217 594 256 646 q 108 543 179 543 q 57 559 71 543 q 43 586 43 575 q 49 608 43 597 q 68 618 54 618 q 103 602 82 618 q 147 586 125 586 q 187 613 168 586 q 206 681 206 640 q 181 754 206 722 q 103 786 157 786 l 103 808 q 160 838 136 808 q 185 906 185 868 q 171 966 185 944 q 125 988 157 988 q 65 928 93 988 l 49 939 m 694 256 l 646 256 l 646 564 l 608 564 l 439 250 l 439 201 l 592 201 l 592 76 l 646 76 l 646 201 l 694 201 l 694 256 m 592 256 l 478 256 l 592 472 l 592 256 "},"¿":{"ha":694,"x_min":86,"x_max":564,"o":"m 319 831 q 274 808 292 831 q 256 759 256 786 q 274 708 256 732 q 323 683 293 683 q 372 708 353 683 q 390 759 390 732 q 371 808 390 786 q 319 831 351 831 m 342 629 l 315 629 q 290 513 310 558 q 203 393 271 467 q 111 268 136 319 q 86 149 86 217 q 151 25 86 82 q 328 -32 217 -32 q 501 22 439 -32 q 564 133 564 76 q 540 217 564 190 q 494 244 515 244 q 456 228 472 244 q 439 190 439 211 q 461 138 439 168 q 483 81 483 108 q 448 33 483 54 q 350 11 413 11 q 247 54 288 11 q 206 171 206 97 q 260 353 206 244 q 326 507 315 461 q 342 629 336 553 "},"À":{"ha":694,"x_min":6,"x_max":663,"o":"m 331 1193 l 201 1193 l 375 999 l 390 999 l 331 1193 m 433 375 l 489 136 q 490 78 499 97 q 450 60 482 60 l 429 60 l 429 28 l 663 28 l 663 60 l 646 60 q 608 74 624 60 q 581 119 592 88 l 375 976 l 293 950 l 82 119 q 60 73 76 86 q 22 60 44 60 l 6 60 l 6 28 l 206 28 l 206 60 l 190 60 q 141 90 151 60 q 142 168 131 119 l 190 375 l 433 375 m 319 857 l 429 407 l 201 407 l 315 857 l 319 857 "},"Á":{"ha":694,"x_min":6,"x_max":663,"o":"m 450 1193 l 319 1193 l 261 999 l 276 999 l 450 1193 m 433 375 l 489 136 q 490 78 499 97 q 450 60 482 60 l 429 60 l 429 28 l 663 28 l 663 60 l 646 60 q 608 74 624 60 q 581 119 592 88 l 375 976 l 293 950 l 82 119 q 60 73 76 86 q 22 60 44 60 l 6 60 l 6 28 l 206 28 l 206 60 l 190 60 q 141 90 151 60 q 142 168 131 119 l 190 375 l 433 375 m 319 857 l 429 407 l 201 407 l 315 857 l 319 857 "},"Â":{"ha":694,"x_min":6,"x_max":663,"o":"m 390 1193 l 293 1193 l 157 999 l 185 999 l 331 1118 l 489 999 l 515 999 l 390 1193 m 433 375 l 489 136 q 490 78 499 97 q 450 60 482 60 l 429 60 l 429 28 l 663 28 l 663 60 l 646 60 q 608 74 624 60 q 581 119 592 88 l 375 976 l 293 950 l 82 119 q 60 73 76 86 q 22 60 44 60 l 6 60 l 6 28 l 206 28 l 206 60 l 190 60 q 141 90 151 60 q 142 168 131 119 l 190 375 l 433 375 m 319 857 l 429 407 l 201 407 l 315 857 l 319 857 "},"Ã":{"ha":694,"x_min":6,"x_max":663,"o":"m 168 1053 l 185 1053 q 206 1115 196 1101 q 231 1128 217 1128 q 310 1090 244 1128 q 413 1053 375 1053 q 474 1069 450 1053 q 513 1109 499 1085 q 526 1188 526 1133 l 515 1188 q 494 1126 504 1139 q 461 1113 483 1113 q 388 1140 439 1113 q 312 1177 336 1167 q 255 1188 288 1188 q 195 1158 222 1188 q 168 1053 168 1129 m 433 375 l 489 136 q 490 78 499 97 q 450 60 482 60 l 429 60 l 429 28 l 663 28 l 663 60 l 646 60 q 608 74 624 60 q 581 119 592 88 l 375 976 l 293 950 l 82 119 q 60 73 76 86 q 22 60 44 60 l 6 60 l 6 28 l 206 28 l 206 60 l 190 60 q 141 90 151 60 q 142 168 131 119 l 190 375 l 433 375 m 319 857 l 429 407 l 201 407 l 315 857 l 319 857 "},"Ä":{"ha":694,"x_min":6,"x_max":663,"o":"m 233 1193 q 184 1172 206 1193 q 163 1120 163 1150 q 184 1069 163 1090 q 235 1047 206 1047 q 288 1069 265 1047 q 310 1120 310 1090 q 288 1172 310 1150 q 233 1193 265 1193 m 456 1193 q 406 1172 428 1193 q 385 1120 385 1150 q 407 1069 385 1090 q 459 1047 429 1047 q 510 1069 489 1047 q 532 1120 532 1090 q 510 1172 532 1150 q 456 1193 488 1193 m 433 375 l 489 136 q 490 78 499 97 q 450 60 482 60 l 429 60 l 429 28 l 663 28 l 663 60 l 646 60 q 608 74 624 60 q 581 119 592 88 l 375 976 l 293 950 l 82 119 q 60 73 76 86 q 22 60 44 60 l 6 60 l 6 28 l 206 28 l 206 60 l 190 60 q 141 90 151 60 q 142 168 131 119 l 190 375 l 433 375 m 319 857 l 429 407 l 201 407 l 315 857 l 319 857 "},"Å":{"ha":694,"x_min":6,"x_max":663,"o":"m 347 1193 q 274 1163 304 1193 q 244 1090 244 1133 q 274 1017 244 1047 q 347 988 304 988 q 420 1017 390 988 q 450 1090 450 1047 q 420 1163 450 1133 q 347 1193 390 1193 m 293 1144 q 342 1167 315 1167 q 394 1147 369 1167 q 418 1096 418 1128 q 397 1039 418 1064 q 345 1014 375 1014 q 293 1039 315 1014 q 271 1093 271 1064 q 293 1144 271 1122 m 433 375 l 489 136 q 490 78 499 97 q 450 60 482 60 l 429 60 l 429 28 l 663 28 l 663 60 l 646 60 q 608 74 624 60 q 581 119 592 88 l 375 976 l 293 950 l 82 119 q 60 73 76 86 q 22 60 44 60 l 6 60 l 6 28 l 206 28 l 206 60 l 190 60 q 141 90 151 60 q 142 168 131 119 l 190 375 l 433 375 m 319 857 l 429 407 l 201 407 l 315 857 l 319 857 "},"Æ":{"ha":694,"x_min":6,"x_max":694,"o":"m 407 543 l 407 906 l 532 906 q 589 895 575 906 q 613 852 603 885 q 629 754 624 819 l 646 754 l 640 956 l 217 956 l 217 928 q 272 911 261 922 q 280 870 282 900 q 256 743 278 840 l 97 222 q 63 112 76 142 q 35 71 49 82 q 6 60 22 60 l 6 28 l 168 28 l 168 60 q 97 76 103 65 q 98 111 92 86 q 136 233 104 136 l 185 396 l 331 396 l 331 196 q 322 84 331 108 q 271 60 314 60 l 261 60 l 261 28 l 646 28 l 694 265 l 678 265 q 629 142 651 190 q 583 95 603 108 q 521 82 564 82 l 450 82 q 410 101 413 82 q 407 185 407 119 l 407 489 l 510 489 q 551 478 538 489 q 569 445 564 467 q 575 353 575 424 l 597 353 l 597 672 l 575 672 q 561 559 575 581 q 510 543 547 538 l 407 543 m 196 439 l 331 906 l 331 439 l 196 439 "},"Ç":{"ha":694,"x_min":49,"x_max":683,"o":"m 663 663 l 646 956 l 624 956 q 605 912 613 928 q 586 896 597 896 q 529 926 575 896 q 394 956 483 956 q 223 893 304 956 q 95 722 142 831 q 49 483 49 614 q 119 206 49 319 q 390 43 211 43 q 551 97 483 43 q 683 271 618 151 l 663 288 q 548 138 597 179 q 423 97 499 97 q 285 144 347 97 q 195 280 222 190 q 168 497 168 369 q 195 724 168 624 q 282 865 222 825 q 420 906 342 906 q 556 849 499 906 q 646 663 614 793 l 663 663 m 429 76 l 401 76 l 336 -43 q 361 -43 347 -43 q 388 -57 375 -43 q 401 -95 401 -71 q 380 -144 401 -119 q 337 -168 358 -168 q 304 -162 315 -168 l 304 -196 q 353 -196 336 -196 q 442 -160 413 -196 q 472 -81 472 -125 q 453 -13 472 -37 q 407 22 435 11 l 429 76 "},"È":{"ha":694,"x_min":32,"x_max":646,"o":"m 310 1193 l 157 1193 l 358 993 l 379 993 l 310 1193 m 38 922 l 65 922 q 103 912 92 922 q 114 879 114 901 l 114 103 q 103 71 114 82 q 65 60 93 60 l 32 60 l 32 28 l 586 28 l 646 239 l 618 250 q 529 106 586 151 q 390 60 472 60 l 250 60 q 215 70 228 60 q 201 103 201 81 l 201 510 l 358 510 q 437 477 413 510 q 461 385 461 444 l 461 364 l 493 364 l 493 683 l 461 683 l 461 651 q 437 570 461 597 q 358 543 413 543 l 201 543 l 201 879 q 215 911 201 900 q 250 922 228 922 l 401 922 q 510 882 461 922 q 603 760 560 842 l 629 771 l 569 956 l 38 956 l 38 922 "},"É":{"ha":694,"x_min":32,"x_max":646,"o":"m 504 1193 l 353 1193 l 282 993 l 304 993 l 504 1193 m 38 922 l 65 922 q 103 912 92 922 q 114 879 114 901 l 114 103 q 103 71 114 82 q 65 60 93 60 l 32 60 l 32 28 l 586 28 l 646 239 l 618 250 q 529 106 586 151 q 390 60 472 60 l 250 60 q 215 70 228 60 q 201 103 201 81 l 201 510 l 358 510 q 437 477 413 510 q 461 385 461 444 l 461 364 l 493 364 l 493 683 l 461 683 l 461 651 q 437 570 461 597 q 358 543 413 543 l 201 543 l 201 879 q 215 911 201 900 q 250 922 228 922 l 401 922 q 510 882 461 922 q 603 760 560 842 l 629 771 l 569 956 l 38 956 l 38 922 "},"Ê":{"ha":694,"x_min":32,"x_max":646,"o":"m 385 1193 l 261 1193 l 146 993 l 168 993 l 315 1124 l 478 993 l 504 993 l 385 1193 m 38 922 l 65 922 q 103 912 92 922 q 114 879 114 901 l 114 103 q 103 71 114 82 q 65 60 93 60 l 32 60 l 32 28 l 586 28 l 646 239 l 618 250 q 529 106 586 151 q 390 60 472 60 l 250 60 q 215 70 228 60 q 201 103 201 81 l 201 510 l 358 510 q 437 477 413 510 q 461 385 461 444 l 461 364 l 493 364 l 493 683 l 461 683 l 461 651 q 437 570 461 597 q 358 543 413 543 l 201 543 l 201 879 q 215 911 201 900 q 250 922 228 922 l 401 922 q 510 882 461 922 q 603 760 560 842 l 629 771 l 569 956 l 38 956 l 38 922 "},"Ë":{"ha":694,"x_min":32,"x_max":646,"o":"m 433 1193 q 385 1172 406 1193 q 364 1120 364 1150 q 385 1069 364 1090 q 437 1047 407 1047 q 488 1069 467 1047 q 510 1120 510 1090 q 488 1172 510 1150 q 433 1193 465 1193 m 211 1193 q 163 1172 183 1193 q 142 1120 142 1150 q 163 1069 142 1090 q 215 1047 185 1047 q 266 1069 244 1047 q 288 1120 288 1090 q 265 1172 288 1150 q 211 1193 243 1193 m 38 922 l 65 922 q 103 912 92 922 q 114 879 114 901 l 114 103 q 103 71 114 82 q 65 60 93 60 l 32 60 l 32 28 l 586 28 l 646 239 l 618 250 q 529 106 586 151 q 390 60 472 60 l 250 60 q 215 70 228 60 q 201 103 201 81 l 201 510 l 358 510 q 437 477 413 510 q 461 385 461 444 l 461 364 l 493 364 l 493 683 l 461 683 l 461 651 q 437 570 461 597 q 358 543 413 543 l 201 543 l 201 879 q 215 911 201 900 q 250 922 228 922 l 401 922 q 510 882 461 922 q 603 760 560 842 l 629 771 l 569 956 l 38 956 l 38 922 "},"Ì":{"ha":694,"x_min":125,"x_max":558,"o":"m 325 1193 l 174 1193 l 369 993 l 390 993 l 325 1193 m 125 922 l 250 922 q 288 912 276 922 q 299 879 299 901 l 299 103 q 288 71 299 82 q 250 60 278 60 l 125 60 l 125 28 l 558 28 l 558 60 l 433 60 q 399 69 411 60 q 385 103 385 81 l 385 879 q 398 911 385 900 q 433 922 411 922 l 558 922 l 558 956 l 125 956 l 125 922 "},"Í":{"ha":694,"x_min":125,"x_max":558,"o":"m 299 988 l 499 1193 l 347 1193 l 276 988 l 299 988 m 125 922 l 250 922 q 288 912 276 922 q 299 879 299 901 l 299 103 q 288 71 299 82 q 250 60 278 60 l 125 60 l 125 28 l 558 28 l 558 60 l 433 60 q 399 69 411 60 q 385 103 385 81 l 385 879 q 398 911 385 900 q 433 922 411 922 l 558 922 l 558 956 l 125 956 l 125 922 "},"Î":{"ha":694,"x_min":125,"x_max":558,"o":"m 413 1193 l 288 1193 l 163 1004 l 185 1004 l 342 1128 l 493 1004 l 515 1004 l 413 1193 m 125 922 l 250 922 q 288 912 276 922 q 299 879 299 901 l 299 103 q 288 71 299 82 q 250 60 278 60 l 125 60 l 125 28 l 558 28 l 558 60 l 433 60 q 399 69 411 60 q 385 103 385 81 l 385 879 q 398 911 385 900 q 433 922 411 922 l 558 922 l 558 956 l 125 956 l 125 922 "},"Ï":{"ha":694,"x_min":125,"x_max":558,"o":"m 444 1193 q 396 1172 417 1193 q 375 1120 375 1150 q 397 1069 375 1090 q 448 1047 418 1047 q 499 1069 478 1047 q 521 1120 521 1090 q 499 1172 521 1150 q 444 1193 476 1193 m 276 1172 q 225 1194 254 1194 q 174 1172 196 1193 q 151 1120 151 1150 q 174 1069 151 1090 q 226 1047 196 1047 q 277 1069 256 1047 q 299 1120 299 1090 q 276 1172 299 1150 m 125 922 l 250 922 q 288 912 276 922 q 299 879 299 901 l 299 103 q 288 71 299 82 q 250 60 278 60 l 125 60 l 125 28 l 558 28 l 558 60 l 433 60 q 399 69 411 60 q 385 103 385 81 l 385 879 q 398 911 385 900 q 433 922 411 922 l 558 922 l 558 956 l 125 956 l 125 922 "},"Ð":{"ha":694,"x_min":54,"x_max":678,"o":"m 54 60 l 54 28 l 325 28 q 594 165 510 28 q 678 499 678 303 q 635 754 678 646 q 522 911 592 863 q 315 960 451 960 l 54 960 l 54 928 l 82 928 q 146 900 129 928 q 151 797 151 883 l 151 543 l 54 543 l 54 493 l 151 493 l 151 190 q 142 86 153 114 q 86 60 135 58 l 54 60 m 239 92 l 239 92 l 239 493 l 418 493 l 418 543 l 239 543 l 239 896 q 336 906 288 911 q 515 792 444 906 q 586 493 586 678 q 513 193 586 304 q 336 82 439 82 q 239 92 299 75 "},"Ñ":{"ha":694,"x_min":6,"x_max":678,"o":"m 163 1053 l 179 1053 q 198 1117 190 1101 q 225 1133 206 1133 q 258 1126 244 1133 q 323 1085 271 1118 q 413 1053 375 1053 q 474 1072 450 1053 q 515 1117 499 1090 q 532 1193 532 1144 l 515 1193 q 491 1134 504 1150 q 456 1118 478 1118 q 385 1148 433 1118 q 315 1185 336 1178 q 260 1193 293 1193 q 195 1164 228 1193 q 163 1053 163 1135 m 543 244 l 174 956 l 17 956 l 17 922 l 49 922 q 87 912 76 922 q 97 879 97 901 l 97 103 q 87 71 97 82 q 49 60 76 60 l 6 60 l 6 28 l 222 28 l 222 60 l 179 60 q 144 70 157 60 q 131 103 131 81 l 131 836 l 142 836 l 553 28 l 586 28 l 586 879 q 599 911 586 900 q 635 922 613 922 l 678 922 l 678 956 l 461 956 l 461 922 l 504 922 q 542 912 532 922 q 553 879 553 901 l 553 244 l 543 244 "},"Ò":{"ha":694,"x_min":43,"x_max":651,"o":"m 325 1193 l 196 1193 l 369 993 l 385 993 l 325 1193 m 146 493 q 201 819 146 710 q 347 928 256 928 q 502 808 456 928 q 549 493 549 689 q 494 149 549 250 q 347 49 439 49 q 203 154 261 49 q 146 493 146 260 m 651 493 q 570 827 651 689 q 347 965 489 965 q 127 835 211 965 q 43 493 43 704 q 133 147 43 276 q 347 17 222 17 q 565 144 478 17 q 651 493 651 271 "},"Ó":{"ha":694,"x_min":43,"x_max":651,"o":"m 483 1193 l 353 1193 l 293 993 l 310 993 l 483 1193 m 146 493 q 201 819 146 710 q 347 928 256 928 q 502 808 456 928 q 549 493 549 689 q 494 149 549 250 q 347 49 439 49 q 203 154 261 49 q 146 493 146 260 m 651 493 q 570 827 651 689 q 347 965 489 965 q 127 835 211 965 q 43 493 43 704 q 133 147 43 276 q 347 17 222 17 q 565 144 478 17 q 651 493 651 271 "},"Ô":{"ha":694,"x_min":43,"x_max":651,"o":"m 396 1193 l 282 1193 l 163 982 l 179 982 l 336 1124 l 504 982 l 521 982 l 396 1193 m 146 493 q 201 819 146 710 q 347 928 256 928 q 502 808 456 928 q 549 493 549 689 q 494 149 549 250 q 347 49 439 49 q 203 154 261 49 q 146 493 146 260 m 651 493 q 570 827 651 689 q 347 965 489 965 q 127 835 211 965 q 43 493 43 704 q 133 147 43 276 q 347 17 222 17 q 565 144 478 17 q 651 493 651 271 "},"Õ":{"ha":694,"x_min":43,"x_max":651,"o":"m 168 1047 l 185 1047 q 203 1112 196 1096 q 231 1128 211 1128 q 263 1120 250 1128 q 328 1080 276 1113 q 417 1047 379 1047 q 480 1063 456 1047 q 521 1109 504 1079 q 538 1193 538 1139 l 521 1193 q 497 1128 510 1144 q 461 1113 483 1113 q 390 1145 439 1113 q 320 1185 342 1178 q 266 1193 299 1193 q 201 1161 233 1193 q 168 1047 168 1129 m 146 493 q 201 819 146 710 q 347 928 256 928 q 502 808 456 928 q 549 493 549 689 q 494 149 549 250 q 347 49 439 49 q 203 154 261 49 q 146 493 146 260 m 651 493 q 570 827 651 689 q 347 965 489 965 q 127 835 211 965 q 43 493 43 704 q 133 147 43 276 q 347 17 222 17 q 565 144 478 17 q 651 493 651 271 "},"Ö":{"ha":694,"x_min":43,"x_max":651,"o":"m 472 1193 q 423 1172 444 1193 q 401 1120 401 1150 q 423 1069 401 1090 q 474 1047 444 1047 q 526 1069 504 1047 q 549 1120 549 1090 q 526 1172 549 1150 q 472 1193 504 1193 m 282 1172 q 231 1194 260 1194 q 179 1172 201 1193 q 157 1120 157 1150 q 179 1069 157 1090 q 231 1047 201 1047 q 283 1069 261 1047 q 304 1120 304 1090 q 282 1172 304 1150 m 146 493 q 201 819 146 710 q 347 928 256 928 q 502 808 456 928 q 549 493 549 689 q 494 149 549 250 q 347 49 439 49 q 203 154 261 49 q 146 493 146 260 m 651 493 q 570 827 651 689 q 347 965 489 965 q 127 835 211 965 q 43 493 43 704 q 133 147 43 276 q 347 17 222 17 q 565 144 478 17 q 651 493 651 271 "},"×":{"ha":1389,"x_min":250,"x_max":1118,"o":"m 683 543 l 293 933 l 250 890 l 640 499 l 250 108 l 293 65 l 683 456 l 1069 65 l 1118 114 l 726 499 l 1107 890 l 1058 933 l 683 543 "},"Ø":{"ha":694,"x_min":43,"x_max":657,"o":"m 543 863 q 353 965 467 965 q 122 830 201 960 q 43 504 43 700 q 131 146 44 288 l 71 38 l 97 6 l 157 114 q 256 35 201 60 q 353 17 310 11 q 549 114 467 17 q 651 499 657 265 q 629 684 646 608 q 569 831 613 760 l 635 950 l 608 976 l 543 863 m 504 797 l 174 222 q 146 504 146 353 q 165 708 146 613 q 217 851 185 803 q 282 911 244 889 q 336 928 308 928 q 504 797 461 928 m 521 749 q 543 635 532 678 q 549 478 549 564 q 532 269 549 358 q 485 133 515 179 q 417 67 456 86 q 336 49 379 49 q 239 97 299 54 q 190 168 213 131 l 521 749 "},"Ù":{"ha":694,"x_min":17,"x_max":657,"o":"m 347 60 q 225 98 271 60 q 179 244 179 136 l 179 879 q 192 911 179 900 q 228 922 206 922 l 256 922 l 256 956 l 17 956 l 17 922 l 43 922 q 81 912 71 922 q 92 879 92 901 l 92 244 q 165 71 92 125 q 336 17 239 17 q 502 79 429 17 q 575 250 575 142 l 575 879 q 588 911 575 900 q 624 922 601 922 l 657 922 l 657 956 l 461 956 l 461 922 l 493 922 q 532 912 521 922 q 543 879 543 901 l 543 250 q 486 114 543 168 q 347 60 429 60 m 325 1193 l 196 1193 l 369 993 l 385 993 l 325 1193 "},"Ú":{"ha":694,"x_min":17,"x_max":657,"o":"m 319 993 l 493 1193 l 364 1193 l 304 993 l 319 993 m 347 60 q 225 98 271 60 q 179 244 179 136 l 179 879 q 192 911 179 900 q 228 922 206 922 l 256 922 l 256 956 l 17 956 l 17 922 l 43 922 q 81 912 71 922 q 92 879 92 901 l 92 244 q 165 71 92 125 q 336 17 239 17 q 502 79 429 17 q 575 250 575 142 l 575 879 q 588 911 575 900 q 624 922 601 922 l 657 922 l 657 956 l 461 956 l 461 922 l 493 922 q 532 912 521 922 q 543 879 543 901 l 543 250 q 486 114 543 168 q 347 60 429 60 "},"Û":{"ha":694,"x_min":17,"x_max":657,"o":"m 401 1193 l 299 1193 l 174 1004 l 190 1004 l 342 1128 l 510 1004 l 526 1004 l 401 1193 m 347 60 q 225 98 271 60 q 179 244 179 136 l 179 879 q 192 911 179 900 q 228 922 206 922 l 256 922 l 256 956 l 17 956 l 17 922 l 43 922 q 81 912 71 922 q 92 879 92 901 l 92 244 q 165 71 92 125 q 336 17 239 17 q 502 79 429 17 q 575 250 575 142 l 575 879 q 588 911 575 900 q 624 922 601 922 l 657 922 l 657 956 l 461 956 l 461 922 l 493 922 q 532 912 521 922 q 543 879 543 901 l 543 250 q 486 114 543 168 q 347 60 429 60 "},"Ü":{"ha":694,"x_min":17,"x_max":657,"o":"m 478 1193 q 428 1172 450 1193 q 407 1120 407 1150 q 428 1069 407 1090 q 480 1047 450 1047 q 531 1069 510 1047 q 553 1120 553 1090 q 531 1172 553 1150 q 478 1193 510 1193 m 233 1193 q 184 1172 206 1193 q 163 1120 163 1150 q 184 1069 163 1090 q 235 1047 206 1047 q 288 1069 265 1047 q 310 1120 310 1090 q 288 1172 310 1150 q 233 1193 265 1193 m 347 60 q 225 98 271 60 q 179 244 179 136 l 179 879 q 192 911 179 900 q 228 922 206 922 l 256 922 l 256 956 l 17 956 l 17 922 l 43 922 q 81 912 71 922 q 92 879 92 901 l 92 244 q 165 71 92 125 q 336 17 239 17 q 502 79 429 17 q 575 250 575 142 l 575 879 q 588 911 575 900 q 624 922 601 922 l 657 922 l 657 956 l 461 956 l 461 922 l 493 922 q 532 912 521 922 q 543 879 543 901 l 543 250 q 486 114 543 168 q 347 60 429 60 "},"Ý":{"ha":694,"x_min":28,"x_max":651,"o":"m 315 993 l 489 1193 l 358 1193 l 299 993 l 315 993 m 510 857 l 358 456 l 347 456 l 201 857 q 196 906 190 890 q 233 922 201 922 l 265 922 l 265 956 l 28 956 l 28 922 l 38 922 q 81 906 65 922 q 108 863 97 890 l 293 385 l 293 103 q 283 71 293 82 q 244 60 272 60 l 196 60 l 196 28 l 478 28 l 478 60 l 429 60 q 393 70 407 60 q 379 103 379 81 l 379 418 l 549 846 q 585 903 564 885 q 635 922 607 922 l 651 922 l 651 956 l 439 956 l 439 922 l 450 922 q 502 906 489 922 q 510 857 515 889 "},"Þ":{"ha":694,"x_min":43,"x_max":689,"o":"m 325 743 l 256 743 l 256 786 q 263 881 256 857 q 299 917 271 906 q 358 928 326 928 l 385 928 l 385 956 l 43 956 l 43 928 l 71 928 q 130 914 103 928 q 163 881 157 900 q 168 786 168 863 l 168 190 q 149 81 168 108 q 65 54 131 54 l 43 54 l 43 28 l 385 28 l 385 54 l 358 54 q 277 82 299 54 q 256 201 256 110 l 256 239 l 331 239 q 469 247 429 239 q 545 274 510 256 q 613 323 581 293 q 667 399 646 353 q 689 501 689 444 q 656 610 689 558 q 575 692 624 663 q 477 733 526 722 q 325 743 428 743 m 256 288 l 256 694 l 342 694 q 456 686 424 694 q 524 653 489 678 q 581 586 558 629 q 603 486 603 543 q 573 380 603 429 q 489 309 543 331 q 315 288 435 288 l 256 288 "},"ß":{"ha":694,"x_min":49,"x_max":651,"o":"m 49 60 l 49 32 l 228 32 l 228 706 q 260 868 228 825 q 361 911 293 911 q 464 876 429 911 q 504 746 499 840 q 466 610 510 651 q 336 569 422 569 l 336 538 q 513 461 456 543 q 564 263 569 379 q 518 108 558 146 q 448 68 478 71 q 404 76 418 65 q 399 103 390 86 q 404 138 407 119 q 388 174 401 157 q 347 190 375 190 q 306 174 319 190 q 293 124 293 157 q 328 60 293 92 q 442 28 364 28 q 586 106 521 28 q 651 288 651 185 q 605 463 651 390 q 467 564 558 536 q 556 635 515 586 q 594 765 597 683 q 529 901 592 846 q 358 956 467 956 q 206 885 265 956 q 142 657 142 819 l 142 179 q 133 98 142 119 q 108 68 125 76 q 49 60 92 60 "},"à":{"ha":694,"x_min":60,"x_max":597,"o":"m 385 706 q 292 906 319 890 q 238 914 265 922 q 209 868 211 906 q 358 700 207 831 l 385 706 m 489 549 q 543 635 511 592 l 558 635 l 558 131 q 597 49 560 60 l 597 17 l 558 17 q 483 92 483 15 l 483 114 q 385 24 450 49 q 244 16 319 0 q 114 114 168 32 q 60 317 60 196 q 131 524 60 439 q 269 624 201 608 q 394 624 336 640 q 489 549 451 608 m 483 179 l 483 489 q 347 572 444 575 q 201 501 250 569 q 151 322 151 433 q 176 160 151 211 q 247 84 201 108 q 367 74 293 60 q 483 179 440 88 "},"á":{"ha":694,"x_min":60,"x_max":597,"o":"m 461 896 q 282 724 282 754 q 312 683 282 694 q 367 692 342 672 q 489 896 392 711 l 461 896 m 489 549 q 543 635 511 592 l 558 635 l 558 131 q 597 49 560 60 l 597 17 l 558 17 q 483 92 483 15 l 483 114 q 385 24 450 49 q 244 16 319 0 q 114 114 168 32 q 60 317 60 196 q 131 524 60 439 q 269 624 201 608 q 394 624 336 640 q 489 549 451 608 m 483 179 l 483 489 q 347 572 444 575 q 201 501 250 569 q 151 322 151 433 q 176 160 151 211 q 247 84 201 108 q 367 74 293 60 q 483 179 440 88 "},"â":{"ha":694,"x_min":54,"x_max":663,"o":"m 358 1042 l 233 1042 l 108 819 l 125 819 l 282 965 l 467 819 l 489 819 l 358 1042 m 472 97 q 505 44 483 60 q 567 28 526 28 q 635 57 608 28 q 663 163 663 86 l 635 163 q 624 95 635 119 q 588 71 613 71 q 556 79 564 71 q 549 131 549 88 l 549 489 q 494 605 549 564 q 333 646 439 646 q 157 602 228 646 q 86 521 86 558 q 100 469 86 483 q 141 456 114 456 q 179 477 168 456 q 179 526 190 499 q 206 583 168 553 q 334 613 244 613 q 451 578 424 613 q 472 424 478 543 q 138 333 222 396 q 54 174 54 271 q 108 68 54 114 q 244 22 163 22 q 372 41 325 22 q 472 97 418 60 m 472 390 l 472 390 l 472 136 q 369 78 418 97 q 263 60 319 60 q 176 101 206 60 q 146 201 146 142 q 217 315 146 261 q 472 390 288 368 "},"ã":{"ha":694,"x_min":54,"x_max":663,"o":"m 131 863 l 146 863 q 165 928 157 911 q 192 944 174 944 q 225 936 211 944 q 290 895 239 928 q 380 863 342 863 q 442 881 418 863 q 483 928 467 900 q 499 1004 499 956 l 483 1004 q 458 944 472 960 q 423 928 444 928 q 353 958 401 928 q 283 996 304 988 q 228 1004 261 1004 q 163 974 196 1004 q 131 863 131 944 m 54 174 q 114 68 54 114 q 249 22 174 22 q 372 41 325 22 q 472 97 418 60 q 505 44 483 60 q 567 28 526 28 q 635 57 608 28 q 663 163 663 86 l 635 163 q 624 95 635 119 q 588 71 613 71 q 556 79 564 71 q 549 131 549 88 l 549 489 q 494 605 549 564 q 333 646 439 646 q 160 602 228 646 q 89 521 92 558 q 100 469 86 483 q 141 456 114 456 q 179 477 168 456 q 179 521 190 499 q 206 583 168 553 q 336 613 244 613 q 448 578 424 613 q 472 489 472 543 l 472 424 q 138 333 222 396 q 54 174 54 271 m 146 190 q 217 317 146 267 q 472 390 288 368 l 472 136 q 369 78 418 97 q 271 60 319 60 q 176 101 206 60 q 146 190 146 142 "},"ä":{"ha":694,"x_min":54,"x_max":663,"o":"m 424 1010 q 374 988 396 1010 q 353 935 353 965 q 374 884 353 906 q 426 863 396 863 q 477 884 456 863 q 499 935 499 906 q 477 988 499 965 q 424 1010 456 1010 m 190 1010 q 141 988 163 1010 q 119 935 119 965 q 141 884 119 906 q 192 863 163 863 q 244 884 222 863 q 265 935 265 906 q 244 988 265 965 q 190 1010 222 1010 m 54 174 q 108 68 54 114 q 244 22 163 22 q 372 41 325 22 q 472 97 418 60 q 505 44 483 60 q 567 28 526 28 q 635 57 608 28 q 663 163 663 86 l 635 163 q 624 95 635 119 q 588 71 613 71 q 556 79 564 71 q 549 131 549 88 l 549 489 q 494 605 549 564 q 333 646 439 646 q 160 599 228 646 q 89 518 92 553 q 100 469 86 483 q 141 456 114 456 q 179 477 168 456 q 179 521 190 499 q 206 583 168 553 q 336 613 244 613 q 448 578 424 613 q 472 489 472 543 l 472 424 q 138 333 222 396 q 54 174 54 271 m 146 190 q 217 317 146 267 q 472 390 288 368 l 472 136 q 369 78 418 97 q 271 60 319 60 q 176 101 206 60 q 146 190 146 142 "},"å":{"ha":694,"x_min":54,"x_max":663,"o":"m 369 1025 q 288 1058 338 1057 q 203 1023 239 1058 q 168 939 168 988 q 201 858 168 890 q 285 825 233 825 q 372 860 336 825 q 407 944 407 896 q 369 1025 407 993 m 233 999 q 285 1020 256 1021 q 337 1001 315 1019 q 361 947 358 982 q 342 887 364 911 q 288 863 319 863 q 233 887 256 863 q 211 944 211 911 q 233 999 211 976 m 54 174 q 111 68 54 114 q 247 22 168 22 q 372 41 325 22 q 472 97 418 60 q 505 44 483 60 q 567 28 526 28 q 635 57 608 28 q 663 163 663 86 l 635 163 q 624 95 635 119 q 588 71 613 71 q 556 79 564 71 q 549 131 549 88 l 549 489 q 494 605 549 564 q 333 646 439 646 q 163 602 228 646 q 90 524 97 558 q 95 469 82 489 q 135 450 108 450 q 176 474 163 450 q 179 521 190 499 q 206 583 168 553 q 334 613 244 613 q 448 578 424 613 q 472 489 472 543 l 472 424 q 138 333 222 396 q 54 174 54 271 m 146 190 q 217 317 146 267 q 472 390 288 368 l 472 136 q 369 78 418 97 q 271 60 319 60 q 176 101 206 60 q 146 190 146 142 "},"æ":{"ha":694,"x_min":6,"x_max":689,"o":"m 358 456 l 358 456 l 689 456 q 638 689 689 624 q 521 757 586 754 q 423 735 456 760 q 353 663 390 711 q 306 724 347 694 q 206 754 265 754 q 103 730 146 754 q 41 670 60 706 q 22 605 22 635 q 35 559 22 575 q 76 548 49 543 q 111 575 103 553 q 117 635 119 597 q 135 694 114 672 q 190 717 157 717 q 252 687 222 717 q 282 618 282 657 q 282 493 282 579 q 130 440 206 483 q 30 353 54 396 q 6 247 6 310 q 41 141 6 185 q 125 97 76 97 q 209 113 174 97 q 315 206 244 129 q 385 127 342 157 q 491 97 429 97 q 613 160 553 97 q 689 331 672 222 l 672 347 q 597 220 640 261 q 496 179 553 179 q 407 222 439 179 q 367 322 375 265 q 358 393 358 379 q 358 456 358 407 m 592 499 l 358 499 q 399 665 364 624 q 478 706 435 706 q 559 667 526 706 q 592 499 592 629 m 304 239 q 231 182 256 196 q 174 168 206 168 q 114 203 142 168 q 89 296 86 239 q 143 390 92 353 q 276 444 194 428 q 290 321 282 375 q 304 239 299 267 "},"ç":{"ha":694,"x_min":49,"x_max":569,"o":"m 569 342 l 569 342 l 553 353 q 458 217 515 265 q 309 176 401 168 q 171 263 217 185 q 133 461 125 342 q 199 640 142 581 q 310 700 256 700 q 391 678 364 700 q 418 616 418 657 q 437 553 418 575 q 485 535 456 532 q 532 556 515 538 q 549 613 549 575 q 491 697 549 651 q 328 743 433 743 q 135 651 222 743 q 49 413 49 558 q 127 179 49 261 q 303 100 206 97 q 474 160 401 103 q 569 342 547 217 m 288 114 l 244 114 l 168 -6 q 195 -6 179 -6 q 228 -19 211 -6 q 244 -57 244 -32 q 220 -106 244 -82 q 172 -131 196 -131 q 125 -125 147 -131 l 125 -157 q 217 -151 168 -157 q 298 -119 265 -146 q 336 -37 331 -92 q 315 24 336 0 q 250 60 293 49 l 288 114 "},"è":{"ha":694,"x_min":86,"x_max":613,"o":"m 396 711 q 312 903 336 879 q 252 919 288 928 q 217 874 217 911 q 369 706 218 836 l 396 711 m 613 342 q 558 550 607 488 q 444 632 510 613 q 303 638 379 651 q 157 542 228 624 q 89 315 86 461 q 165 92 92 168 q 350 17 239 17 q 528 74 461 17 q 613 196 596 131 l 581 196 q 501 114 558 151 q 358 84 444 76 q 231 165 271 92 q 196 342 190 239 l 613 342 m 196 385 q 250 542 201 493 q 356 594 299 592 q 458 548 413 597 q 510 385 504 499 l 196 385 "},"é":{"ha":694,"x_min":86,"x_max":613,"o":"m 483 917 q 304 746 304 775 q 334 706 304 717 q 388 713 364 694 q 510 917 413 732 l 483 917 m 613 336 q 558 545 607 482 q 444 627 510 608 q 303 632 379 646 q 157 537 228 618 q 89 309 86 456 q 165 87 92 163 q 350 11 239 11 q 528 68 461 11 q 613 190 596 125 l 581 190 q 501 108 558 146 q 358 78 444 71 q 231 160 271 86 q 196 336 190 233 l 613 336 m 196 379 q 250 537 201 488 q 356 589 299 586 q 458 542 413 592 q 510 379 504 493 l 196 379 "},"ê":{"ha":694,"x_min":86,"x_max":613,"o":"m 553 700 q 385 922 411 911 q 342 933 358 933 q 301 928 325 933 q 131 700 276 922 l 157 700 l 342 840 l 526 700 l 553 700 m 613 336 q 558 545 607 482 q 444 627 510 608 q 303 632 379 646 q 157 537 228 618 q 89 309 86 456 q 165 87 92 163 q 350 11 239 11 q 528 68 461 11 q 613 190 596 125 l 581 190 q 501 108 558 146 q 358 78 444 71 q 231 160 271 86 q 196 336 190 233 l 613 336 m 196 379 q 250 537 201 488 q 356 589 299 586 q 458 542 413 592 q 510 379 504 493 l 196 379 "},"ë":{"ha":694,"x_min":82,"x_max":608,"o":"m 444 956 q 396 933 417 956 q 375 881 375 911 q 397 830 375 851 q 448 808 418 808 q 499 830 478 808 q 521 881 521 851 q 499 933 521 911 q 444 956 476 956 m 206 956 q 157 933 178 956 q 136 881 136 911 q 158 830 136 851 q 209 808 179 808 q 260 830 239 808 q 282 881 282 851 q 260 933 282 911 q 206 956 238 956 m 515 364 l 515 364 l 168 364 q 219 543 168 478 q 353 608 271 608 q 475 546 429 608 q 515 364 521 483 m 168 331 l 168 331 l 608 331 q 535 575 608 499 q 353 646 461 651 q 160 556 239 646 q 82 331 82 467 q 160 98 82 179 q 350 17 239 17 q 518 74 461 17 q 592 190 575 131 l 564 201 q 494 101 543 142 q 363 60 444 60 q 225 122 282 60 q 168 331 168 185 "},"ì":{"ha":694,"x_min":136,"x_max":444,"o":"m 315 711 q 231 903 256 879 q 171 919 206 928 q 136 874 136 911 q 288 706 136 836 l 315 711 m 174 575 q 256 532 256 581 l 256 92 q 146 49 243 49 l 146 22 l 444 22 l 444 49 q 336 97 347 49 l 336 640 l 304 640 q 174 597 260 614 l 174 575 "},"í":{"ha":694,"x_min":146,"x_max":444,"o":"m 396 917 q 217 746 217 775 q 247 706 217 717 q 301 713 276 694 q 424 917 326 732 l 396 917 m 174 575 q 256 532 256 581 l 256 92 q 146 49 243 49 l 146 22 l 444 22 l 444 49 q 336 97 347 49 l 336 640 l 304 640 q 174 597 260 614 l 174 575 "},"î":{"ha":694,"x_min":108,"x_max":543,"o":"m 358 1019 l 233 1019 l 108 797 l 125 797 l 293 944 l 467 797 l 489 797 l 358 1019 m 304 553 l 304 103 q 294 71 304 82 q 256 60 283 60 l 142 60 l 142 28 l 543 28 l 543 60 l 429 60 q 393 70 407 60 q 379 103 379 81 l 379 672 l 369 672 q 288 643 331 651 q 196 635 244 635 l 142 635 l 142 603 l 256 603 q 293 589 282 603 q 304 553 304 575 "},"ï":{"ha":694,"x_min":114,"x_max":543,"o":"m 424 1019 q 374 998 396 1019 q 353 947 353 976 q 374 895 353 917 q 426 874 396 874 q 477 895 456 874 q 499 947 499 917 q 477 998 499 976 q 424 1019 456 1019 m 239 993 q 187 1015 217 1015 q 135 992 157 1014 q 114 941 114 971 q 135 890 114 911 q 187 868 157 868 q 239 890 217 868 q 261 941 261 911 q 239 993 261 971 m 304 553 l 304 103 q 294 71 304 82 q 256 60 283 60 l 142 60 l 142 28 l 543 28 l 543 60 l 429 60 q 393 70 407 60 q 379 103 379 81 l 379 672 l 369 672 q 288 643 331 651 q 196 635 244 635 l 142 635 l 142 603 l 256 603 q 293 589 282 603 q 304 553 304 575 "},"ð":{"ha":694,"x_min":49,"x_max":640,"o":"m 151 706 l 331 792 q 478 592 413 711 q 374 635 418 629 q 260 626 331 640 q 119 537 190 613 q 49 325 49 461 q 127 119 49 196 q 312 33 206 43 q 494 65 418 22 q 605 187 569 108 q 635 377 640 265 q 572 597 629 489 q 385 825 515 706 l 538 906 l 515 944 l 347 857 q 179 956 276 913 l 163 933 q 304 831 239 890 l 131 738 l 151 706 m 325 608 q 488 521 433 608 q 543 282 543 433 q 486 125 538 174 q 369 76 435 76 q 239 111 299 76 q 158 209 179 146 q 136 364 136 272 q 203 549 146 489 q 325 608 260 608 "},"ñ":{"ha":694,"x_min":38,"x_max":646,"o":"m 136 874 l 151 874 q 171 939 163 922 q 203 956 179 956 q 239 950 228 956 q 299 912 250 944 q 385 876 347 879 q 448 890 424 874 q 488 935 472 906 q 504 1019 504 965 l 489 1019 q 464 955 478 971 q 428 939 450 939 q 358 972 407 939 q 288 1012 310 1004 q 233 1019 265 1019 q 169 988 201 1019 q 136 874 136 956 m 38 28 l 265 28 l 265 60 l 239 60 q 203 70 217 60 q 190 103 190 81 l 190 478 q 285 570 233 538 q 388 603 336 603 q 466 567 439 603 q 493 467 493 532 l 493 103 q 483 71 493 82 q 444 60 472 60 l 418 60 l 418 28 l 646 28 l 646 60 l 618 60 q 583 70 597 60 q 569 103 569 81 l 569 450 q 526 597 569 549 q 410 646 483 646 q 288 619 336 646 q 190 538 239 592 l 190 663 l 179 663 q 133 640 157 646 q 82 635 110 635 l 43 635 l 43 603 l 86 603 q 108 594 103 603 q 114 569 114 586 l 114 103 q 103 71 114 82 q 65 60 93 60 l 38 60 l 38 28 "},"ò":{"ha":694,"x_min":65,"x_max":629,"o":"m 71 325 q 141 108 65 206 q 353 11 217 11 q 559 108 489 11 q 626 322 629 206 q 567 518 624 439 q 431 622 510 597 q 274 622 353 646 q 136 521 196 597 q 71 325 76 444 m 163 319 q 219 510 163 433 q 353 589 276 586 q 481 513 429 592 q 532 322 532 433 q 485 144 532 211 q 401 63 439 76 q 317 57 364 49 q 219 138 271 65 q 163 319 168 211 m 385 706 q 298 901 325 874 q 238 917 271 928 q 206 868 206 906 q 358 700 207 831 l 385 706 "},"ó":{"ha":694,"x_min":60,"x_max":629,"o":"m 65 331 q 138 114 60 211 q 347 17 217 17 q 553 114 478 17 q 626 328 629 211 q 567 526 624 444 q 431 630 510 608 q 274 627 353 651 q 133 526 196 603 q 65 331 71 450 m 163 325 q 219 515 163 439 q 353 594 276 592 q 481 518 429 597 q 532 328 532 439 q 485 149 532 217 q 401 68 439 82 q 317 63 364 54 q 219 144 271 71 q 163 325 168 217 m 483 911 q 304 740 304 769 q 334 700 304 711 q 388 708 364 689 q 510 911 413 726 l 483 911 "},"ô":{"ha":694,"x_min":60,"x_max":624,"o":"m 396 1019 l 271 1019 l 146 797 l 163 797 l 325 944 l 504 797 l 526 797 l 396 1019 m 624 331 q 548 548 624 450 q 342 646 472 646 q 138 548 217 646 q 60 331 60 450 q 138 109 60 201 q 342 17 217 17 q 542 106 461 17 q 624 331 624 194 m 146 325 q 206 540 146 467 q 342 613 265 613 q 481 540 424 613 q 538 325 538 467 q 485 122 538 196 q 342 49 433 49 q 203 116 261 49 q 146 325 146 183 "},"õ":{"ha":694,"x_min":60,"x_max":624,"o":"m 151 863 l 168 863 q 188 928 179 911 q 215 944 196 944 q 247 936 233 944 q 313 895 261 928 q 401 863 364 863 q 464 879 439 863 q 505 926 489 896 q 521 1010 521 956 l 504 1010 q 480 944 493 960 q 445 928 467 928 q 374 960 424 928 q 303 1001 325 993 q 249 1010 282 1010 q 184 977 217 1010 q 151 863 151 944 m 624 331 q 548 548 624 450 q 342 646 472 646 q 138 548 217 646 q 60 331 60 450 q 138 109 60 201 q 342 17 217 17 q 542 106 461 17 q 624 331 624 194 m 146 325 q 206 540 146 467 q 342 613 265 613 q 481 540 424 613 q 538 325 538 467 q 485 122 538 196 q 342 49 433 49 q 203 116 261 49 q 146 325 146 183 "},"ö":{"ha":694,"x_min":60,"x_max":624,"o":"m 439 1019 q 390 998 411 1019 q 369 947 369 976 q 391 895 369 917 q 442 874 413 874 q 494 895 472 874 q 515 947 515 917 q 493 998 515 976 q 439 1019 471 1019 m 201 1019 q 152 998 174 1019 q 131 947 131 976 q 152 895 131 917 q 203 874 174 874 q 255 895 233 874 q 276 947 276 917 q 255 998 276 976 q 201 1019 233 1019 m 624 331 q 545 556 624 461 q 342 646 467 651 q 138 548 217 646 q 60 331 60 450 q 138 109 60 201 q 342 17 217 17 q 542 106 461 17 q 624 331 624 194 m 146 325 q 206 540 146 467 q 342 613 265 613 q 481 540 424 613 q 538 325 538 467 q 485 122 538 196 q 342 49 433 49 q 203 116 261 49 q 146 325 146 183 "},"÷":{"ha":1389,"x_min":196,"x_max":1188,"o":"m 196 526 l 1188 526 l 1188 461 l 196 461 l 196 526 m 722 65 q 778 149 776 93 q 735 235 781 206 q 638 241 689 265 q 583 160 586 217 q 624 70 581 103 q 722 65 668 38 m 722 749 q 778 833 776 776 q 735 920 781 890 q 638 925 689 950 q 583 843 586 900 q 624 753 581 786 q 722 749 668 721 "},"ø":{"ha":694,"x_min":38,"x_max":651,"o":"m 624 672 l 532 569 q 440 632 489 613 q 323 646 390 651 q 196 602 256 640 q 98 491 136 564 q 60 342 60 418 q 76 217 60 265 q 125 119 93 168 l 38 17 l 65 -11 l 151 92 q 247 33 201 49 q 363 17 293 17 q 496 63 433 17 q 594 185 558 108 q 624 361 629 261 q 558 538 618 461 l 651 640 l 624 672 m 489 521 l 489 521 l 168 168 q 147 374 136 271 q 206 538 157 478 q 313 608 256 597 q 413 599 369 618 q 489 521 457 581 m 190 131 l 510 483 q 538 299 543 407 q 491 131 532 190 q 396 57 450 71 q 290 57 342 43 q 190 131 239 71 "},"ù":{"ha":694,"x_min":32,"x_max":640,"o":"m 385 711 q 298 906 325 879 q 238 922 271 933 q 206 874 206 911 q 358 706 207 836 l 385 711 m 489 179 l 489 564 q 396 629 488 629 l 396 663 l 564 663 l 564 146 q 578 81 564 97 q 640 65 592 65 l 640 22 l 564 22 q 489 76 489 22 l 489 131 q 315 24 396 32 q 185 46 233 17 q 136 157 136 75 l 136 558 q 32 629 135 629 l 32 663 l 211 663 l 211 201 q 233 119 211 142 q 329 100 256 97 q 489 179 403 103 "},"ú":{"ha":694,"x_min":32,"x_max":640,"o":"m 478 922 q 299 751 299 781 q 328 711 299 722 q 383 719 358 700 q 504 922 407 738 l 478 922 m 489 179 l 489 564 q 396 629 488 629 l 396 663 l 564 663 l 564 146 q 578 81 564 97 q 640 65 592 65 l 640 22 l 564 22 q 489 76 489 22 l 489 131 q 315 24 396 32 q 185 46 233 17 q 136 157 136 75 l 136 558 q 32 629 135 629 l 32 663 l 211 663 l 211 201 q 233 119 211 142 q 329 100 256 97 q 489 179 403 103 "},"û":{"ha":694,"x_min":28,"x_max":646,"o":"m 379 1019 l 256 1019 l 131 797 l 146 797 l 310 944 l 489 797 l 510 797 l 379 1019 m 310 76 q 217 108 250 76 q 185 217 185 140 l 185 667 l 174 667 q 119 640 146 646 q 60 635 92 635 l 28 635 l 28 603 l 60 603 q 97 589 86 603 q 108 553 108 575 l 108 228 q 152 71 108 119 q 282 22 196 22 q 407 52 353 22 q 489 142 461 82 l 489 28 l 499 28 q 558 51 532 43 q 613 60 585 60 l 646 60 l 646 92 l 613 92 q 578 103 592 92 q 564 136 564 114 l 564 667 l 553 667 q 499 640 526 646 q 439 635 471 635 l 407 635 l 407 603 l 439 603 q 478 589 467 603 q 489 553 489 575 l 489 211 q 421 109 467 142 q 310 76 375 76 "},"ü":{"ha":694,"x_min":32,"x_max":640,"o":"m 265 760 q 255 803 265 788 q 223 825 244 819 q 179 825 201 831 q 144 803 157 819 q 131 759 131 786 q 152 716 131 732 q 195 700 174 700 q 241 716 217 700 q 265 760 265 732 m 543 760 q 532 803 543 788 q 497 825 521 819 q 453 825 472 831 q 420 803 433 819 q 407 759 407 786 q 428 716 407 732 q 472 700 450 700 q 518 716 493 700 q 543 760 543 732 m 489 179 l 489 564 q 396 629 488 629 l 396 663 l 564 663 l 564 146 q 578 81 564 97 q 640 65 592 65 l 640 22 l 564 22 q 489 76 489 22 l 489 131 q 315 24 396 32 q 185 46 233 17 q 136 157 136 75 l 136 558 q 32 629 135 629 l 32 663 l 211 663 l 211 201 q 233 119 211 142 q 329 100 256 97 q 489 179 403 103 "},"ý":{"ha":694,"x_min":54,"x_max":640,"o":"m 504 1019 l 353 1019 l 282 786 l 304 786 l 504 1019 m 353 179 l 364 179 l 483 543 q 480 586 493 569 q 444 603 467 603 l 413 603 l 413 635 l 640 635 l 640 603 l 608 603 q 565 587 586 603 q 532 543 543 571 l 347 6 q 274 -130 315 -92 q 185 -168 233 -168 q 117 -155 136 -168 q 94 -119 97 -142 q 106 -78 92 -97 q 149 -60 119 -60 q 195 -87 179 -60 q 231 -106 211 -114 q 263 -78 250 -97 q 295 -13 276 -60 q 325 76 314 33 l 142 553 q 117 589 136 575 q 76 603 99 603 l 54 603 l 54 635 l 282 635 l 282 603 l 261 603 q 228 590 239 603 q 222 549 217 576 l 353 179 "},"þ":{"ha":694,"x_min":22,"x_max":640,"o":"m 190 1069 l 28 993 l 32 971 q 78 982 60 982 q 108 974 97 982 q 125 949 119 965 q 131 868 131 933 l 131 -43 q 122 -130 131 -114 q 94 -157 114 -146 q 38 -168 75 -168 l 22 -168 l 22 -190 l 319 -190 l 319 -168 q 252 -157 271 -168 q 225 -130 233 -146 q 217 -49 217 -114 l 217 142 q 293 92 250 108 q 415 90 336 76 q 564 190 493 103 q 640 439 635 276 q 605 618 640 558 q 526 705 569 678 q 421 729 483 732 q 306 692 358 726 q 217 597 254 657 l 217 1069 l 190 1069 m 217 325 l 217 558 q 301 635 271 618 q 388 651 331 651 q 497 589 444 651 q 546 388 549 526 q 494 188 543 250 q 374 125 444 125 q 269 155 304 125 q 222 228 233 185 q 217 325 217 249 "},"ÿ":{"ha":694,"x_min":54,"x_max":640,"o":"m 467 1019 q 417 998 439 1019 q 396 947 396 976 q 417 895 396 917 q 469 874 439 874 q 521 895 499 874 q 543 947 543 917 q 521 998 543 976 q 467 1019 499 1019 m 228 1019 q 178 998 200 1019 q 157 947 157 976 q 179 895 157 917 q 231 874 201 874 q 283 895 261 874 q 304 947 304 917 q 282 998 304 976 q 228 1019 260 1019 m 364 179 l 353 179 l 222 549 q 228 589 217 575 q 261 603 239 603 l 282 603 l 282 635 l 54 635 l 54 603 l 76 603 q 117 589 97 603 q 142 553 136 575 l 325 76 q 299 -8 315 32 q 272 -70 282 -49 q 250 -97 261 -92 q 225 -103 239 -103 q 190 -84 211 -103 q 144 -65 168 -65 q 106 -81 119 -65 q 92 -119 92 -97 q 114 -155 92 -142 q 188 -168 136 -168 q 279 -122 239 -168 q 347 6 319 -76 l 532 543 q 565 586 543 569 q 608 603 586 603 l 640 603 l 640 635 l 413 635 l 413 603 l 444 603 q 481 587 467 603 q 483 543 494 571 l 364 179 "},"ā":{"ha":694,"x_min":60,"x_max":597,"o":"m 489 549 q 543 635 511 592 l 558 635 l 558 131 q 597 49 560 60 l 597 17 l 558 17 q 483 92 483 15 l 483 114 q 385 24 450 49 q 244 16 319 0 q 114 114 168 32 q 60 317 60 196 q 131 524 60 439 q 269 624 201 608 q 394 624 336 640 q 489 549 451 608 m 483 179 l 483 489 q 347 572 444 575 q 201 501 250 569 q 151 322 151 433 q 176 160 151 211 q 247 84 201 108 q 367 74 293 60 q 483 179 440 88 m 185 825 l 185 749 l 499 749 l 499 825 l 185 825 "},"Ć":{"ha":842,"x_min":44,"x_max":799,"o":"m 718 1167 l 550 1167 l 422 996 l 544 996 l 718 1167 m 799 165 l 515 165 q 342 210 397 165 q 263 479 263 274 q 314 690 263 632 q 507 761 375 761 l 799 761 l 799 926 l 485 926 q 258 888 346 926 q 117 764 169 849 q 44 461 44 647 q 92 200 44 306 q 335 10 164 43 q 475 0 383 0 l 799 0 l 799 165 "},"ć":{"ha":707,"x_min":46,"x_max":656,"o":"m 613 938 l 449 938 l 321 756 l 440 756 l 613 938 m 656 676 l 401 676 q 250 661 308 676 q 150 610 192 646 q 46 340 46 521 q 133 93 46 190 q 239 21 179 42 q 401 0 299 0 l 656 0 l 656 144 l 456 144 q 365 152 397 144 q 304 179 332 160 q 236 338 236 229 q 278 482 236 435 q 433 532 321 532 l 656 532 l 656 676 "},"Č":{"ha":842,"x_min":44,"x_max":799,"o":"m 510 1068 l 424 1167 l 283 1167 l 433 996 l 586 996 l 736 1167 l 596 1167 l 510 1068 m 799 165 l 515 165 q 342 210 397 165 q 263 479 263 274 q 314 690 263 632 q 507 761 375 761 l 799 761 l 799 926 l 485 926 q 258 888 346 926 q 117 764 169 849 q 44 461 44 647 q 92 200 44 306 q 335 10 164 43 q 475 0 383 0 l 799 0 l 799 165 "},"č":{"ha":707,"x_min":46,"x_max":656,"o":"m 411 826 l 324 938 l 189 938 l 338 756 l 486 756 l 633 938 l 500 938 l 411 826 m 656 676 l 401 676 q 250 661 308 676 q 150 610 192 646 q 46 340 46 521 q 133 93 46 190 q 239 21 179 42 q 401 0 299 0 l 656 0 l 656 144 l 456 144 q 365 152 397 144 q 304 179 332 160 q 236 338 236 229 q 278 482 236 435 q 433 532 321 532 l 656 532 l 656 676 "},"đ":{"ha":821,"x_min":46,"x_max":813,"o":"m 729 926 l 544 926 l 544 854 l 344 854 l 344 735 l 544 735 l 544 657 l 368 657 q 167 600 239 657 q 46 333 46 504 q 86 158 46 231 q 263 15 144 51 q 410 0 313 0 l 729 0 l 729 735 l 813 735 l 813 854 l 729 854 l 729 926 m 544 144 l 410 144 q 300 178 346 144 q 235 326 235 225 q 281 464 235 415 q 410 513 326 513 l 544 513 l 544 144 "},"ē":{"ha":694,"x_min":86,"x_max":613,"o":"m 613 336 q 558 545 607 482 q 444 627 510 608 q 303 632 379 646 q 157 537 228 618 q 89 309 86 456 q 165 87 92 163 q 350 11 239 11 q 528 68 461 11 q 613 190 596 125 l 581 190 q 501 108 558 146 q 358 78 444 71 q 231 160 271 86 q 196 336 190 233 l 613 336 m 196 379 q 250 537 201 488 q 356 589 299 586 q 458 542 413 592 q 510 379 504 493 l 196 379 m 168 831 l 168 754 l 510 754 l 510 831 l 168 831 "},"ě":{"ha":694,"x_min":86,"x_max":613,"o":"m 142 911 q 297 710 278 721 q 340 700 315 700 q 385 710 364 700 q 538 911 407 721 l 510 911 l 347 786 l 174 911 l 142 911 m 613 342 q 558 550 607 488 q 444 632 510 613 q 303 638 379 651 q 157 542 228 624 q 89 315 86 461 q 165 92 92 168 q 350 17 239 17 q 528 74 461 17 q 613 196 596 131 l 581 196 q 501 114 558 151 q 358 84 444 76 q 231 165 271 92 q 196 342 190 239 l 613 342 m 196 385 q 250 542 201 493 q 356 594 299 592 q 458 548 413 597 q 510 385 504 499 l 196 385 "},"Ğ":{"ha":960,"x_min":44,"x_max":889,"o":"m 328 1167 q 390 1039 335 1085 q 535 993 444 993 q 711 1069 656 993 q 744 1167 739 1108 l 640 1167 q 538 1100 622 1100 q 432 1167 451 1100 l 328 1167 m 435 550 l 435 385 l 693 385 l 693 165 l 514 165 q 399 179 446 165 q 326 224 353 193 q 278 325 296 257 q 261 478 261 393 q 328 707 261 643 q 507 761 383 761 l 889 761 l 889 926 l 485 926 q 254 886 343 926 q 114 758 165 846 q 44 460 44 639 q 190 72 44 185 q 305 16 242 32 q 475 0 368 0 l 889 0 l 889 550 l 435 550 "},"ğ":{"ha":831,"x_min":49,"x_max":739,"o":"m 242 938 q 301 802 247 850 q 446 754 354 754 q 615 835 561 754 q 649 938 643 875 l 546 938 q 446 858 528 858 q 344 938 361 858 l 242 938 m 739 676 l 392 676 q 266 663 315 676 q 172 618 217 650 q 49 339 49 531 q 150 75 49 171 q 247 17 193 35 q 382 0 300 0 l 553 0 q 534 -77 553 -58 q 454 -96 515 -96 l 108 -96 l 108 -240 l 479 -240 q 610 -226 565 -240 q 688 -172 656 -211 q 726 -97 713 -142 q 739 4 739 -53 l 739 676 m 553 532 l 553 144 l 408 144 q 281 194 325 144 q 238 338 238 243 q 399 532 238 532 l 553 532 "},"ī":{"ha":694,"x_min":131,"x_max":461,"o":"m 131 831 l 131 754 l 461 754 l 461 831 l 131 831 m 174 575 q 256 532 256 581 l 256 92 q 146 49 243 49 l 146 22 l 444 22 l 444 49 q 336 97 347 49 l 336 640 l 304 640 q 174 597 260 614 l 174 575 "},"İ":{"ha":385,"x_min":94,"x_max":292,"o":"m 268 1153 l 118 1153 l 118 1000 l 268 1000 l 268 1153 m 94 0 l 292 0 l 292 926 l 94 926 l 94 0 "},"ı":{"ha":369,"x_min":90,"x_max":276,"o":"m 90 676 l 90 0 l 276 0 l 276 676 l 90 676 "},"Ł":{"ha":746,"x_min":4,"x_max":726,"o":"m 288 926 l 90 926 l 90 549 l 4 506 l 4 350 l 90 393 q 107 211 93 269 q 301 17 147 61 q 517 0 368 0 l 726 0 l 726 165 l 538 165 q 357 188 408 165 q 296 275 306 211 q 288 406 292 307 l 288 460 l 460 550 l 460 703 l 288 614 l 288 926 "},"ł":{"ha":369,"x_min":4,"x_max":365,"o":"m 278 926 l 92 926 l 92 492 l 4 432 l 4 293 l 92 353 l 92 0 l 278 0 l 278 433 l 365 492 l 365 631 l 278 572 l 278 926 "},"ń":{"ha":694,"x_min":43,"x_max":651,"o":"m 125 564 l 125 103 q 43 49 108 49 l 43 22 l 288 22 l 288 49 q 201 103 213 49 l 201 483 q 276 551 233 521 q 376 592 319 581 q 466 569 433 603 q 493 450 499 536 l 493 103 q 407 49 478 49 l 407 22 l 651 22 l 651 49 q 569 108 581 54 l 569 429 q 542 605 575 553 q 431 660 510 657 q 299 632 353 663 q 201 558 244 601 l 201 657 l 185 657 q 43 635 125 629 l 43 608 q 125 564 119 608 m 424 917 q 244 746 244 775 q 274 706 244 717 q 328 713 304 694 q 450 917 353 732 l 424 917 "},"ň":{"ha":694,"x_min":43,"x_max":651,"o":"m 146 917 q 301 716 282 726 q 344 706 319 706 q 391 716 369 706 q 543 917 413 726 l 515 917 l 353 792 l 179 917 l 146 917 m 125 564 l 125 103 q 43 49 108 49 l 43 22 l 288 22 l 288 49 q 201 103 213 49 l 201 483 q 276 551 233 521 q 376 592 319 581 q 466 569 433 603 q 493 450 499 536 l 493 103 q 407 49 478 49 l 407 22 l 651 22 l 651 49 q 569 108 581 54 l 569 429 q 542 605 575 553 q 431 660 510 657 q 299 632 353 663 q 201 558 244 601 l 201 657 l 185 657 q 43 635 125 629 l 43 608 q 125 564 119 608 "},"ō":{"ha":694,"x_min":60,"x_max":629,"o":"m 65 325 q 138 108 60 206 q 347 11 217 11 q 553 108 478 11 q 626 322 629 206 q 567 521 624 439 q 431 624 510 603 q 274 622 353 646 q 133 521 196 597 q 65 325 71 444 m 163 319 q 219 510 163 433 q 353 589 276 586 q 481 513 429 592 q 532 322 532 433 q 485 144 532 211 q 401 63 439 76 q 317 57 364 49 q 219 138 271 65 q 163 319 168 211 m 179 825 l 179 749 l 504 749 l 504 825 l 179 825 "},"Œ":{"ha":694,"x_min":60,"x_max":689,"o":"m 439 538 l 439 900 l 538 900 q 589 884 575 900 q 610 849 603 868 q 629 754 618 831 l 651 754 l 640 950 l 299 950 q 114 803 174 944 q 60 489 60 668 q 90 250 60 358 q 174 88 119 142 q 342 28 228 33 l 651 28 l 689 261 l 667 261 q 628 136 651 169 q 586 92 603 103 q 532 82 569 82 l 439 82 l 439 483 l 504 483 q 565 458 549 483 q 581 347 581 433 l 603 347 l 603 672 l 581 672 q 567 570 581 603 q 504 538 553 538 l 439 538 m 369 732 l 369 732 l 369 196 q 350 90 369 108 q 288 76 331 71 q 212 131 244 82 q 163 274 179 179 q 146 499 146 368 q 163 719 146 618 q 215 863 179 819 q 293 908 250 906 q 350 895 336 911 q 367 854 364 879 q 369 732 369 829 "},"œ":{"ha":694,"x_min":60,"x_max":694,"o":"m 433 456 l 689 456 q 653 678 694 613 q 553 743 613 743 q 464 719 493 743 q 407 635 435 694 q 350 713 385 683 q 244 738 315 743 q 117 645 174 732 q 60 410 60 558 q 119 176 60 261 q 242 89 179 92 q 342 114 304 86 q 407 196 379 142 q 456 119 424 151 q 543 86 489 86 q 638 146 597 86 q 689 336 678 206 l 672 347 q 633 228 663 265 q 567 188 603 190 q 499 217 532 185 q 450 320 467 250 q 433 456 433 390 m 276 689 q 339 602 314 683 q 364 377 364 521 q 340 185 364 233 q 266 136 315 136 q 181 215 217 136 q 149 431 146 293 q 165 618 151 569 q 212 683 179 667 q 276 689 244 700 m 433 499 q 461 656 439 618 q 521 697 483 694 q 575 681 558 700 q 602 619 592 663 q 613 499 613 575 l 433 499 "},"Ş":{"ha":965,"x_min":47,"x_max":917,"o":"m 482 0 l 556 0 q 715 8 663 0 q 878 122 824 28 q 917 274 917 189 q 888 417 917 350 q 751 533 850 500 q 582 553 694 553 l 433 553 q 317 569 351 553 q 264 658 264 592 q 326 753 264 738 q 450 761 357 760 l 865 761 l 865 926 l 406 926 q 282 922 324 926 q 104 831 160 908 q 47 653 47 751 q 72 536 47 590 q 139 446 96 482 q 365 389 208 389 l 538 389 q 640 371 608 389 q 697 272 697 340 q 649 185 697 214 q 514 165 615 165 l 90 165 l 90 0 l 404 0 l 404 -121 l 468 -121 q 512 -130 500 -121 q 524 -162 524 -139 q 511 -194 524 -185 q 467 -203 499 -203 l 369 -203 l 369 -278 l 488 -278 q 575 -267 546 -278 q 632 -169 632 -244 q 589 -76 632 -104 q 496 -58 561 -58 l 482 -58 l 482 0 "},"ş":{"ha":761,"x_min":53,"x_max":710,"o":"m 385 0 l 447 0 q 594 15 550 0 q 668 79 638 31 q 710 214 710 140 q 642 361 710 310 q 475 406 581 406 l 365 406 q 275 417 292 406 q 244 472 244 436 q 276 526 244 515 q 349 532 292 532 l 678 532 l 678 676 l 281 676 q 126 640 171 676 q 53 479 53 581 q 74 380 53 426 q 133 307 96 333 q 199 276 164 285 q 301 268 235 268 l 414 268 q 494 260 478 268 q 528 203 528 244 q 478 146 528 151 q 394 144 456 144 l 63 144 l 63 0 l 314 0 l 314 -118 l 374 -118 q 410 -126 401 -118 q 419 -157 419 -133 q 410 -185 419 -176 q 378 -194 400 -194 l 282 -194 l 282 -261 l 390 -261 q 471 -251 444 -261 q 522 -164 522 -232 q 485 -79 522 -106 q 399 -62 460 -62 l 385 -62 l 385 0 "},"Š":{"ha":694,"x_min":54,"x_max":608,"o":"m 288 1004 l 413 1004 l 543 1193 l 521 1193 l 358 1074 l 179 1193 l 163 1193 l 288 1004 m 319 472 q 480 372 428 424 q 532 265 532 319 q 485 108 532 163 q 347 54 439 54 q 192 106 261 54 q 86 293 124 157 l 54 282 l 97 17 q 135 43 119 32 q 168 54 151 54 q 242 35 196 54 q 342 17 288 17 q 540 92 472 17 q 608 265 608 168 q 551 426 608 358 q 364 549 494 494 q 171 653 206 618 q 136 749 136 689 q 174 871 136 814 q 315 928 213 928 q 448 887 396 928 q 549 732 500 846 l 575 743 l 553 965 q 529 936 543 944 q 499 928 515 928 q 428 947 478 928 q 325 965 379 965 q 133 892 201 965 q 65 738 65 819 q 119 586 65 635 q 319 472 174 538 "},"š":{"ha":694,"x_min":43,"x_max":494,"o":"m 444 743 l 424 743 q 407 722 413 726 q 390 717 401 717 q 347 726 379 715 q 256 743 293 743 q 122 692 174 743 q 71 564 71 640 q 97 467 69 504 q 228 380 131 429 q 358 298 325 331 q 390 217 390 265 q 360 152 390 179 q 288 125 331 125 q 165 174 217 125 q 92 315 114 224 l 71 315 l 71 97 l 92 97 q 119 114 103 114 q 151 108 129 114 q 282 86 228 86 q 428 138 364 86 q 493 276 493 190 q 353 450 494 385 l 256 499 q 168 558 190 531 q 146 624 146 586 q 176 681 146 657 q 256 706 207 706 q 356 670 315 706 q 424 532 396 635 l 444 532 l 444 743 m 168 819 l 293 819 l 424 1042 l 401 1042 l 239 900 l 60 1042 l 43 1042 l 168 819 "},"ū":{"ha":694,"x_min":32,"x_max":640,"o":"m 196 825 l 196 754 l 504 754 l 504 825 l 196 825 m 489 179 l 489 549 q 396 613 488 613 l 396 646 l 564 646 l 564 146 q 578 81 564 97 q 640 65 592 65 l 640 22 l 564 22 q 489 76 489 22 l 489 131 q 315 24 396 32 q 185 46 233 17 q 136 157 136 75 l 136 543 q 32 613 135 613 l 32 646 l 211 646 l 211 185 q 233 119 211 142 q 329 100 256 97 q 489 179 403 103 "},"Ÿ":{"ha":694,"x_min":28,"x_max":651,"o":"m 233 1193 q 184 1172 206 1193 q 163 1120 163 1150 q 184 1069 163 1090 q 235 1047 206 1047 q 288 1069 265 1047 q 310 1120 310 1090 q 288 1172 310 1150 q 233 1193 265 1193 m 478 1193 q 428 1172 450 1193 q 407 1120 407 1150 q 428 1069 407 1090 q 480 1047 450 1047 q 531 1069 510 1047 q 553 1120 553 1090 q 531 1172 553 1150 q 478 1193 510 1193 m 510 857 l 358 456 l 347 456 l 201 857 q 196 906 190 890 q 233 922 201 922 l 265 922 l 265 956 l 28 956 l 28 922 l 38 922 q 81 906 65 922 q 108 863 97 890 l 293 385 l 293 103 q 283 71 293 82 q 244 60 272 60 l 196 60 l 196 28 l 478 28 l 478 60 l 429 60 q 393 70 407 60 q 379 103 379 81 l 379 418 l 549 846 q 585 903 564 885 q 635 922 607 922 l 651 922 l 651 956 l 439 956 l 439 922 l 450 922 q 502 906 489 922 q 510 857 515 889 "},"Ž":{"ha":908,"x_min":51,"x_max":856,"o":"m 635 761 l 51 160 l 51 0 l 856 0 l 856 165 l 292 165 l 856 756 l 856 926 l 51 926 l 51 761 l 635 761 m 454 1068 l 367 1167 l 226 1167 l 376 996 l 529 996 l 681 1167 l 540 1167 l 454 1068 "},"ž":{"ha":731,"x_min":42,"x_max":679,"o":"m 433 532 l 42 140 l 42 0 l 679 0 l 679 144 l 288 144 l 679 536 l 679 676 l 42 676 l 42 532 l 433 532 m 361 826 l 272 938 l 139 938 l 286 756 l 435 756 l 582 938 l 449 938 l 361 826 "},"ƒ":{"ha":694,"x_min":0,"x_max":678,"o":"m 586 700 l 467 700 q 501 908 493 857 q 531 985 510 960 q 572 1010 553 1010 q 597 999 592 1010 q 594 969 603 988 q 599 933 586 950 q 632 917 613 917 q 665 931 651 917 q 678 972 678 944 q 653 1023 678 999 q 586 1047 629 1047 q 485 1006 532 1047 q 407 865 439 965 q 358 700 375 765 l 239 700 l 228 651 l 347 651 q 252 190 282 331 q 203 -8 222 49 q 165 -98 185 -65 q 127 -138 146 -131 q 95 -141 108 -146 q 90 -122 82 -136 q 97 -95 97 -108 q 84 -68 97 -82 q 51 -54 71 -54 q 16 -73 32 -54 q 0 -114 0 -92 q 24 -168 0 -146 q 86 -190 49 -190 q 201 -131 147 -190 q 342 174 276 -60 q 456 651 424 472 l 575 651 l 586 700 "},"ǎ":{"ha":694,"x_min":60,"x_max":597,"o":"m 136 900 q 291 699 272 710 q 334 689 310 689 q 380 699 358 689 q 532 900 401 710 l 504 900 l 342 776 l 168 900 l 136 900 m 489 543 q 543 629 511 586 l 558 629 l 558 125 q 597 43 560 54 l 597 11 l 558 11 q 483 86 483 10 l 483 108 q 385 19 450 43 q 244 11 319 -6 q 114 109 168 28 q 60 312 60 190 q 131 518 60 433 q 269 619 201 603 q 394 619 336 635 q 489 543 451 603 m 483 174 l 483 483 q 347 567 444 569 q 201 497 250 564 q 151 317 151 429 q 176 154 151 206 q 247 78 201 103 q 367 68 293 54 q 483 174 440 82 "},"ǐ":{"ha":694,"x_min":131,"x_max":444,"o":"m 131 890 q 239 717 217 728 q 280 706 261 706 q 320 717 299 706 q 439 890 342 728 l 418 890 l 288 792 l 157 890 l 131 890 m 174 575 q 256 532 256 581 l 256 92 q 146 49 243 49 l 146 22 l 444 22 l 444 49 q 336 97 347 49 l 336 640 l 304 640 q 174 597 260 614 l 174 575 "},"ǒ":{"ha":694,"x_min":60,"x_max":629,"o":"m 65 325 q 138 108 60 206 q 347 11 217 11 q 553 108 478 11 q 626 322 629 206 q 567 521 624 439 q 431 624 510 603 q 274 622 353 646 q 133 521 196 597 q 65 325 71 444 m 163 319 q 219 510 163 433 q 353 589 276 586 q 481 513 429 592 q 532 322 532 433 q 485 144 532 211 q 401 63 439 76 q 317 57 364 49 q 219 138 271 65 q 163 319 168 211 m 146 911 q 301 710 282 721 q 344 700 319 700 q 391 710 369 700 q 543 911 413 721 l 515 911 l 353 786 l 179 911 l 146 911 "},"ǔ":{"ha":694,"x_min":32,"x_max":640,"o":"m 146 917 q 301 716 282 726 q 344 706 319 706 q 391 716 369 706 q 543 917 413 726 l 515 917 l 353 792 l 179 917 l 146 917 m 489 179 l 489 564 q 396 629 488 629 l 396 663 l 564 663 l 564 146 q 578 81 564 97 q 640 65 592 65 l 640 22 l 564 22 q 489 76 489 22 l 489 131 q 315 24 396 32 q 185 46 233 17 q 136 157 136 75 l 136 558 q 32 629 135 629 l 32 663 l 211 663 l 211 201 q 233 119 211 142 q 329 100 256 97 q 489 179 403 103 "},"ǖ":{"ha":694,"x_min":32,"x_max":640,"o":"m 179 956 l 179 885 l 489 885 l 489 956 l 179 956 m 265 760 q 255 803 265 788 q 223 825 244 819 q 179 825 201 831 q 144 803 157 819 q 131 759 131 786 q 152 716 131 732 q 195 700 174 700 q 241 716 217 700 q 265 760 265 732 m 543 760 q 532 803 543 788 q 497 825 521 819 q 453 825 472 831 q 420 803 433 819 q 407 759 407 786 q 428 716 407 732 q 472 700 450 700 q 518 716 493 700 q 543 760 543 732 m 489 179 l 489 564 q 396 629 488 629 l 396 663 l 564 663 l 564 146 q 578 81 564 97 q 640 65 592 65 l 640 22 l 564 22 q 489 76 489 22 l 489 131 q 315 24 396 32 q 185 46 233 17 q 136 157 136 75 l 136 558 q 32 629 135 629 l 32 663 l 211 663 l 211 201 q 233 119 211 142 q 329 100 256 97 q 489 179 403 103 "},"ǘ":{"ha":694,"x_min":32,"x_max":640,"o":"m 265 760 q 255 803 265 788 q 223 825 244 819 q 179 825 201 831 q 144 803 157 819 q 131 759 131 786 q 152 716 131 732 q 195 700 174 700 q 241 716 217 700 q 265 760 265 732 m 543 760 q 532 803 543 788 q 497 825 521 819 q 453 825 472 831 q 420 803 433 819 q 407 759 407 786 q 428 716 407 732 q 472 700 450 700 q 518 716 493 700 q 543 760 543 732 m 467 1074 q 288 903 288 932 q 317 863 288 874 q 372 870 347 851 q 493 1074 396 889 l 467 1074 m 489 179 l 489 564 q 396 629 488 629 l 396 663 l 564 663 l 564 146 q 578 81 564 97 q 640 65 592 65 l 640 22 l 564 22 q 489 76 489 22 l 489 131 q 315 24 396 32 q 185 46 233 17 q 136 157 136 75 l 136 558 q 32 629 135 629 l 32 663 l 211 663 l 211 201 q 233 119 211 142 q 329 100 256 97 q 489 179 403 103 "},"ǚ":{"ha":694,"x_min":32,"x_max":640,"o":"m 151 1069 q 306 868 288 879 q 350 857 325 857 q 397 868 375 857 q 549 1069 418 879 l 521 1069 l 358 944 l 185 1069 l 151 1069 m 265 760 q 255 803 265 788 q 223 825 244 819 q 179 825 201 831 q 144 803 157 819 q 131 759 131 786 q 152 716 131 732 q 195 700 174 700 q 241 716 217 700 q 265 760 265 732 m 543 760 q 532 803 543 788 q 497 825 521 819 q 453 825 472 831 q 420 803 433 819 q 407 759 407 786 q 428 716 407 732 q 472 700 450 700 q 518 716 493 700 q 543 760 543 732 m 489 179 l 489 564 q 396 629 488 629 l 396 663 l 564 663 l 564 146 q 578 81 564 97 q 640 65 592 65 l 640 22 l 564 22 q 489 76 489 22 l 489 131 q 315 24 396 32 q 185 46 233 17 q 136 157 136 75 l 136 558 q 32 629 135 629 l 32 663 l 211 663 l 211 201 q 233 119 211 142 q 329 100 256 97 q 489 179 403 103 "},"ǜ":{"ha":694,"x_min":32,"x_max":640,"o":"m 390 863 q 306 1055 331 1031 q 249 1069 282 1079 q 215 1023 217 1058 q 364 857 213 988 l 390 863 m 265 760 q 255 803 265 788 q 223 825 244 819 q 179 825 201 831 q 144 803 157 819 q 131 759 131 786 q 152 716 131 732 q 195 700 174 700 q 241 716 217 700 q 265 760 265 732 m 543 760 q 532 803 543 788 q 497 825 521 819 q 453 825 472 831 q 420 803 433 819 q 407 759 407 786 q 428 716 407 732 q 472 700 450 700 q 518 716 493 700 q 543 760 543 732 m 489 179 l 489 564 q 396 629 488 629 l 396 663 l 564 663 l 564 146 q 578 81 564 97 q 640 65 592 65 l 640 22 l 564 22 q 489 76 489 22 l 489 131 q 315 24 396 32 q 185 46 233 17 q 136 157 136 75 l 136 558 q 32 629 135 629 l 32 663 l 211 663 l 211 201 q 233 119 211 142 q 329 100 256 97 q 489 179 403 103 "},"ǹ":{"ha":694,"x_min":43,"x_max":651,"o":"m 407 706 q 323 901 347 874 q 263 919 299 928 q 228 871 228 911 q 379 700 228 831 l 407 706 m 125 564 l 125 103 q 43 49 108 49 l 43 22 l 288 22 l 288 49 q 201 103 213 49 l 201 483 q 276 551 233 521 q 376 592 319 581 q 466 569 433 603 q 493 450 499 536 l 493 103 q 407 49 478 49 l 407 22 l 651 22 l 651 49 q 569 108 581 54 l 569 429 q 542 605 575 553 q 431 660 510 657 q 299 632 353 663 q 201 558 244 601 l 201 657 l 185 657 q 43 635 125 629 l 43 608 q 125 564 119 608 "},"ɑ":{"ha":694,"x_min":60,"x_max":597,"o":"m 489 553 q 394 629 451 613 q 269 629 336 646 q 131 528 201 613 q 60 323 60 444 q 114 119 60 201 q 244 22 168 38 q 385 30 319 6 q 483 119 451 54 l 483 97 q 558 22 482 22 l 597 22 l 597 54 q 558 136 558 65 l 558 640 l 543 640 q 489 553 511 596 m 483 493 l 483 185 q 366 78 439 92 q 247 90 293 65 q 176 165 201 114 q 151 328 151 217 q 201 507 151 439 q 348 577 250 575 q 483 493 446 579 "},"ɡ":{"ha":694,"x_min":49,"x_max":558,"o":"m 558 142 l 558 142 l 558 629 l 543 629 q 483 575 515 597 q 276 619 390 640 q 111 529 163 597 q 63 358 60 461 q 111 199 65 256 q 277 133 157 142 q 483 217 397 125 l 483 119 q 431 -94 483 -37 q 284 -147 379 -151 q 157 -65 189 -142 q 176 10 196 -28 q 114 43 157 49 q 60 0 71 38 q 65 -78 49 -37 q 136 -152 82 -119 q 312 -182 190 -185 q 496 -111 433 -179 q 558 142 558 -43 m 483 429 l 483 265 q 361 188 418 201 q 258 185 304 174 q 178 247 211 196 q 149 377 146 299 q 184 510 151 456 q 290 581 217 564 q 424 562 364 597 q 483 429 483 526 "},"ˆ":{"ha":694,"x_min":43,"x_max":424,"o":"m 168 1042 l 43 819 l 60 819 l 222 965 l 401 819 l 424 819 l 293 1042 l 168 1042 "},"ˇ":{"ha":1389,"x_min":439,"x_max":956,"o":"m 456 1010 l 439 988 l 700 776 l 956 993 l 933 1014 l 700 863 l 456 1010 "},"ˉ":{"ha":1389,"x_min":444,"x_max":939,"o":"m 939 911 l 939 965 l 444 965 l 444 911 l 939 911 "},"ˊ":{"ha":1389,"x_min":510,"x_max":857,"o":"m 526 765 q 817 935 776 911 q 849 992 857 960 q 806 1033 840 1025 q 738 1006 771 1042 q 510 781 706 971 l 526 765 "},"ˋ":{"ha":1389,"x_min":532,"x_max":868,"o":"m 868 765 q 643 996 678 961 q 573 1015 608 1031 q 535 966 538 999 q 581 909 532 933 q 857 749 629 885 l 868 765 "},"˘":{"ha":694,"x_min":143,"x_max":550,"o":"m 143 938 q 202 802 149 850 q 347 754 256 754 q 517 835 461 754 q 550 938 544 875 l 447 938 q 346 858 429 858 q 246 938 263 858 l 143 938 "},"˙":{"ha":1389,"x_min":592,"x_max":792,"o":"m 629 776 q 732 773 672 749 q 789 863 792 797 q 735 952 786 928 q 638 949 683 976 q 592 865 592 922 q 629 776 592 808 "},"˚":{"ha":694,"x_min":214,"x_max":481,"o":"m 349 1007 q 258 972 296 1007 q 214 875 214 932 q 249 785 214 822 q 347 740 289 740 q 436 775 399 740 q 481 874 481 814 q 446 963 481 925 q 349 1007 406 1007 m 347 926 q 386 911 371 926 q 401 874 401 896 q 385 835 401 851 q 347 819 369 819 q 309 835 325 819 q 293 874 293 851 q 309 912 293 897 q 347 926 325 926 "},"˛":{"ha":694,"x_min":479,"x_max":704,"o":"m 667 0 l 564 0 q 479 -131 479 -51 q 611 -235 479 -235 q 704 -218 656 -235 l 704 -139 q 642 -154 671 -154 q 585 -103 585 -154 q 667 0 585 -44 "},"˜":{"ha":694,"x_min":17,"x_max":450,"o":"m 38 851 q 54 917 49 906 q 97 944 69 944 q 131 936 114 944 q 185 900 147 928 q 319 851 265 851 q 383 874 353 851 q 431 928 413 896 q 450 1019 450 960 l 429 1019 q 402 947 418 965 q 364 928 386 928 q 280 963 336 928 q 196 1010 224 999 q 142 1019 169 1019 q 54 981 92 1019 q 17 851 17 943 l 38 851 "},"˝":{"ha":694,"x_min":160,"x_max":613,"o":"m 418 938 l 274 938 l 160 756 l 260 756 l 418 938 m 613 938 l 469 938 l 354 756 l 456 756 l 613 938 "},"Α":{"ha":1389,"x_min":239,"x_max":1085,"o":"m 956 250 l 646 956 l 336 190 q 239 151 310 146 l 239 119 l 483 119 l 483 151 q 390 206 363 146 l 478 424 l 792 424 l 879 211 q 819 151 917 146 l 819 119 l 1085 119 l 1085 151 q 956 250 988 158 m 493 456 l 635 803 l 776 456 l 493 456 "},"Β":{"ha":1389,"x_min":325,"x_max":1074,"o":"m 325 119 l 657 119 q 938 147 851 114 q 1049 288 1025 179 q 1003 467 1074 396 q 868 549 933 538 q 979 613 939 564 q 1015 771 1019 663 q 917 920 1010 879 q 663 956 825 961 l 325 956 l 325 922 q 433 831 433 933 l 433 217 q 325 151 411 146 l 325 119 m 521 532 l 722 532 q 888 483 825 538 q 950 342 950 429 q 898 201 950 256 q 732 151 846 146 l 521 151 l 521 532 m 521 564 l 521 917 l 726 917 q 871 868 825 911 q 925 754 917 825 q 882 626 933 683 q 722 564 831 569 l 521 564 "},"Γ":{"ha":1389,"x_min":347,"x_max":1031,"o":"m 1004 689 l 1031 689 l 1025 950 l 358 950 l 358 917 q 444 840 450 917 l 444 196 q 347 146 433 140 l 347 114 l 646 114 l 646 146 q 532 185 564 142 l 532 917 l 808 917 q 1004 689 972 874 "},"Δ":{"ha":1389,"x_min":331,"x_max":1053,"o":"m 331 119 l 1053 119 l 678 965 l 331 119 m 933 157 l 396 157 l 657 803 l 933 157 "},"Ε":{"ha":1389,"x_min":288,"x_max":1101,"o":"m 825 776 l 786 776 q 722 558 804 586 l 526 558 l 526 917 l 814 917 q 1042 672 1014 911 l 1069 672 l 1058 950 l 288 950 l 288 917 q 433 825 450 922 l 433 222 q 293 151 433 140 l 293 119 l 1096 119 l 1101 433 l 1074 433 q 1003 212 1053 261 q 868 151 954 163 l 526 151 l 526 526 l 722 526 q 786 325 803 504 l 825 325 l 825 776 "},"Ζ":{"ha":1389,"x_min":347,"x_max":1042,"o":"m 851 151 l 489 151 l 1019 950 l 369 950 l 358 667 l 385 667 q 461 868 424 831 q 564 917 499 906 l 885 917 l 347 119 l 1031 119 l 1042 418 l 1014 418 q 851 151 988 179 "},"Η":{"ha":1389,"x_min":250,"x_max":1139,"o":"m 461 868 q 592 917 478 922 l 592 950 l 250 950 l 250 917 q 379 868 363 922 l 379 206 q 250 151 364 146 l 250 119 l 586 119 l 586 146 q 461 206 478 146 l 461 538 l 933 538 l 933 190 q 808 151 911 146 l 808 119 l 1139 119 l 1139 151 q 1014 190 1025 147 l 1014 874 q 1139 917 1025 922 l 1139 950 l 808 950 l 808 917 q 933 874 911 922 l 933 569 l 461 569 l 461 868 "},"Θ":{"ha":1389,"x_min":315,"x_max":1085,"o":"m 597 944 q 408 817 500 922 q 315 518 315 711 q 424 217 315 325 q 697 108 532 108 q 974 231 863 108 q 1074 542 1085 353 q 977 830 1064 732 q 792 950 890 928 q 597 944 694 972 m 613 146 q 477 252 542 168 q 407 431 413 336 q 407 624 401 526 q 494 828 413 722 q 700 933 575 933 q 898 841 825 933 q 976 649 971 749 q 979 434 982 549 q 914 244 976 319 q 770 146 851 168 q 613 146 689 124 m 831 651 q 697 575 788 575 q 564 651 607 575 l 532 651 l 532 407 l 564 407 q 698 483 608 483 q 831 407 788 483 l 863 407 l 863 651 l 831 651 "},"Ι":{"ha":1389,"x_min":504,"x_max":879,"o":"m 879 917 l 879 950 l 504 950 l 504 917 q 646 868 635 922 l 646 196 q 504 146 635 140 l 504 114 l 879 114 l 879 146 q 738 196 743 142 l 738 868 q 879 917 743 922 "},"Κ":{"ha":1389,"x_min":271,"x_max":1113,"o":"m 1113 917 l 1113 950 l 808 950 l 808 917 q 882 876 922 922 q 483 478 842 831 l 483 874 q 608 917 500 917 l 608 950 l 271 950 l 271 917 q 401 874 396 922 l 401 196 q 271 151 396 146 l 271 119 l 608 119 l 608 151 q 483 196 506 147 l 483 424 l 613 553 q 892 174 868 201 q 808 151 917 146 l 808 119 l 1113 119 l 1113 151 q 971 211 1025 146 l 667 608 l 939 879 q 1113 917 971 922 "},"Λ":{"ha":1389,"x_min":315,"x_max":1074,"o":"m 965 211 l 694 988 l 418 201 q 315 151 375 146 l 315 119 l 532 119 l 532 151 q 461 201 433 147 l 672 786 l 868 211 q 819 146 896 140 l 819 114 l 1074 114 l 1074 146 q 965 211 988 146 "},"Μ":{"ha":1389,"x_min":196,"x_max":1183,"o":"m 325 874 l 325 201 q 206 151 325 146 l 206 119 l 467 119 l 467 151 q 364 201 386 147 l 364 885 l 667 131 l 982 900 l 982 201 q 857 151 976 146 l 857 119 l 1183 119 l 1183 151 q 1074 201 1074 147 l 1074 879 q 1183 917 1075 928 l 1183 950 l 960 950 l 706 319 l 439 950 l 196 950 l 196 917 q 325 874 325 922 "},"Ν":{"ha":1389,"x_min":271,"x_max":1113,"o":"m 396 885 l 396 201 q 271 151 396 146 l 271 119 l 564 119 l 564 151 q 433 196 439 147 l 433 836 l 999 92 l 999 868 q 1113 917 1010 922 l 1113 950 l 851 950 l 851 917 q 960 868 943 922 l 960 288 l 461 950 l 271 950 l 271 917 l 369 917 l 396 885 "},"Ξ":{"ha":1389,"x_min":358,"x_max":1025,"o":"m 385 342 l 358 342 l 364 119 l 1014 119 l 1019 342 l 999 342 q 911 206 988 194 l 478 206 q 385 342 401 200 m 640 564 q 483 667 504 558 l 456 667 l 456 379 l 483 379 q 629 478 515 478 l 722 478 q 890 379 868 482 l 917 379 l 917 672 l 890 672 q 722 564 868 558 l 640 564 m 478 863 l 917 863 q 999 743 988 863 l 1025 743 l 1019 950 l 364 950 l 358 722 l 379 722 q 478 863 407 863 "},"Ο":{"ha":1389,"x_min":315,"x_max":1058,"o":"m 407 808 q 320 538 325 700 q 413 244 315 375 q 686 111 510 114 q 958 225 863 108 q 1056 521 1053 342 q 972 814 1058 700 q 787 952 885 928 q 591 947 689 976 q 407 808 493 917 m 608 151 q 483 260 538 174 q 424 440 429 347 q 424 632 418 532 q 499 830 429 732 q 692 933 569 928 q 887 835 814 939 q 963 635 960 732 q 958 418 965 538 q 890 231 950 299 q 758 146 831 163 q 608 151 685 129 "},"Π":{"ha":1389,"x_min":217,"x_max":1161,"o":"m 456 863 q 532 911 461 906 l 851 911 q 933 863 911 917 l 933 211 q 786 157 922 151 l 786 125 l 1150 125 l 1150 157 q 1019 211 1019 151 l 1019 868 q 1161 911 1019 917 l 1161 950 l 222 950 l 222 911 q 364 868 353 917 l 364 206 q 217 151 353 151 l 217 119 l 581 119 l 581 151 q 456 201 461 153 l 456 863 "},"Ρ":{"ha":1389,"x_min":304,"x_max":1085,"o":"m 444 836 l 444 206 q 304 146 435 140 l 304 119 l 706 119 l 706 146 q 538 206 532 140 l 538 538 l 840 538 q 1001 592 928 538 q 1079 741 1074 646 q 1025 896 1085 836 q 846 950 965 956 l 304 950 l 304 917 q 444 836 444 922 m 538 917 l 808 917 q 968 738 976 896 q 803 569 960 581 l 538 569 l 538 917 "},"Σ":{"ha":1389,"x_min":293,"x_max":1096,"o":"m 863 201 l 433 201 l 814 564 l 461 917 l 846 917 q 1069 754 978 922 l 1096 760 l 1031 950 l 299 950 l 711 526 l 293 119 l 1042 119 l 1090 353 l 1064 353 q 863 201 1004 196 "},"Τ":{"ha":1389,"x_min":315,"x_max":1069,"o":"m 1042 689 l 1069 689 l 1064 950 l 319 950 l 315 694 l 342 694 q 483 917 369 863 l 640 917 l 640 206 q 483 146 635 140 l 483 114 l 890 114 l 890 146 q 726 206 738 140 l 726 917 l 890 917 q 1042 689 1025 879 "},"Υ":{"ha":1389,"x_min":325,"x_max":1064,"o":"m 732 749 q 806 870 743 840 q 928 890 868 900 q 1009 822 988 879 q 1047 811 1031 765 q 1039 908 1064 857 q 944 982 1014 960 q 790 949 874 1004 q 694 726 706 894 q 616 919 689 857 q 464 958 543 982 q 355 885 385 933 q 328 795 325 836 q 363 803 331 754 q 458 871 396 851 q 581 858 521 890 q 646 743 640 825 l 646 196 q 532 151 635 146 l 532 119 l 836 119 l 836 151 q 732 196 760 147 l 732 749 "},"Φ":{"ha":1389,"x_min":222,"x_max":1150,"o":"m 646 840 q 315 743 407 846 q 231 513 222 640 q 323 303 239 385 q 646 228 407 222 l 646 185 q 532 136 651 131 l 532 103 l 840 103 l 840 136 q 732 185 726 131 l 732 228 q 1050 309 950 222 q 1150 529 1150 396 q 1085 733 1150 663 q 927 824 1019 803 q 732 840 835 846 l 732 890 q 836 933 733 939 l 836 965 l 543 965 l 543 933 q 646 890 646 939 l 646 840 m 732 803 q 968 740 883 808 q 1047 524 1053 672 q 958 317 1042 375 q 732 265 874 260 l 732 803 m 646 265 q 396 331 467 260 q 333 551 325 401 q 423 754 342 700 q 646 803 504 808 l 646 265 "},"Χ":{"ha":1389,"x_min":228,"x_max":1139,"o":"m 1139 917 l 1139 950 l 863 950 l 863 917 q 939 885 950 922 l 711 603 l 499 885 q 581 917 467 922 l 581 950 l 228 950 l 228 917 q 385 879 353 922 l 640 526 l 369 190 q 228 151 342 146 l 228 119 l 493 119 l 493 151 q 413 179 364 147 l 667 493 l 885 196 q 797 151 943 146 l 797 119 l 1139 119 l 1139 151 q 971 233 1014 147 l 732 569 l 988 885 q 1139 917 1019 922 "},"Ψ":{"ha":1389,"x_min":206,"x_max":1193,"o":"m 651 385 q 475 417 526 379 q 415 535 424 456 q 407 950 407 614 l 206 950 l 206 922 l 310 896 q 326 565 315 700 q 407 385 336 429 q 651 347 478 342 l 651 206 q 543 151 640 146 l 543 119 l 846 119 l 846 151 q 738 211 738 146 l 738 353 q 985 391 900 353 q 1083 562 1069 429 q 1101 900 1096 694 l 1193 922 l 1193 950 l 1004 950 q 983 507 1010 575 q 909 415 956 439 q 738 385 863 390 l 738 857 q 836 917 750 922 l 836 950 l 553 950 l 553 917 q 651 851 651 922 l 651 385 "},"Ω":{"ha":1389,"x_min":315,"x_max":1090,"o":"m 792 201 l 792 282 q 1052 510 1014 336 q 1006 803 1090 683 q 817 958 922 922 q 608 966 711 993 q 410 825 504 939 q 342 524 315 711 q 586 276 369 336 l 586 201 l 390 201 l 358 288 l 331 288 l 347 119 l 624 119 l 624 299 q 493 393 553 319 q 436 610 433 467 q 524 847 439 754 q 706 936 608 939 q 879 833 803 933 q 956 602 956 732 q 906 407 956 472 q 754 304 857 342 l 754 119 l 1031 119 l 1047 288 l 1019 288 l 993 201 l 792 201 "},"α":{"ha":1389,"x_min":364,"x_max":971,"o":"m 781 629 q 675 713 732 694 q 551 716 618 732 q 424 624 483 700 q 369 424 364 549 q 426 236 375 299 q 535 155 478 174 q 649 149 592 136 q 754 228 706 163 q 857 152 743 125 q 933 201 971 179 q 831 293 825 163 l 831 558 q 871 692 836 672 q 868 719 906 711 q 806 708 831 726 q 781 629 781 689 m 754 299 q 597 185 678 174 q 483 256 515 196 q 450 426 450 315 q 499 613 450 538 q 610 692 549 689 q 713 648 672 694 q 754 553 754 601 l 754 299 "},"β":{"ha":1389,"x_min":342,"x_max":965,"o":"m 499 310 l 499 265 q 735 138 618 131 q 908 219 851 146 q 963 428 965 293 q 803 618 960 564 q 911 790 906 689 q 854 942 917 890 q 713 1003 792 993 q 567 987 635 1014 q 458 890 499 960 q 424 700 418 819 l 424 358 l 424 38 q 342 -11 424 -17 l 342 -43 l 581 -43 l 581 -11 q 499 38 493 -17 l 499 738 q 602 955 493 917 q 768 939 711 993 q 831 811 825 885 q 806 683 836 738 q 730 632 776 629 q 640 643 683 635 q 570 651 597 651 q 543 610 543 651 q 592 578 543 569 q 706 594 640 586 q 814 573 771 603 q 871 459 857 543 q 865 299 885 375 q 784 195 846 222 q 659 188 722 168 q 499 310 596 207 "},"γ":{"ha":1389,"x_min":379,"x_max":1025,"o":"m 694 315 l 543 717 l 379 717 l 379 683 q 483 635 456 689 l 640 244 q 559 35 543 108 q 632 -46 575 -37 q 724 -38 689 -54 q 787 26 760 -22 q 717 271 814 75 l 911 651 q 1025 683 933 689 l 1025 717 l 819 717 l 819 683 q 868 651 885 683 l 694 315 m 667 190 q 718 52 710 82 q 702 14 726 22 q 648 11 678 6 q 613 58 618 17 q 667 190 607 99 "},"δ":{"ha":1389,"x_min":433,"x_max":956,"o":"m 672 717 q 504 619 569 694 q 436 421 439 543 q 501 220 433 299 q 681 142 569 142 q 868 215 792 142 q 950 404 944 288 q 901 592 956 521 q 781 692 846 663 q 649 809 717 722 q 619 958 581 896 q 747 1001 657 1019 q 811 944 836 982 q 816 881 786 906 q 876 874 846 857 q 908 931 906 890 q 865 1003 911 971 q 722 1042 819 1036 q 567 1001 624 1047 q 518 879 510 956 q 672 717 526 803 m 706 689 q 833 578 803 640 q 860 413 863 515 q 814 244 857 310 q 690 174 771 179 q 565 236 608 168 q 526 431 521 304 q 573 618 532 558 q 706 689 614 678 "},"ε":{"ha":1389,"x_min":494,"x_max":911,"o":"m 592 467 q 497 317 494 401 q 556 188 499 233 q 681 147 613 142 q 794 187 749 151 q 876 279 840 222 q 841 274 911 336 q 711 208 771 211 q 616 241 651 206 q 581 328 581 276 q 605 412 581 379 q 651 437 629 444 q 702 429 672 429 q 754 445 732 429 q 760 475 776 461 q 710 491 743 489 q 651 483 678 493 q 608 502 624 472 q 594 581 592 532 q 630 662 597 629 q 708 692 663 694 q 784 665 754 689 q 797 629 814 640 q 786 594 781 618 q 816 564 792 569 q 854 572 840 558 q 871 608 868 586 q 852 656 874 629 q 781 708 831 683 q 670 727 732 732 q 556 681 608 722 q 507 575 504 640 q 592 467 510 510 "},"ζ":{"ha":1389,"x_min":424,"x_max":950,"o":"m 846 960 l 549 960 l 504 840 l 526 840 q 635 896 564 901 l 786 896 q 588 724 678 808 q 461 548 499 640 q 428 369 424 456 q 491 249 433 282 q 624 222 549 217 q 760 228 700 228 q 855 209 819 228 q 895 152 890 190 q 876 87 900 114 q 784 63 851 60 q 703 68 717 65 q 662 84 689 71 q 613 65 635 97 q 619 10 592 32 q 746 0 646 -11 q 895 54 846 11 q 947 154 944 97 q 931 236 950 211 q 881 274 911 261 q 759 296 851 288 q 624 307 667 304 q 540 350 581 310 q 524 504 499 390 q 662 738 549 618 q 846 896 775 858 l 846 960 "},"η":{"ha":1389,"x_min":456,"x_max":1085,"o":"m 618 678 l 618 722 l 456 689 l 456 663 q 553 597 564 663 l 553 239 q 478 201 560 196 l 478 168 l 694 168 l 694 196 q 629 244 624 190 l 629 629 q 811 676 711 683 q 906 538 911 668 l 906 28 q 947 -90 900 -82 q 1039 -70 993 -97 q 1079 -19 1085 -43 q 1042 -6 1074 6 q 993 -13 1010 -17 q 982 22 976 -10 l 982 608 q 843 751 976 750 q 618 678 710 754 "},"θ":{"ha":1389,"x_min":461,"x_max":917,"o":"m 911 553 q 878 860 917 769 q 776 982 840 950 q 643 992 711 1014 q 518 857 575 971 q 469 553 461 743 q 538 260 478 364 q 689 157 597 157 q 843 249 781 157 q 911 553 906 342 m 553 564 l 825 564 q 795 290 825 379 q 722 188 765 201 q 645 198 678 174 q 588 288 613 222 q 553 564 564 353 m 825 592 l 553 592 q 597 892 558 803 q 692 976 635 982 q 787 887 749 971 q 825 592 825 803 "},"ι":{"ha":1389,"x_min":515,"x_max":786,"o":"m 586 261 q 640 142 581 158 q 743 168 700 125 q 786 258 786 211 q 762 255 786 304 q 699 198 738 206 q 667 261 661 190 l 667 722 l 640 722 q 515 672 601 672 l 515 646 l 586 646 l 586 261 "},"κ":{"ha":1389,"x_min":358,"x_max":911,"o":"m 521 456 l 521 456 l 521 717 l 375 717 l 375 683 q 439 613 444 689 l 439 222 q 358 179 440 174 l 358 151 l 597 151 l 597 185 q 521 228 521 185 l 521 396 q 608 390 571 396 l 711 179 q 817 135 743 114 q 901 214 890 157 q 887 238 911 271 q 828 198 863 206 q 771 228 793 190 l 667 429 l 640 444 q 699 569 667 499 q 767 624 732 640 q 822 635 803 608 q 824 692 840 663 q 760 714 808 722 q 670 610 711 706 q 610 483 629 515 q 521 456 592 450 "},"λ":{"ha":1389,"x_min":347,"x_max":976,"o":"m 553 890 l 635 646 q 417 195 439 206 q 347 185 396 185 l 347 151 l 532 151 l 532 185 q 478 211 472 179 l 657 586 q 803 185 771 228 q 882 147 836 142 q 952 203 928 151 q 976 299 976 256 q 947 293 976 342 q 901 239 917 244 q 863 255 885 233 q 613 993 840 276 l 433 993 l 433 960 q 553 890 508 961 "},"μ":{"ha":1389,"x_min":325,"x_max":965,"o":"m 489 49 l 489 190 q 589 135 510 146 q 765 228 668 125 q 825 144 765 157 q 925 193 885 131 q 958 260 965 256 q 923 244 950 265 q 868 217 896 222 q 846 293 840 211 l 846 711 l 722 711 l 722 683 q 765 651 765 683 l 765 304 q 606 201 706 201 q 489 276 506 200 l 489 711 l 353 711 l 353 683 q 407 646 413 683 l 407 49 q 325 11 407 6 l 325 -22 l 569 -22 l 569 11 q 489 49 489 6 "},"ν":{"ha":1389,"x_min":444,"x_max":1014,"o":"m 700 131 l 726 131 l 950 646 q 1014 683 965 689 l 1014 711 l 846 711 l 846 683 q 906 646 922 689 l 738 261 l 586 706 l 444 706 l 444 672 q 521 629 510 672 l 700 131 "},"ξ":{"ha":1389,"x_min":424,"x_max":950,"o":"m 624 917 q 505 787 538 857 q 497 668 472 717 q 667 597 521 619 q 451 442 478 558 q 486 258 424 325 q 640 179 549 190 q 792 155 732 168 q 857 106 851 142 q 827 33 863 71 q 759 -6 792 -6 q 694 24 726 -6 q 646 30 663 54 q 638 -33 629 6 q 719 -74 646 -71 q 849 -47 792 -76 q 928 49 906 -17 q 928 158 950 114 q 838 220 906 201 q 684 252 771 239 q 553 317 597 265 q 531 445 510 369 q 624 551 553 521 q 760 575 694 581 l 760 624 q 616 648 657 624 q 567 743 575 672 q 683 917 558 814 l 819 917 l 819 982 l 472 982 l 429 874 l 456 874 q 526 917 489 922 l 624 917 "},"ο":{"ha":1389,"x_min":433,"x_max":933,"o":"m 613 706 q 490 613 542 683 q 436 431 439 543 q 501 233 433 319 q 686 149 569 146 q 868 235 803 151 q 933 431 933 319 q 885 613 933 543 q 763 708 836 683 q 613 706 689 733 m 558 256 q 524 424 526 315 q 565 610 521 532 q 694 683 608 689 q 816 608 781 678 q 849 428 851 538 q 816 260 846 319 q 735 188 786 201 q 640 185 683 174 q 558 256 596 196 "},"π":{"ha":1389,"x_min":390,"x_max":999,"o":"m 526 657 l 564 657 l 564 288 q 534 198 564 206 q 501 217 504 190 q 464 247 499 244 q 418 223 429 250 q 426 171 407 196 q 494 144 444 146 q 589 171 543 142 q 629 325 635 200 l 629 657 l 792 657 l 792 244 q 860 141 781 131 q 969 217 939 151 q 955 255 999 282 q 881 220 911 228 q 857 299 851 213 l 857 657 l 982 657 l 982 717 l 444 717 l 390 597 l 424 597 q 526 657 461 657 "},"ρ":{"ha":1389,"x_min":342,"x_max":971,"o":"m 592 6 q 510 60 506 6 l 510 478 q 586 656 521 613 q 733 676 651 700 q 830 570 814 651 q 846 415 846 489 q 816 269 846 342 q 681 196 786 196 q 510 304 575 196 l 510 233 q 760 152 624 114 q 933 334 896 190 q 919 581 971 478 q 767 713 868 683 q 556 683 667 743 q 429 450 446 624 l 429 49 q 342 6 433 0 l 342 -28 l 592 -28 l 592 6 "},"σ":{"ha":1389,"x_min":375,"x_max":922,"o":"m 792 657 l 922 657 l 922 722 q 619 719 700 722 q 456 638 538 717 q 380 426 375 558 q 458 215 385 293 q 638 141 532 136 q 814 219 743 146 q 892 434 885 293 q 792 657 900 575 m 738 640 q 794 524 781 592 q 797 374 808 456 q 738 228 786 293 q 616 174 689 163 q 505 258 543 185 q 469 440 467 331 q 508 608 472 549 q 619 681 543 667 q 738 640 694 694 "},"τ":{"ha":1389,"x_min":456,"x_max":933,"o":"m 569 640 l 663 640 l 663 244 q 729 147 667 151 q 833 185 792 142 q 879 258 874 228 q 847 255 885 288 q 770 217 808 222 q 738 276 732 211 l 738 640 l 933 640 l 933 706 l 493 706 l 456 581 l 478 581 q 569 640 521 646 "},"υ":{"ha":1389,"x_min":433,"x_max":999,"o":"m 526 347 q 569 187 526 228 q 681 141 613 146 q 811 163 749 136 q 919 266 874 190 q 982 472 965 342 q 982 654 999 603 q 914 724 965 706 q 811 724 863 743 q 751 649 760 706 q 770 624 743 592 q 822 665 797 657 q 873 659 846 672 q 898 515 900 646 q 871 303 896 385 q 789 198 846 222 q 673 190 732 174 q 608 310 614 207 l 608 717 l 433 717 l 433 683 q 526 603 536 685 l 526 347 "},"φ":{"ha":1389,"x_min":336,"x_max":1085,"o":"m 672 146 l 672 32 q 603 0 679 -6 l 603 -32 l 825 -32 l 825 0 q 754 38 749 -6 l 754 146 q 983 219 896 151 q 1077 418 1069 288 q 988 633 1085 549 q 754 722 890 717 l 754 982 l 597 956 l 597 933 q 672 885 678 933 l 672 717 q 431 622 526 706 q 344 410 336 538 q 442 214 353 282 q 672 146 531 146 m 672 179 q 510 247 569 174 q 456 439 450 319 q 524 621 461 558 q 672 683 586 683 l 672 179 m 754 689 q 917 613 857 683 q 968 424 976 543 q 908 242 960 304 q 754 179 857 179 l 754 689 "},"χ":{"ha":1389,"x_min":390,"x_max":1004,"o":"m 732 433 q 917 694 900 683 q 988 706 933 706 l 988 732 l 814 732 l 814 706 q 851 672 874 710 l 711 467 l 549 732 l 413 732 l 413 706 q 486 670 461 700 q 657 407 511 640 q 483 201 504 196 q 437 203 461 206 q 401 179 413 201 q 401 138 390 157 q 445 111 413 119 q 515 151 478 103 l 678 369 q 838 138 797 190 q 925 94 879 86 q 988 165 971 103 q 1001 255 1004 228 q 982 244 999 282 q 944 181 965 206 q 892 192 922 157 q 732 433 863 228 "},"ψ":{"ha":1389,"x_min":353,"x_max":1144,"o":"m 776 174 l 776 174 l 776 754 l 635 732 l 635 711 q 700 667 706 710 l 700 174 q 583 231 618 185 q 546 437 549 276 q 546 660 543 597 q 499 744 549 722 q 401 724 450 765 q 361 673 353 683 q 385 673 369 663 q 434 683 401 683 q 467 643 467 683 q 467 415 467 603 q 532 187 467 228 q 700 146 597 146 l 700 43 q 635 0 706 -6 l 635 -28 l 846 -28 l 846 0 q 776 43 776 0 l 776 146 q 947 208 890 146 q 1004 423 1004 271 q 1009 638 1004 575 q 1079 689 1014 700 q 1144 692 1144 678 q 1112 733 1144 706 q 1009 751 1079 760 q 933 673 939 743 q 928 453 928 603 q 893 239 928 304 q 776 174 858 174 "},"ω":{"ha":1389,"x_min":299,"x_max":1085,"o":"m 694 222 q 852 143 765 140 q 1012 222 939 146 q 1074 428 1085 299 q 1001 624 1064 558 q 865 710 939 689 q 835 708 792 732 q 912 653 879 683 q 969 553 944 624 q 985 383 993 483 q 925 225 976 282 q 814 185 874 168 q 732 256 754 201 l 732 461 l 657 461 l 657 256 q 540 182 603 174 q 442 239 478 190 q 399 383 407 288 q 426 562 390 478 q 537 686 461 646 q 558 716 613 726 q 442 665 504 706 q 339 551 379 624 q 304 385 299 478 q 374 222 310 293 q 528 146 439 151 q 694 222 618 140 "},"Ё":{"ha":1389,"x_min":304,"x_max":1074,"o":"m 444 890 l 444 211 q 304 163 435 157 l 304 136 l 1074 136 l 1074 444 l 1053 444 q 879 163 1042 185 l 586 163 q 532 217 526 163 l 532 553 l 732 553 q 797 353 797 521 l 825 353 l 825 797 l 797 797 q 732 586 803 608 l 532 586 l 532 879 q 597 939 526 944 l 868 939 q 1036 700 1014 906 l 1058 700 l 1058 965 l 304 965 l 304 939 q 444 890 450 944 m 939 1042 q 917 1109 956 1085 q 847 1106 879 1133 q 827 1042 814 1079 q 884 1004 840 1004 q 939 1042 928 1004 m 586 1042 q 565 1109 603 1085 q 494 1106 526 1133 q 475 1042 461 1079 q 532 1004 489 1004 q 586 1042 575 1004 "},"А":{"ha":1389,"x_min":265,"x_max":1107,"o":"m 510 157 q 432 157 478 157 q 418 228 386 157 l 493 418 l 825 418 l 900 228 q 898 160 933 163 q 840 157 863 157 l 840 131 l 1107 131 l 1107 157 q 1042 165 1064 157 q 982 265 1019 174 l 672 976 l 385 233 q 265 157 351 146 l 265 131 l 510 131 l 510 157 m 504 450 l 657 840 l 814 450 l 504 450 "},"Б":{"ha":1389,"x_min":336,"x_max":1064,"o":"m 732 142 q 955 188 874 136 q 1050 331 1036 239 q 1001 502 1064 424 q 749 586 939 581 l 515 586 l 515 874 q 592 944 506 956 l 819 944 q 993 717 965 918 l 1014 717 l 1010 971 l 342 971 l 342 944 q 429 900 418 943 l 429 201 q 336 168 413 163 l 336 142 l 732 142 m 515 558 l 672 558 q 874 513 803 558 q 950 374 944 467 q 898 222 956 282 q 678 168 840 163 l 515 168 l 515 558 "},"В":{"ha":1389,"x_min":315,"x_max":1074,"o":"m 429 906 l 429 206 q 315 163 401 157 l 315 142 l 640 142 q 974 193 885 136 q 1069 356 1064 250 q 1009 513 1074 461 q 868 581 944 564 q 982 646 928 592 q 1020 798 1036 700 q 923 936 1004 896 q 657 971 842 976 l 315 971 l 315 950 q 429 906 424 949 m 515 201 l 515 553 l 667 553 q 860 526 776 558 q 960 393 944 493 q 906 231 976 293 q 678 168 835 168 l 564 168 q 515 201 510 164 m 515 581 l 515 917 q 558 944 521 950 l 694 944 q 876 892 819 944 q 919 743 933 840 q 838 613 906 646 q 667 581 769 581 l 515 581 "},"Г":{"ha":1389,"x_min":347,"x_max":1031,"o":"m 532 206 l 532 906 q 586 944 532 944 l 857 944 q 1010 722 978 896 l 1031 722 l 1025 971 l 358 971 l 358 950 q 444 911 444 949 l 444 206 q 347 163 444 157 l 347 136 l 651 136 l 651 163 q 532 206 526 157 "},"Д":{"ha":1389,"x_min":256,"x_max":1118,"o":"m 1101 -43 l 1118 -43 l 1113 179 l 1053 179 q 976 228 988 185 l 976 879 q 1101 922 988 933 l 1101 971 l 375 971 l 375 928 l 467 928 q 515 874 515 928 q 477 481 504 657 q 379 179 450 304 l 265 179 l 256 -37 l 276 -37 q 385 136 319 119 l 976 136 q 1101 -43 1053 119 m 439 179 q 528 478 499 293 q 569 885 558 663 q 624 928 564 928 l 836 928 q 890 885 896 922 l 890 250 q 831 179 896 168 l 439 179 "},"Е":{"ha":1389,"x_min":288,"x_max":1090,"o":"m 439 896 l 439 217 q 288 168 429 163 l 288 142 l 1090 142 l 1090 450 l 1074 450 q 874 168 1036 190 l 581 168 q 526 222 521 168 l 526 558 l 726 558 q 792 358 792 526 l 819 358 l 819 803 l 792 803 q 726 592 797 614 l 526 592 l 526 885 q 592 944 521 950 l 863 944 q 1047 706 1015 911 l 1064 706 l 1064 971 l 288 971 l 288 944 q 439 896 444 950 "},"Ж":{"ha":1389,"x_min":146,"x_max":1247,"o":"m 792 569 q 944 501 900 564 q 1009 325 988 439 q 1066 174 1031 211 q 1142 133 1101 136 q 1215 166 1183 131 q 1223 277 1247 201 q 1188 293 1199 353 q 1156 228 1178 233 q 1120 260 1133 222 q 1090 364 1107 299 q 1017 502 1074 429 q 831 592 961 575 q 985 692 939 608 q 1069 890 1032 776 q 1158 890 1128 840 q 1142 969 1188 939 q 1060 969 1096 999 q 1006 863 1025 939 q 942 700 988 786 q 771 603 896 614 l 732 603 l 732 890 q 781 939 732 939 l 851 939 l 851 971 l 538 971 l 538 939 l 608 939 q 657 890 658 939 l 657 603 l 624 603 q 472 665 515 613 q 397 806 429 717 q 356 928 364 896 q 309 985 347 960 q 233 985 271 1010 q 203 928 196 960 q 244 882 211 896 q 310 906 278 868 q 407 684 358 771 q 558 592 456 597 q 377 515 429 581 q 306 374 325 450 q 274 266 288 299 q 239 239 261 233 q 181 290 217 244 q 151 266 146 336 q 195 166 157 196 q 288 155 233 136 q 363 255 342 174 q 401 407 385 336 q 458 518 418 478 q 581 569 499 558 l 657 569 l 657 217 q 538 179 635 174 l 538 151 l 851 151 l 851 185 q 732 217 743 179 l 732 569 l 792 569 "},"З":{"ha":1389,"x_min":396,"x_max":982,"o":"m 543 564 q 801 526 717 569 q 890 388 885 483 q 831 233 896 293 q 667 174 765 174 q 510 215 569 174 q 488 280 450 256 q 508 344 526 304 q 442 374 489 385 q 399 320 396 364 q 423 241 401 276 q 507 176 444 206 q 646 141 569 146 q 809 166 722 136 q 939 253 896 196 q 982 380 982 310 q 933 499 982 450 q 771 575 885 547 q 915 646 874 603 q 953 773 956 689 q 893 906 950 857 q 763 972 836 956 q 616 960 689 988 q 505 892 543 933 q 450 971 467 851 l 429 971 l 429 678 l 444 678 q 553 892 493 846 q 689 942 613 939 q 814 890 765 944 q 863 757 863 836 q 801 629 863 678 q 543 586 739 581 l 543 564 "},"И":{"ha":1389,"x_min":228,"x_max":1150,"o":"m 575 944 l 575 971 l 228 971 l 228 944 q 353 890 342 944 l 353 211 q 228 163 342 163 l 228 136 l 575 136 l 575 163 q 450 206 461 163 l 450 239 l 933 836 l 933 228 q 808 163 917 163 l 808 136 l 1150 136 l 1150 163 q 1025 228 1031 163 l 1025 900 q 1150 944 1031 944 l 1150 971 l 808 971 l 808 944 q 933 922 911 944 l 933 896 l 450 288 l 450 890 q 575 944 456 944 "},"Й":{"ha":1389,"x_min":233,"x_max":1156,"o":"m 786 1124 q 740 1097 749 1124 q 751 1053 732 1069 q 727 1020 771 1036 q 646 1017 683 1004 q 622 1042 608 1031 q 640 1074 635 1053 q 624 1115 646 1096 q 570 1123 603 1133 q 540 1074 538 1113 q 586 1003 543 1036 q 700 976 629 971 q 811 1020 771 982 q 838 1094 851 1058 q 786 1124 824 1129 m 581 944 l 581 971 l 233 971 l 233 944 q 358 890 347 944 l 358 211 q 233 163 347 163 l 233 136 l 581 136 l 581 163 q 456 206 467 163 l 456 239 l 939 836 l 939 228 q 814 163 922 163 l 814 136 l 1156 136 l 1156 163 q 1031 228 1036 163 l 1031 900 q 1156 944 1036 944 l 1156 971 l 814 971 l 814 944 q 939 922 917 944 l 939 896 l 456 288 l 456 890 q 581 944 461 944 "},"К":{"ha":1389,"x_min":299,"x_max":1031,"o":"m 493 564 q 621 553 558 564 q 732 516 683 543 q 792 364 781 489 q 824 192 803 239 q 906 135 846 146 q 998 158 965 125 q 1025 236 1031 190 q 1001 317 1019 282 q 974 290 982 353 q 933 222 965 228 q 903 306 900 217 q 873 467 906 396 q 767 556 840 538 q 592 581 694 575 q 765 738 743 613 q 819 884 786 863 q 863 873 851 906 q 915 838 874 840 q 974 866 956 836 q 976 926 993 896 q 922 963 960 956 q 814 933 885 971 q 733 790 743 896 q 657 646 722 683 q 538 592 592 608 l 493 592 l 493 906 q 608 944 494 944 l 608 971 l 299 971 l 299 944 q 407 900 396 943 l 407 217 q 299 168 396 163 l 299 142 l 608 142 l 608 168 q 493 217 506 168 l 493 564 "},"Л":{"ha":1389,"x_min":239,"x_max":1144,"o":"m 618 890 q 667 944 613 944 l 890 944 q 939 896 944 944 l 939 233 q 819 185 933 179 l 819 157 l 1128 157 l 1128 185 q 1025 228 1019 179 l 1025 896 q 1144 944 1036 950 l 1144 971 l 456 971 l 456 944 l 538 944 q 575 896 581 939 q 548 442 575 564 q 488 265 521 319 q 420 190 456 211 q 344 187 385 168 q 340 231 304 206 q 358 290 375 256 q 309 325 342 325 q 258 295 276 325 q 244 231 239 265 q 283 169 250 196 q 372 139 315 142 q 494 201 429 136 q 588 410 558 265 q 618 890 618 554 "},"М":{"ha":1389,"x_min":201,"x_max":1183,"o":"m 1069 900 q 1183 944 1069 943 l 1183 971 l 960 971 l 694 304 l 444 971 l 201 971 l 201 944 q 319 906 319 943 l 319 222 q 201 168 310 168 l 201 142 l 467 142 l 467 168 q 353 222 375 168 l 353 922 l 663 131 l 971 896 l 971 228 q 846 168 976 168 l 846 142 l 1178 142 l 1178 168 q 1069 228 1058 168 l 1069 900 "},"Н":{"ha":1389,"x_min":233,"x_max":1144,"o":"m 358 217 q 233 168 347 168 l 233 142 l 597 142 l 597 168 q 456 211 461 168 l 456 564 l 922 564 l 922 222 q 797 168 911 168 l 797 142 l 1144 142 l 1144 168 q 1014 217 1025 168 l 1014 896 q 1144 944 1025 944 l 1144 971 l 797 971 l 797 944 q 922 890 911 944 l 922 592 l 456 592 l 456 900 q 575 944 461 944 l 575 971 l 233 971 l 233 944 q 358 896 347 944 l 358 217 "},"О":{"ha":1389,"x_min":310,"x_max":1074,"o":"m 960 250 q 1074 538 1074 364 q 990 819 1074 711 q 800 958 906 928 q 589 958 694 988 q 397 819 483 928 q 310 551 310 711 q 410 266 310 390 q 678 139 510 142 q 960 250 846 136 m 407 549 q 472 808 407 711 q 616 933 538 906 q 773 933 694 960 q 914 808 851 906 q 976 551 976 711 q 903 293 976 390 q 763 176 831 196 q 624 176 694 157 q 483 294 553 196 q 407 549 413 392 "},"П":{"ha":1389,"x_min":222,"x_max":1156,"o":"m 222 168 l 222 142 l 575 142 l 575 174 q 450 211 461 168 l 450 890 q 504 944 444 939 l 868 944 q 928 885 933 933 l 928 206 q 781 168 911 168 l 781 142 l 1139 142 l 1139 174 q 1014 206 1019 174 l 1014 896 q 1156 944 1014 933 l 1156 971 l 228 971 l 228 944 q 358 890 353 944 l 358 211 q 222 168 353 163 "},"Р":{"ha":1389,"x_min":293,"x_max":1085,"o":"m 538 553 l 726 553 q 982 600 885 549 q 1082 765 1079 651 q 998 928 1085 879 q 732 971 911 976 l 293 971 l 293 944 q 444 885 444 944 l 444 211 q 304 163 435 157 l 304 136 l 711 136 l 711 163 q 538 217 532 157 l 538 553 m 538 581 l 538 944 l 722 944 q 898 903 819 950 q 958 722 976 857 q 717 581 939 586 l 538 581 "},"С":{"ha":1389,"x_min":342,"x_max":1036,"o":"m 1010 976 l 971 857 q 871 931 911 906 q 778 969 831 956 q 629 966 726 982 q 440 849 532 950 q 344 553 347 749 q 437 252 342 358 q 665 141 532 146 q 881 188 797 136 q 1001 312 965 239 q 1023 388 1036 385 q 969 320 1010 390 q 838 212 928 250 q 651 192 749 174 q 496 301 553 211 q 439 553 439 390 q 524 831 439 717 q 719 936 608 944 q 893 868 831 928 q 1010 646 956 808 l 1031 646 l 1031 971 l 1010 976 "},"Т":{"ha":1389,"x_min":310,"x_max":1074,"o":"m 1058 694 l 1074 694 l 1069 971 l 315 971 l 310 694 l 331 694 q 521 944 336 863 l 646 944 l 646 228 q 489 168 635 168 l 489 142 l 890 142 l 890 168 q 732 228 754 168 l 732 944 l 863 944 q 1058 694 1026 906 "},"У":{"ha":1389,"x_min":271,"x_max":1101,"o":"m 569 944 l 575 971 l 271 971 l 271 944 q 385 900 357 943 l 651 336 q 562 198 597 228 q 480 168 526 168 q 401 222 433 168 q 453 285 450 244 q 417 339 456 325 q 355 328 379 353 q 331 266 331 304 q 372 179 331 228 q 481 133 413 131 q 602 185 549 136 q 965 896 656 233 q 1101 944 988 950 l 1101 971 l 874 971 l 874 944 q 928 900 939 943 l 706 433 l 483 911 q 569 944 450 944 "},"Ф":{"ha":1389,"x_min":233,"x_max":1161,"o":"m 732 244 q 1049 345 938 261 q 1161 562 1161 429 q 1049 776 1161 694 q 732 863 938 857 l 732 900 q 776 944 733 944 l 836 944 l 836 971 l 543 971 l 543 944 l 618 944 q 651 900 657 943 l 651 863 q 326 765 413 840 q 236 559 239 689 q 337 345 233 429 q 651 244 440 261 l 651 206 q 613 163 650 163 l 543 163 l 543 136 l 846 136 l 846 163 l 771 163 q 732 206 732 163 l 732 244 m 732 282 l 732 836 q 966 746 879 819 q 1050 551 1053 672 q 952 356 1047 429 q 732 282 857 282 m 651 288 q 421 372 500 299 q 336 551 342 444 q 413 738 331 657 q 651 831 494 819 l 651 288 "},"Х":{"ha":1389,"x_min":222,"x_max":1161,"o":"m 640 553 l 379 250 q 222 185 319 185 l 222 151 l 538 151 l 538 185 q 439 239 385 185 l 672 510 l 863 244 q 760 185 906 185 l 760 151 l 1161 151 l 1161 185 q 960 293 1046 185 l 743 586 l 928 808 q 1150 933 1036 933 l 1150 960 l 836 960 l 836 933 q 906 857 971 933 l 717 635 l 538 879 q 629 933 493 933 l 629 960 l 261 960 l 261 933 q 424 857 369 933 l 640 553 "},"Ц":{"ha":1389,"x_min":233,"x_max":1144,"o":"m 353 233 q 233 168 347 163 l 233 142 l 988 142 q 1118 -43 1118 119 l 1144 -43 l 1144 163 l 1085 163 q 1014 217 1014 168 l 1014 890 q 1133 950 1014 950 l 1133 976 l 803 976 l 803 950 q 933 890 933 950 l 933 168 l 439 168 l 439 890 q 558 950 439 956 l 558 976 l 244 976 l 244 950 q 353 890 364 950 l 353 233 "},"Ч":{"ha":1389,"x_min":233,"x_max":1144,"o":"m 1010 885 q 1144 944 1004 950 l 1144 971 l 792 971 l 792 944 q 922 879 906 944 l 922 581 q 619 524 765 504 q 456 640 472 543 l 456 885 q 504 944 450 939 l 581 944 l 581 971 l 233 971 l 233 944 l 299 944 q 358 874 353 944 l 358 618 q 407 505 364 543 q 551 458 450 467 q 722 467 651 450 q 922 538 792 483 l 922 228 q 786 168 911 163 l 786 142 l 1139 142 l 1139 168 q 1010 222 1010 163 l 1010 885 "},"Ш":{"ha":1389,"x_min":65,"x_max":1318,"o":"m 792 174 q 743 228 738 179 l 743 896 q 851 939 732 939 l 851 971 l 538 971 l 538 939 q 651 896 635 939 l 651 228 q 575 174 635 179 l 342 174 q 265 228 276 179 l 265 879 q 390 939 276 939 l 390 971 l 65 971 l 65 939 q 174 885 179 939 l 174 222 q 71 168 179 168 l 71 136 l 1307 136 l 1307 168 q 1193 228 1188 168 l 1193 896 q 1318 939 1193 939 l 1318 971 l 976 971 l 976 939 q 1101 896 1090 939 l 1101 233 q 1036 174 1090 179 l 792 174 "},"Щ":{"ha":1389,"x_min":65,"x_max":1297,"o":"m 92 168 l 92 142 l 1053 142 q 1196 98 1144 142 q 1275 -54 1247 54 l 1297 -54 l 1297 163 q 1199 217 1199 157 l 1199 890 q 1297 944 1211 944 l 1297 971 l 1010 971 l 1010 944 q 1113 890 1113 944 l 1113 222 q 1042 174 1113 174 l 797 174 q 732 244 732 168 l 732 900 q 846 944 732 944 l 840 971 l 526 971 l 526 944 q 646 885 646 944 l 646 244 q 581 174 646 174 l 342 174 q 271 222 265 174 l 271 890 q 390 944 276 944 l 390 971 l 65 971 l 65 944 q 179 890 174 944 l 179 233 q 92 168 183 163 "},"Ъ":{"ha":1389,"x_min":222,"x_max":1161,"o":"m 424 142 l 797 142 q 1074 196 988 136 q 1158 361 1161 256 q 1074 526 1156 467 q 792 581 993 586 l 629 581 l 629 890 q 771 944 629 950 l 771 971 l 222 971 l 222 726 l 256 726 q 353 944 250 863 l 478 944 q 543 885 543 944 l 543 217 q 424 168 538 163 l 424 142 m 694 168 q 629 217 635 163 l 629 549 l 781 549 q 1001 497 944 549 q 1061 350 1058 444 q 982 209 1064 256 q 808 168 900 163 l 694 168 "},"Ы":{"ha":1389,"x_min":151,"x_max":1221,"o":"m 271 206 q 157 168 260 168 l 157 142 l 510 142 q 803 190 711 136 q 896 350 896 244 q 809 513 896 456 q 543 564 722 569 l 364 564 l 364 900 q 515 944 364 950 l 515 971 l 151 971 l 151 944 q 271 896 271 944 l 271 206 m 364 217 l 364 538 l 526 538 q 727 485 663 538 q 789 347 792 433 q 716 212 786 261 q 543 168 646 163 l 424 168 q 364 217 364 168 m 1113 900 q 1210 944 1107 943 l 1210 971 l 900 971 l 900 944 q 1019 900 1019 943 l 1019 211 q 885 168 1021 163 l 885 142 l 1221 142 l 1221 168 q 1113 211 1113 163 l 1113 900 "},"Ь":{"ha":1389,"x_min":310,"x_max":1064,"o":"m 526 896 q 667 950 521 950 l 667 976 l 310 976 l 310 950 q 450 900 433 949 l 450 228 q 315 168 451 168 l 315 142 l 717 142 q 982 199 900 136 q 1061 367 1064 261 q 979 529 1058 472 q 726 586 900 586 l 526 586 l 526 896 m 526 168 l 526 558 l 689 558 q 887 510 814 558 q 963 369 960 461 q 906 219 965 276 q 738 168 846 163 l 526 168 "},"Э":{"ha":1389,"x_min":390,"x_max":1019,"o":"m 928 581 l 608 581 l 608 543 l 928 543 q 844 274 928 353 q 670 190 760 196 q 535 215 581 185 q 510 280 489 244 q 508 342 532 315 q 440 358 483 369 q 396 304 396 347 q 431 223 396 261 q 515 165 467 185 q 692 146 564 146 q 919 255 819 146 q 1019 553 1019 364 q 922 851 1019 743 q 706 965 825 960 q 531 944 586 971 q 433 857 476 917 l 418 971 l 390 971 l 390 683 l 418 683 q 502 876 429 814 q 673 933 575 939 q 847 844 771 928 q 928 581 922 760 "},"Ю":{"ha":1389,"x_min":125,"x_max":1253,"o":"m 467 553 q 586 231 483 331 q 871 133 689 131 q 1153 263 1053 136 q 1253 561 1253 390 q 1174 835 1253 732 q 982 963 1096 939 q 754 966 868 988 q 553 841 640 944 q 467 581 467 738 l 310 581 l 310 890 q 407 944 299 950 l 407 971 l 125 971 l 125 944 q 222 890 233 944 l 222 217 q 125 168 222 163 l 125 142 l 407 142 l 407 168 q 310 217 304 163 l 310 553 l 467 553 m 792 168 q 645 263 726 179 q 553 540 564 347 q 627 841 543 732 q 874 944 711 950 q 1101 833 1036 939 q 1169 575 1167 726 q 1099 304 1172 424 q 941 174 1025 185 q 792 168 857 163 "},"Я":{"ha":1389,"x_min":304,"x_max":1058,"o":"m 944 890 q 1042 944 944 950 l 1042 971 l 732 971 q 437 903 521 976 q 361 733 353 831 q 415 581 369 635 q 624 483 461 526 q 526 385 575 433 q 458 263 478 336 q 415 182 439 190 q 374 188 390 174 q 339 242 358 201 q 312 219 319 282 q 340 130 304 157 q 434 108 375 103 q 521 160 493 114 q 553 263 549 206 q 591 380 558 319 q 678 483 624 440 l 857 483 l 857 222 q 738 168 863 163 l 738 142 l 1058 142 l 1058 168 l 999 168 q 944 228 939 163 l 944 890 m 857 515 l 667 515 q 540 564 597 515 q 478 710 483 613 q 521 871 472 808 q 672 944 569 933 l 803 944 q 857 890 857 944 l 857 515 "},"а":{"ha":1389,"x_min":456,"x_max":928,"o":"m 808 558 q 763 678 814 640 q 646 711 711 717 q 537 673 581 706 q 488 605 493 640 q 499 553 483 569 q 537 538 515 538 q 572 551 558 538 q 586 581 586 564 q 575 616 586 597 q 588 651 564 635 q 681 659 613 667 q 749 569 749 651 l 749 489 q 521 399 586 461 q 456 276 456 336 q 491 176 456 217 q 599 136 526 136 q 749 228 672 136 q 825 138 754 142 q 928 276 896 135 l 911 288 q 838 196 868 196 q 808 288 808 196 l 808 558 m 749 265 q 638 192 663 200 q 575 203 613 185 q 538 279 538 222 q 586 385 538 336 q 749 456 635 433 l 749 265 "},"б":{"ha":1389,"x_min":433,"x_max":944,"o":"m 917 956 q 878 931 911 961 q 713 892 846 900 q 513 792 581 885 q 439 510 444 700 q 507 231 433 319 q 694 142 581 142 q 876 223 808 142 q 944 428 944 304 q 874 635 944 553 q 710 717 803 717 q 567 674 618 717 q 499 608 515 631 q 553 773 493 706 q 756 838 613 840 q 917 956 900 836 m 640 174 q 551 253 603 190 q 499 426 499 315 q 548 610 499 538 q 687 683 597 683 q 819 605 776 683 q 863 413 863 526 q 824 242 863 299 q 735 174 786 185 q 640 174 683 163 "},"в":{"ha":1389,"x_min":407,"x_max":988,"o":"m 407 142 l 624 142 q 893 174 831 136 q 972 279 956 211 q 955 401 988 347 q 831 472 922 456 q 950 613 950 504 q 879 747 950 722 q 651 765 808 771 l 407 765 l 407 738 q 483 694 478 738 l 483 211 q 407 168 467 168 l 407 142 m 575 168 l 575 450 l 700 450 q 828 423 776 456 q 874 312 879 390 q 830 203 868 233 q 700 168 792 174 l 575 168 m 575 732 l 706 732 q 833 694 803 738 q 846 562 863 651 q 683 483 829 472 l 575 483 l 575 732 "},"г":{"ha":1389,"x_min":429,"x_max":960,"o":"m 651 678 l 831 678 q 933 521 911 635 l 960 521 l 956 711 l 429 711 l 429 678 q 515 624 499 678 l 515 228 q 439 168 504 168 l 439 142 l 694 142 l 694 174 q 592 206 614 168 l 592 618 q 651 678 603 661 "},"д":{"ha":1389,"x_min":385,"x_max":999,"o":"m 558 640 q 499 206 558 331 q 439 174 482 174 l 385 174 l 385 -37 l 413 -37 q 521 142 418 99 l 846 142 q 976 -37 954 108 l 999 -37 l 999 174 l 933 174 q 885 206 885 168 l 885 635 q 971 678 885 683 l 971 711 l 467 711 l 467 678 q 558 640 558 683 m 803 206 q 749 174 803 168 l 564 174 q 538 206 521 174 q 597 635 586 319 q 635 678 597 678 l 760 678 q 803 624 808 672 l 803 206 "},"е":{"ha":1389,"x_min":450,"x_max":944,"o":"m 944 456 q 892 649 939 592 q 786 724 846 706 q 656 730 726 743 q 518 640 586 717 q 453 428 450 564 q 524 222 456 293 q 697 151 592 151 q 863 203 803 151 q 944 319 922 254 l 911 319 q 838 241 890 276 q 705 214 786 206 q 585 290 624 222 q 553 456 547 358 l 944 456 m 553 493 q 605 642 558 596 q 703 689 651 689 q 797 645 754 689 q 846 493 840 601 l 553 493 "},"ж":{"ha":1389,"x_min":288,"x_max":1081,"o":"m 646 424 l 646 424 l 646 201 q 553 157 635 157 l 553 131 l 825 131 l 825 157 q 732 196 760 153 l 732 424 q 833 374 808 424 q 874 252 857 325 q 923 152 890 179 q 993 128 956 125 q 1056 168 1031 131 q 1069 228 1081 206 q 969 233 993 151 q 895 372 944 315 q 797 433 846 428 q 976 635 928 444 q 1039 653 1025 624 q 1023 703 1053 683 q 966 711 993 722 q 933 676 939 700 q 901 581 928 651 q 835 483 874 510 q 732 450 797 456 l 732 640 q 825 678 749 683 l 825 711 l 553 711 l 553 678 q 646 640 646 683 l 646 450 q 548 483 581 450 q 485 578 515 515 q 450 667 456 640 q 417 706 444 694 q 363 708 390 717 q 333 676 336 700 q 356 632 331 651 q 418 640 381 613 q 569 433 461 450 q 418 266 450 375 q 304 239 386 157 q 315 185 288 228 q 374 133 342 142 q 440 149 407 125 q 494 252 472 174 q 551 377 515 331 q 646 424 586 424 "},"з":{"ha":1389,"x_min":456,"x_max":922,"o":"m 797 439 q 863 485 840 456 q 888 575 885 515 q 844 676 890 635 q 749 722 797 717 q 676 722 700 726 q 616 700 651 717 q 521 629 581 683 l 499 711 l 483 711 l 483 504 l 499 504 q 572 632 510 586 q 692 689 635 678 q 781 662 749 700 q 808 567 814 624 q 762 477 803 510 q 613 450 721 444 l 613 424 q 800 394 760 429 q 835 296 840 358 q 801 198 831 233 q 703 154 771 163 q 591 171 635 146 q 515 239 547 196 q 556 306 569 271 q 505 333 543 342 q 461 290 467 325 q 474 223 456 256 q 537 158 493 190 q 665 119 581 125 q 806 135 749 114 q 890 195 863 157 q 919 288 917 233 q 890 385 922 342 q 797 439 857 428 "},"и":{"ha":1389,"x_min":379,"x_max":1004,"o":"m 549 228 l 846 575 l 846 201 q 771 157 842 157 l 771 131 l 1004 131 l 1004 157 q 922 206 933 157 l 922 635 q 993 683 922 683 l 993 711 l 776 711 l 776 683 q 846 635 851 689 l 549 276 l 549 646 q 603 683 554 683 l 603 711 l 396 711 l 396 683 q 467 635 461 683 l 467 196 q 379 157 461 157 l 379 131 l 629 131 l 629 157 q 549 228 543 146 "},"й":{"ha":1389,"x_min":379,"x_max":999,"o":"m 379 211 l 379 179 l 613 179 l 613 211 q 526 239 521 207 l 846 575 l 846 250 q 754 211 831 211 l 754 179 l 999 179 l 999 211 q 922 250 928 213 l 922 640 q 999 683 928 683 l 999 711 l 771 711 l 771 683 q 846 618 857 683 l 526 276 l 526 646 q 613 683 526 689 l 613 711 l 379 711 l 379 683 q 450 640 433 683 l 450 250 q 379 211 439 206 m 613 819 q 626 871 640 851 q 585 890 613 890 q 551 868 558 890 q 556 819 543 846 q 602 773 569 792 q 689 757 635 754 q 778 776 743 760 q 827 808 814 792 q 838 849 840 825 q 806 882 836 874 q 763 869 776 890 q 771 819 749 847 q 613 819 683 760 "},"к":{"ha":1389,"x_min":385,"x_max":1004,"o":"m 840 672 q 898 615 857 607 q 944 656 939 624 q 923 710 950 689 q 858 719 896 732 q 798 667 819 706 q 752 551 776 629 q 646 472 728 472 l 549 472 l 549 640 q 618 683 547 683 l 618 711 l 385 711 l 385 683 q 472 640 461 683 l 472 206 q 385 157 461 157 l 385 131 l 635 131 l 635 157 q 549 201 560 158 l 549 439 l 657 439 q 735 397 711 424 q 770 256 760 369 q 846 133 781 142 q 947 158 911 125 q 993 244 982 190 q 960 239 1004 299 q 887 179 917 179 q 844 228 857 179 q 812 355 831 276 q 717 456 793 433 q 784 548 765 483 q 840 672 803 613 "},"л":{"ha":1389,"x_min":375,"x_max":999,"o":"m 608 319 l 624 640 q 663 678 625 678 l 792 678 q 836 635 836 678 l 836 190 q 765 157 819 157 l 765 131 l 988 131 l 988 157 q 911 206 922 157 l 911 635 q 999 683 913 683 l 999 711 l 493 711 l 493 683 q 586 640 592 689 l 569 293 q 467 174 543 168 q 467 231 489 206 q 415 244 444 256 q 380 212 385 233 q 383 168 375 190 q 412 138 390 146 q 480 136 433 131 q 562 176 526 142 q 608 319 597 211 "},"м":{"ha":1389,"x_min":331,"x_max":1047,"o":"m 418 185 q 347 157 407 157 l 347 131 l 526 131 l 526 157 q 450 185 461 157 l 450 592 l 672 114 l 900 624 l 900 206 q 831 157 907 151 l 831 131 l 1047 131 l 1047 157 q 976 211 982 163 l 976 651 q 1031 683 976 683 l 1031 711 l 900 711 l 694 244 l 472 711 l 331 711 l 331 683 q 418 640 418 683 l 418 185 "},"н":{"ha":1389,"x_min":336,"x_max":1053,"o":"m 950 586 q 1053 629 961 629 l 1053 663 l 765 663 l 765 629 q 868 592 857 629 l 868 379 l 515 379 l 515 586 q 618 629 526 629 l 618 663 l 336 663 l 336 629 q 433 586 422 629 l 433 136 q 336 86 422 86 l 336 54 l 618 54 l 618 86 q 515 136 526 86 l 515 342 l 868 342 l 868 136 q 765 86 857 86 l 765 54 l 1053 54 l 1053 86 q 950 131 961 86 l 950 586 "},"о":{"ha":1389,"x_min":424,"x_max":950,"o":"m 944 424 q 882 630 944 560 q 751 716 819 700 q 618 713 683 732 q 488 616 553 694 q 426 413 424 538 q 494 201 429 288 q 683 117 558 114 q 879 203 808 119 q 944 424 950 288 m 640 151 q 553 222 597 168 q 504 401 510 276 q 553 608 499 526 q 690 689 608 689 q 819 610 771 689 q 865 418 868 532 q 827 239 863 304 q 738 154 792 174 q 640 151 683 135 "},"п":{"ha":1389,"x_min":379,"x_max":1004,"o":"m 526 640 q 564 678 526 672 l 803 678 q 840 635 840 678 l 840 196 q 760 163 831 157 l 760 131 l 988 131 l 988 163 q 917 206 922 163 l 917 635 q 1004 678 913 678 l 1004 711 l 379 711 l 379 678 q 450 629 439 678 l 450 201 q 379 163 439 163 l 379 131 l 613 131 l 613 163 q 526 201 538 164 l 526 640 "},"р":{"ha":1389,"x_min":413,"x_max":993,"o":"m 592 228 q 760 128 674 119 q 917 203 846 136 q 990 410 988 271 q 933 630 993 549 q 781 722 874 711 q 592 651 689 733 l 592 700 l 569 700 l 429 672 l 429 651 q 491 644 472 651 q 515 608 510 636 l 515 32 q 472 -6 515 -6 l 413 -6 l 413 -37 l 700 -37 l 700 -6 l 629 -6 q 592 32 592 -6 l 592 228 m 592 265 l 592 624 q 784 678 722 700 q 876 581 846 657 q 901 385 906 504 q 852 217 896 265 q 741 171 808 168 q 592 265 674 174 "},"с":{"ha":1389,"x_min":450,"x_max":933,"o":"m 879 276 q 811 195 857 233 q 689 163 765 157 q 569 244 613 168 q 532 442 526 319 q 605 632 538 564 q 740 692 672 700 q 835 648 808 683 q 838 597 863 613 q 822 545 814 581 q 863 510 831 510 q 912 529 896 510 q 919 597 928 549 q 868 681 911 646 q 774 727 825 717 q 654 722 722 738 q 518 627 586 706 q 450 421 450 549 q 507 215 450 293 q 653 122 564 136 q 808 144 743 108 q 903 252 874 179 q 920 325 933 325 q 879 276 907 325 "},"т":{"ha":1389,"x_min":424,"x_max":960,"o":"m 651 608 l 651 211 q 549 163 640 163 l 549 131 l 819 131 l 819 163 q 722 217 733 163 l 722 678 l 792 678 q 933 515 906 646 l 960 515 l 960 711 l 424 711 l 424 521 l 450 521 q 581 678 467 646 l 651 678 l 651 608 "},"у":{"ha":1389,"x_min":331,"x_max":1047,"o":"m 640 71 l 960 700 q 1047 722 965 722 l 1047 749 l 819 749 l 819 722 q 911 689 928 721 l 711 288 l 526 689 q 608 717 517 717 l 608 743 l 331 743 l 331 717 q 433 683 417 715 l 663 201 q 494 -67 538 -60 q 418 -37 450 -75 q 458 16 467 -17 q 423 51 450 49 q 377 38 396 54 q 361 -10 358 22 q 380 -67 364 -43 q 437 -106 396 -92 q 524 -95 478 -119 q 640 71 569 -71 "},"ф":{"ha":1389,"x_min":299,"x_max":1069,"o":"m 651 646 q 521 725 597 728 q 372 635 444 722 q 301 426 299 549 q 369 215 304 304 q 504 117 433 125 q 651 201 575 110 l 651 43 q 608 6 651 6 l 564 6 l 564 -28 l 825 -28 l 825 6 l 771 6 q 732 38 732 6 l 732 206 q 876 117 803 114 q 1007 203 950 119 q 1067 423 1064 288 q 1001 638 1069 558 q 863 724 933 717 q 732 646 792 732 l 732 1004 l 711 1004 l 564 982 l 564 960 q 651 922 651 960 l 651 646 m 651 250 q 526 152 586 158 q 437 228 467 146 q 404 437 407 310 q 442 632 401 564 q 546 687 483 700 q 651 597 608 674 l 651 250 m 732 256 l 732 597 q 843 694 781 689 q 938 619 906 700 q 963 385 971 538 q 917 182 956 233 q 824 160 879 131 q 732 256 769 190 "},"х":{"ha":1389,"x_min":347,"x_max":1031,"o":"m 1014 683 l 1014 711 l 808 711 l 808 683 q 857 657 885 689 l 711 489 l 592 640 q 651 683 549 689 l 651 711 l 364 711 l 364 678 q 483 651 467 683 l 651 429 l 456 201 q 347 157 418 151 l 347 131 l 569 131 l 569 157 q 489 185 451 153 l 678 396 l 825 201 q 781 157 867 157 l 781 131 l 1031 131 l 1031 163 q 933 201 965 158 l 732 461 l 900 646 q 1014 683 932 689 "},"ц":{"ha":1389,"x_min":369,"x_max":1010,"o":"m 988 -49 l 1010 -49 l 1010 151 q 911 211 906 146 l 911 646 q 982 678 922 678 l 982 711 l 749 711 l 749 678 q 836 640 831 678 l 836 211 q 765 163 836 168 l 597 163 q 532 211 526 168 l 532 629 q 613 678 531 678 l 613 711 l 369 711 l 369 678 q 456 629 444 678 l 456 211 q 385 163 444 163 l 385 131 l 819 131 q 988 -49 965 119 "},"ч":{"ha":1389,"x_min":385,"x_max":999,"o":"m 840 450 q 659 415 749 422 q 548 456 569 407 q 532 694 526 504 q 592 732 554 732 l 592 765 l 385 765 l 385 732 q 456 689 450 732 q 485 401 450 450 q 615 364 521 353 q 840 424 710 375 l 840 217 q 743 163 840 157 l 743 131 l 999 131 l 999 163 q 928 222 922 157 l 928 689 q 988 738 928 738 l 988 765 l 771 765 l 771 738 q 840 689 840 738 l 840 450 "},"ш":{"ha":1389,"x_min":206,"x_max":1178,"o":"m 825 174 q 738 233 728 168 l 738 651 q 814 694 765 694 l 814 722 l 592 722 l 592 694 q 663 651 651 694 l 663 239 q 575 174 667 168 l 450 174 q 385 239 385 179 l 385 657 q 456 694 413 694 l 456 722 l 211 722 l 211 694 q 310 640 304 700 l 310 222 q 206 168 297 163 l 206 142 l 521 142 l 874 142 l 1178 142 l 1178 168 q 1107 206 1118 168 l 1107 640 q 1178 694 1118 694 l 1178 722 l 944 722 l 944 694 q 1031 640 1003 694 l 1031 239 q 939 174 1031 168 l 825 174 "},"щ":{"ha":1389,"x_min":201,"x_max":1188,"o":"m 797 163 q 732 222 726 168 l 732 640 q 803 678 760 678 l 803 711 l 581 711 l 581 678 q 657 640 629 678 l 657 217 q 586 163 657 174 l 429 163 q 369 211 364 163 l 369 624 q 450 678 374 678 l 450 711 l 201 711 l 201 678 q 288 624 288 678 l 288 206 q 201 157 272 157 l 201 131 l 965 131 q 1161 -49 1139 131 l 1188 -49 l 1183 151 q 1096 217 1090 146 l 1096 629 q 1183 678 1092 683 l 1183 711 l 939 711 l 939 678 q 1019 618 1019 683 l 1019 228 q 965 163 1025 168 l 797 163 "},"ъ":{"ha":1389,"x_min":336,"x_max":1047,"o":"m 489 131 l 760 131 q 969 163 896 125 q 1044 288 1042 201 q 977 418 1047 375 q 771 456 907 461 l 651 456 l 651 640 q 722 683 663 689 l 722 711 l 342 711 l 336 521 l 364 521 q 461 678 375 650 l 526 678 q 575 624 569 672 l 575 196 q 489 157 575 157 l 489 131 m 651 211 l 651 424 l 765 424 q 906 394 857 424 q 950 285 956 364 q 898 184 944 206 q 786 163 851 163 l 706 163 q 651 211 646 163 "},"ы":{"ha":1389,"x_min":288,"x_max":1090,"o":"m 288 157 l 288 131 l 575 131 q 781 171 726 131 q 831 295 836 211 q 757 417 825 379 q 586 444 689 456 l 456 444 l 456 635 q 526 683 472 683 l 526 711 l 304 711 l 304 683 q 379 635 368 683 l 379 211 q 288 157 369 157 m 456 168 l 456 413 l 564 413 q 689 394 629 418 q 749 296 749 369 q 692 192 749 222 q 569 168 635 163 l 456 168 m 1079 683 l 1079 711 l 846 711 l 846 683 q 922 624 911 683 l 922 206 q 846 157 911 157 l 846 131 l 1090 131 l 1090 157 q 999 206 1004 157 l 999 624 q 1079 683 1003 683 "},"ь":{"ha":1389,"x_min":418,"x_max":965,"o":"m 515 201 q 429 157 504 158 l 429 131 l 657 131 q 908 168 851 125 q 963 293 965 211 q 890 410 960 375 q 749 439 819 444 l 592 439 l 592 635 q 678 678 596 678 l 678 711 l 418 711 l 418 678 q 515 635 504 678 l 515 201 m 592 163 l 592 407 l 694 407 q 828 388 776 413 q 882 296 879 364 q 847 195 885 228 q 706 163 808 163 l 592 163 "},"э":{"ha":1389,"x_min":444,"x_max":933,"o":"m 851 413 q 781 204 840 267 q 640 150 722 142 q 499 244 558 158 q 538 283 538 256 q 515 323 538 310 q 474 326 493 336 q 450 288 456 315 q 469 226 444 261 q 542 152 493 190 q 686 117 592 114 q 857 206 781 119 q 933 426 933 293 q 865 638 933 558 q 724 722 797 717 q 599 699 651 726 q 499 613 547 672 l 493 711 l 467 717 l 456 493 l 478 493 q 600 659 549 618 q 708 689 651 700 q 808 615 765 678 q 851 450 851 553 l 640 450 l 640 413 l 851 413 "},"ю":{"ha":1389,"x_min":293,"x_max":1090,"o":"m 575 407 q 654 190 592 261 q 831 117 717 119 q 1017 201 944 114 q 1090 418 1090 288 q 1031 622 1090 549 q 901 716 971 694 q 751 716 831 738 q 626 618 672 694 q 575 439 581 542 l 444 439 l 444 629 q 515 683 444 683 l 515 711 l 299 711 l 299 683 q 369 629 364 683 l 369 206 q 293 163 364 163 l 293 131 l 526 131 l 526 163 q 444 201 444 164 l 444 407 l 575 407 m 781 151 q 697 231 738 168 q 654 407 657 293 q 694 608 651 521 q 819 700 738 694 q 957 622 900 706 q 1014 421 1014 538 q 965 231 1014 304 q 870 149 917 157 q 781 151 824 140 "},"я":{"ha":1389,"x_min":369,"x_max":993,"o":"m 906 629 q 976 683 906 683 l 976 711 l 754 711 q 553 665 608 717 q 501 553 499 613 q 537 467 504 493 q 629 429 569 440 q 538 274 549 390 q 488 168 526 157 q 410 217 450 179 q 388 217 369 256 q 445 141 407 179 q 540 108 483 103 q 608 174 597 114 q 627 317 618 233 q 722 418 636 401 l 840 418 l 840 196 q 754 146 831 146 l 754 119 l 993 119 l 993 146 q 906 201 917 147 l 906 629 m 840 450 l 738 450 q 624 474 667 444 q 581 553 581 504 q 610 640 581 603 q 726 678 640 678 l 840 678 l 840 450 "},"ё":{"ha":1389,"x_min":439,"x_max":933,"o":"m 646 781 q 638 814 646 803 q 613 831 629 825 q 583 831 597 836 q 561 814 569 825 q 553 784 553 803 q 567 754 553 765 q 597 743 581 743 q 629 753 613 743 q 646 781 646 764 m 840 781 q 835 814 840 803 q 814 831 831 825 q 781 831 797 836 q 757 814 765 825 q 749 784 749 803 q 763 754 749 765 q 795 743 776 743 q 827 753 814 743 q 840 781 840 764 m 933 429 q 882 630 928 571 q 776 706 836 689 q 646 708 717 722 q 507 619 575 694 q 442 402 439 543 q 513 190 444 261 q 686 119 581 119 q 854 171 792 119 q 933 288 917 222 l 900 288 q 828 212 879 250 q 694 182 776 174 q 575 261 613 190 q 543 429 538 332 l 933 429 m 543 472 q 594 621 549 575 q 692 669 640 667 q 787 626 743 672 q 836 472 831 581 l 543 472 "},"‐":{"ha":1389,"x_min":521,"x_max":896,"o":"m 896 450 l 896 543 l 521 543 l 521 450 l 896 450 "},"–":{"ha":1389,"x_min":439,"x_max":960,"o":"m 960 532 l 439 532 l 439 467 l 960 467 l 960 532 "},"—":{"ha":1389,"x_min":0,"x_max":1383,"o":"m 1383 526 l 0 526 l 0 472 l 1383 472 l 1383 526 "},"―":{"ha":1389,"x_min":179,"x_max":1204,"o":"m 1204 532 l 179 532 l 179 467 l 1204 467 l 1204 532 "},"‖":{"ha":1389,"x_min":538,"x_max":846,"o":"m 592 1079 l 538 1079 l 538 -86 l 592 -86 l 592 1079 m 846 1079 l 792 1079 l 792 -86 l 846 -86 l 846 1079 "},"‘":{"ha":324,"x_min":71,"x_max":263,"o":"m 71 556 l 239 556 l 239 736 l 178 736 l 263 926 l 178 926 l 71 717 l 71 556 "},"’":{"ha":324,"x_min":60,"x_max":251,"o":"m 251 926 l 83 926 l 83 746 l 144 746 l 60 556 l 144 556 l 251 765 l 251 926 "},"‚":{"ha":694,"x_min":76,"x_max":276,"o":"m 76 -97 l 76 -125 q 228 -32 179 -92 q 276 95 276 28 q 241 201 276 163 q 165 239 206 239 q 101 217 125 239 q 76 160 76 196 q 95 106 76 125 q 138 86 114 86 q 184 94 163 86 q 217 90 206 103 q 225 47 228 76 q 185 -29 222 17 q 76 -97 147 -75 "},"“":{"ha":594,"x_min":71,"x_max":533,"o":"m 71 556 l 239 556 l 239 736 l 178 736 l 263 926 l 178 926 l 71 717 l 71 556 m 342 556 l 510 556 l 510 736 l 449 736 l 533 926 l 449 926 l 342 717 l 342 556 "},"”":{"ha":594,"x_min":60,"x_max":521,"o":"m 251 926 l 83 926 l 83 746 l 144 746 l 60 556 l 144 556 l 251 765 l 251 926 m 521 926 l 353 926 l 353 746 l 414 746 l 329 556 l 414 556 l 521 765 l 521 926 "},"„":{"ha":694,"x_min":43,"x_max":575,"o":"m 76 -82 l 76 -108 q 209 -27 163 -86 q 256 97 256 32 q 217 201 256 163 q 138 239 179 239 q 70 215 97 239 q 43 160 43 190 q 65 108 43 131 q 108 86 86 86 q 144 92 131 86 q 174 90 157 97 q 190 52 190 82 q 169 -11 190 22 q 76 -82 147 -44 m 401 -82 l 401 -108 q 532 -22 489 -82 q 575 100 575 38 q 540 201 575 163 q 464 239 504 239 q 397 217 424 239 q 369 163 369 196 q 391 108 369 131 q 431 86 413 86 q 467 92 450 86 q 499 90 483 97 q 515 49 515 82 q 488 -17 515 17 q 401 -82 461 -50 "},"†":{"ha":694,"x_min":71,"x_max":624,"o":"m 319 -179 l 347 -179 q 350 81 347 -43 q 367 325 353 206 q 424 553 381 444 q 374 616 390 581 q 358 711 358 651 q 461 689 413 706 q 556 657 526 657 q 605 676 586 657 q 624 724 624 694 q 605 773 624 754 q 562 792 586 792 q 524 786 538 792 q 456 759 510 781 q 358 738 401 738 q 383 840 358 781 q 413 925 407 900 q 418 977 418 950 q 397 1031 418 1004 q 345 1058 375 1058 q 293 1034 315 1058 q 272 966 271 1010 q 304 836 272 922 q 331 738 319 797 q 239 754 282 738 q 168 789 179 786 q 133 792 157 792 q 90 773 108 792 q 71 724 71 754 q 90 676 71 694 q 138 657 108 657 q 239 689 168 657 q 331 711 288 706 q 312 613 325 646 q 261 553 299 581 q 307 325 300 444 q 317 81 315 206 q 319 -179 319 -43 "},"‡":{"ha":694,"x_min":92,"x_max":603,"o":"m 358 765 q 404 763 390 765 q 461 741 418 760 q 534 722 504 722 q 583 738 564 722 q 603 781 603 754 q 583 824 603 808 q 534 840 564 840 q 461 822 504 840 q 404 797 418 803 q 358 792 390 792 q 385 895 364 846 q 410 958 407 944 q 413 1001 413 971 q 394 1050 413 1031 q 347 1069 375 1069 q 298 1047 319 1069 q 276 1001 276 1025 q 298 919 276 976 q 325 841 319 863 q 331 792 331 819 q 233 819 282 797 q 158 840 185 840 q 111 824 131 840 q 92 781 92 808 q 111 738 92 754 q 160 722 131 722 q 236 741 190 722 q 331 765 282 760 q 311 701 325 722 q 265 651 297 679 q 320 551 310 597 q 331 429 331 506 q 314 312 331 364 q 265 222 297 260 q 315 174 304 196 q 331 108 325 151 q 231 135 271 119 q 160 151 190 151 q 114 135 131 151 q 97 92 97 119 q 114 49 97 65 q 158 32 131 32 q 225 51 185 32 q 331 82 265 71 q 306 -19 325 32 q 285 -108 288 -71 q 301 -168 282 -146 q 344 -190 319 -190 q 388 -171 369 -190 q 410 -111 407 -151 q 394 -30 413 -71 q 358 82 375 11 q 467 51 424 71 q 537 32 510 32 q 583 49 564 32 q 603 92 603 65 q 583 135 603 119 q 534 152 564 151 q 444 131 504 153 q 358 103 413 114 q 378 168 364 146 q 424 222 392 190 q 374 317 390 271 q 358 433 358 363 q 375 553 358 503 q 424 651 392 603 q 377 700 390 678 q 358 765 364 722 "},"•":{"ha":694,"x_min":174,"x_max":515,"o":"m 342 722 q 222 673 271 722 q 174 553 174 624 q 222 434 174 483 q 342 385 271 385 q 464 433 413 385 q 515 553 515 482 q 464 673 515 624 q 342 722 413 722 "},"‥":{"ha":1389,"x_min":336,"x_max":1058,"o":"m 375 413 q 478 409 418 385 q 535 499 538 433 q 481 588 532 564 q 383 585 429 613 q 337 501 336 558 q 375 413 338 444 m 896 413 q 999 409 939 385 q 1056 499 1058 433 q 1001 588 1053 564 q 903 585 950 613 q 858 501 857 558 q 896 413 858 444 "},"…":{"ha":1389,"x_min":142,"x_max":1247,"o":"m 635 407 q 740 404 689 379 q 797 489 792 429 q 749 583 803 549 q 640 585 694 618 q 586 494 586 553 q 635 407 586 435 m 1079 407 q 1185 404 1133 379 q 1242 489 1238 429 q 1193 583 1247 549 q 1085 585 1139 618 q 1031 494 1031 553 q 1079 407 1031 435 m 190 407 q 296 404 244 379 q 353 489 347 429 q 304 583 358 549 q 196 585 250 618 q 142 494 142 553 q 190 407 142 435 "},"‰":{"ha":1389,"x_min":97,"x_max":1307,"o":"m 765 439 q 649 442 711 467 q 559 353 586 418 q 532 206 532 288 q 562 57 532 125 q 649 -30 592 -11 q 757 -30 706 -49 q 835 57 808 -11 q 863 209 863 125 q 844 352 863 293 q 765 439 825 411 m 776 60 q 703 6 754 6 q 624 60 651 6 q 597 212 597 114 q 624 361 597 310 q 703 413 651 413 q 776 361 754 413 q 798 212 797 310 q 776 60 799 114 m 163 -17 l 956 1047 l 917 1074 l 125 11 l 163 -17 m 1210 439 q 1093 442 1156 467 q 1003 353 1031 418 q 976 206 976 288 q 1006 57 976 125 q 1093 -30 1036 -11 q 1201 -30 1150 -49 q 1280 57 1253 -11 q 1307 209 1307 125 q 1288 352 1307 293 q 1210 439 1269 411 m 1221 60 q 1147 6 1199 6 q 1069 60 1096 6 q 1042 212 1042 114 q 1069 361 1042 310 q 1147 413 1096 413 q 1221 361 1199 413 q 1243 212 1243 310 q 1221 60 1243 114 m 331 1010 q 214 1013 276 1038 q 124 922 151 988 q 97 776 97 857 q 127 626 97 694 q 214 540 157 558 q 323 540 271 521 q 402 626 375 558 q 429 778 429 694 q 410 922 429 863 q 331 1010 390 982 m 342 629 q 268 575 319 575 q 190 629 217 575 q 163 781 163 683 q 190 931 163 879 q 268 982 217 982 q 342 931 319 982 q 364 781 364 879 q 342 629 364 683 "},"′":{"ha":1389,"x_min":250,"x_max":440,"o":"m 424 1004 q 413 1063 440 1053 q 360 1063 385 1074 q 331 1006 336 1053 q 288 781 325 960 q 250 589 250 603 q 260 589 250 575 q 342 779 271 603 q 424 1004 413 956 "},"″":{"ha":1389,"x_min":256,"x_max":689,"o":"m 667 976 q 659 1042 689 1019 q 605 1053 629 1064 q 572 996 581 1042 q 521 787 564 950 q 478 610 478 624 q 488 610 478 597 q 574 778 499 624 q 667 976 650 933 m 418 1004 q 405 1063 440 1047 q 353 1066 369 1079 q 331 1006 336 1053 q 290 800 325 960 q 258 629 256 640 q 272 638 261 618 q 342 809 282 657 q 418 1004 401 961 "},"‵":{"ha":1389,"x_min":558,"x_max":743,"o":"m 743 700 q 681 1028 694 976 q 632 1085 667 1079 q 578 1063 597 1090 q 581 990 558 1036 q 717 694 603 944 l 743 700 "},"‹":{"ha":694,"x_min":82,"x_max":379,"o":"m 379 97 l 217 418 l 379 738 l 342 738 l 82 418 l 342 97 l 379 97 "},"›":{"ha":694,"x_min":76,"x_max":385,"o":"m 76 738 l 244 418 l 76 97 l 119 97 l 385 418 l 119 738 l 76 738 "},"※":{"ha":1389,"x_min":174,"x_max":1221,"o":"m 603 119 q 651 198 608 179 q 740 195 694 217 q 786 119 786 174 q 740 41 786 65 q 649 41 694 17 q 603 119 603 65 m 222 988 l 174 950 l 651 510 l 185 54 l 228 17 l 694 467 l 1178 6 l 1221 49 l 732 510 l 1210 960 l 1161 999 l 694 553 l 222 988 m 211 499 q 260 578 217 558 q 350 575 304 597 q 396 499 396 553 q 350 420 396 444 q 258 420 304 396 q 211 499 211 444 m 603 900 q 651 979 608 960 q 740 977 694 999 q 786 901 786 956 q 740 822 786 846 q 649 822 694 797 q 603 900 603 846 m 999 499 q 1047 578 1004 558 q 1137 575 1090 597 q 1183 499 1183 553 q 1137 420 1183 444 q 1044 420 1090 396 q 999 499 999 444 "},"₣":{"ha":1350,"x_min":83,"x_max":1313,"o":"m 747 547 l 279 547 l 279 597 q 360 739 282 707 q 536 761 399 758 l 832 761 l 832 926 l 511 926 q 259 888 349 926 q 122 757 169 849 q 83 483 85 692 l 83 0 l 279 0 l 279 382 l 747 382 l 747 547 m 832 547 l 832 0 l 1004 0 l 1004 424 l 1046 424 q 1126 403 1106 424 q 1147 329 1147 383 l 1147 294 l 1313 294 l 1313 351 q 1263 506 1313 464 q 1078 547 1214 547 l 832 547 "},"€":{"ha":694,"x_min":0,"x_max":689,"o":"m 592 526 l 608 581 l 206 581 q 439 911 254 911 q 640 694 624 911 l 667 694 l 667 896 q 439 956 553 956 q 193 849 282 956 q 82 581 104 743 l 17 581 l 0 526 l 76 526 l 76 450 l 17 450 l 0 396 l 76 396 q 151 125 81 228 q 396 0 239 0 q 564 49 499 0 q 689 196 629 99 l 667 211 q 559 95 608 131 q 424 60 510 60 q 250 179 310 60 q 201 396 207 265 l 558 396 l 575 450 l 201 450 l 201 526 l 592 526 "},"℃":{"ha":1389,"x_min":158,"x_max":1199,"o":"m 1144 917 l 1144 851 q 1044 928 1107 890 q 892 985 982 965 q 694 972 803 1004 q 497 806 586 939 q 418 467 407 672 q 524 142 429 261 q 754 6 618 22 q 993 43 890 -11 q 1147 165 1096 97 q 1191 249 1199 233 q 1131 203 1183 265 q 982 98 1079 142 q 771 73 885 54 q 586 201 657 92 q 513 499 515 310 q 586 800 510 689 q 792 933 663 911 q 1022 890 922 956 q 1144 722 1122 825 l 1144 624 l 1188 624 l 1188 917 l 1144 917 m 190 971 q 160 885 158 939 q 195 801 163 831 q 276 768 228 771 q 360 792 325 765 q 404 868 396 819 q 394 955 413 917 q 334 1006 375 993 q 260 1011 293 1019 q 190 971 228 1003 m 325 819 q 255 817 293 803 q 211 879 217 831 q 244 955 206 928 q 317 966 282 982 q 355 896 353 950 q 325 819 357 842 "},"℅":{"ha":1389,"x_min":228,"x_max":1128,"o":"m 732 265 q 740 95 704 163 q 817 14 776 28 q 901 3 857 0 q 1001 44 944 6 q 1093 185 1058 82 q 1112 353 1128 288 q 1058 448 1096 418 q 963 481 1019 478 q 833 428 906 483 q 732 265 760 374 m 831 54 q 803 144 808 76 q 830 293 797 211 q 903 407 863 375 q 972 444 944 439 q 1034 426 999 450 q 1072 339 1069 401 q 1042 198 1074 276 q 977 87 1010 119 q 901 43 944 54 q 831 54 858 32 m 868 1036 l 439 -37 l 504 -37 l 928 1036 l 868 1036 m 558 575 q 474 548 504 547 q 399 567 444 549 q 339 646 353 586 q 358 790 325 706 q 434 917 390 874 q 518 952 478 960 q 542 903 558 944 q 567 847 526 863 q 633 865 608 831 q 624 944 657 900 q 515 1001 592 988 q 369 960 439 1014 q 263 819 299 906 q 242 642 228 732 q 317 518 256 553 q 442 488 379 483 q 569 558 504 493 l 558 575 "},"℉":{"ha":1389,"x_min":103,"x_max":1178,"o":"m 846 608 l 657 608 l 657 917 q 722 993 657 999 l 944 993 q 1150 797 1079 965 l 1178 797 l 1156 1025 l 401 1025 l 401 993 q 564 933 558 999 l 564 151 q 450 97 547 97 l 450 65 l 771 65 l 771 97 q 657 151 668 103 l 657 575 l 840 575 q 928 433 917 564 l 960 433 l 960 738 l 928 738 q 846 608 917 619 m 385 874 q 372 966 396 928 q 301 1017 347 1004 q 217 1025 256 1031 q 141 985 179 1019 q 103 890 103 950 q 141 798 103 831 q 236 763 179 765 q 336 790 293 760 q 385 874 379 819 m 211 814 q 160 882 168 831 q 195 960 151 933 q 285 969 239 988 q 331 898 331 950 q 292 822 331 846 q 211 814 254 797 "},"№":{"ha":1389,"x_min":92,"x_max":1269,"o":"m 97 956 l 97 917 q 201 831 201 922 l 201 201 q 92 119 200 125 l 92 82 l 369 82 l 369 119 q 256 206 256 119 l 256 836 l 726 76 l 771 76 l 771 863 q 868 911 771 911 l 868 950 l 608 950 l 608 911 q 717 857 717 911 l 717 271 l 288 956 l 97 956 m 1269 151 l 868 151 l 868 76 l 1269 76 l 1269 151 m 1128 683 q 1012 687 1074 711 q 920 597 950 663 q 890 451 890 532 q 923 304 890 369 q 1013 217 956 239 q 1121 217 1069 196 q 1202 304 1172 239 q 1232 453 1232 369 q 1210 597 1232 538 q 1128 683 1188 656 m 1139 304 q 1065 250 1117 250 q 987 304 1014 250 q 960 456 960 358 q 987 605 960 553 q 1066 657 1014 657 q 1140 605 1118 657 q 1161 456 1161 553 q 1139 304 1161 358 "},"℡":{"ha":1389,"x_min":239,"x_max":1139,"o":"m 944 803 l 944 1010 q 988 1031 939 1036 l 988 1053 l 851 1053 l 851 1031 q 896 1010 901 1038 l 896 803 q 851 771 900 771 l 851 754 l 1107 754 l 1139 840 l 1124 840 q 1053 776 1081 771 l 999 776 q 944 803 939 771 m 786 982 l 786 982 l 797 982 l 792 1053 l 553 1053 l 553 1031 q 592 1014 597 1036 l 592 803 q 553 771 596 765 l 553 754 l 803 754 l 825 831 l 808 836 q 749 776 786 771 l 672 776 q 640 803 635 771 l 640 900 l 738 900 q 760 857 754 900 l 776 857 l 776 965 l 760 965 q 738 922 754 917 l 640 922 l 640 1031 l 743 1031 q 786 982 764 1036 m 396 797 l 396 1010 q 424 1031 392 1031 l 472 1031 q 499 988 488 1031 l 515 988 l 510 1053 l 244 1053 l 239 988 l 250 988 q 293 1025 261 1025 l 331 1025 q 347 1010 353 1026 l 347 797 q 304 771 353 776 l 304 754 l 444 754 l 444 771 q 396 797 396 769 "},"™":{"ha":694,"x_min":0,"x_max":694,"o":"m 265 1031 l 6 1031 l 0 896 l 17 896 q 44 966 28 944 q 82 988 60 988 l 108 988 l 108 597 q 103 526 108 543 q 71 504 99 510 l 71 483 l 206 483 l 206 504 q 176 524 185 510 q 168 597 168 538 l 168 988 l 190 988 q 233 966 222 988 q 250 896 244 944 l 271 896 l 265 1031 m 493 646 l 401 1031 l 304 1031 l 304 1004 q 328 999 319 1004 q 336 979 336 993 q 336 911 336 965 l 336 597 q 336 535 336 549 q 328 513 336 521 q 299 504 321 504 l 299 483 l 413 483 l 413 504 q 374 513 379 504 q 367 535 369 521 q 364 597 364 549 l 364 922 l 472 483 l 483 483 l 592 928 l 592 597 q 589 537 592 553 q 578 515 586 521 q 553 504 569 510 l 553 483 l 694 483 l 694 504 q 662 524 667 510 q 657 597 657 538 l 657 911 q 657 974 657 960 q 665 996 657 988 q 694 1004 672 1004 l 694 1031 l 586 1031 l 493 646 "},"Ω":{"ha":925,"x_min":33,"x_max":893,"o":"m 39 0 l 413 0 l 413 163 q 240 476 240 251 q 308 689 240 604 q 463 769 374 769 q 617 690 553 769 q 686 475 686 604 q 624 261 686 354 q 514 163 583 199 l 514 0 l 888 0 l 888 176 l 696 176 q 846 321 799 240 q 893 513 893 401 q 757 832 893 701 q 463 949 636 949 q 169 832 292 949 q 33 513 33 701 q 107 282 33 376 q 231 176 150 226 l 39 176 l 39 0 "},"Ⅰ":{"ha":1389,"x_min":504,"x_max":885,"o":"m 749 922 q 885 993 743 993 l 885 1019 l 504 1019 l 504 993 q 640 922 640 993 l 640 60 q 504 -6 650 -11 l 504 -32 l 885 -32 l 885 -6 q 749 60 743 -11 l 749 922 "},"Ⅱ":{"ha":1389,"x_min":293,"x_max":1101,"o":"m 538 933 q 657 993 538 993 l 657 1019 l 293 1019 l 293 993 q 429 928 435 993 l 429 60 q 293 0 435 -6 l 293 -28 l 657 -28 l 657 0 q 538 60 532 0 l 538 933 m 965 933 q 1101 993 960 993 l 1101 1019 l 738 1019 l 738 993 q 857 933 868 999 l 857 60 q 738 0 863 -6 l 738 -28 l 1101 -28 l 1101 0 q 965 60 960 -6 l 965 933 "},"Ⅲ":{"ha":1389,"x_min":49,"x_max":1335,"o":"m 293 939 q 433 993 286 993 l 433 1019 l 49 1019 l 49 993 q 185 939 190 993 l 185 54 q 49 0 179 -6 l 49 -28 l 433 -28 l 433 0 q 293 60 286 -6 l 293 939 m 1193 939 q 1335 993 1193 999 l 1335 1019 l 944 1019 l 944 993 q 1085 939 1085 993 l 1085 54 q 944 0 1086 -6 l 944 -28 l 1335 -28 l 1335 0 q 1193 54 1193 -6 l 1193 939 m 743 939 q 890 993 732 993 l 890 1019 l 489 1019 l 489 993 q 635 933 635 993 l 635 43 q 489 0 635 -6 l 489 -28 l 890 -28 l 890 0 q 743 49 743 0 l 743 939 "},"Ⅳ":{"ha":1389,"x_min":108,"x_max":1281,"o":"m 1281 993 l 1281 1019 l 1047 1019 l 1047 993 q 1133 928 1150 999 l 911 49 l 672 939 q 771 993 646 999 l 771 1019 l 461 1019 l 461 993 q 564 956 553 999 l 836 -28 l 928 -28 l 1178 933 q 1281 993 1189 993 m 353 933 q 456 993 347 993 l 456 1019 l 136 1019 l 136 993 q 244 933 250 999 l 244 60 q 108 0 250 0 l 108 -28 l 493 -28 l 493 0 q 353 60 347 -6 l 353 933 "},"Ⅴ":{"ha":1389,"x_min":211,"x_max":1172,"o":"m 1172 993 l 1172 1019 l 851 1019 l 851 993 q 988 944 993 993 l 717 108 l 456 939 q 549 993 440 988 l 549 1019 l 211 1019 l 211 993 q 342 944 331 993 l 651 -28 l 722 -28 l 1031 944 q 1172 993 1042 988 "},"Ⅵ":{"ha":1389,"x_min":60,"x_max":1297,"o":"m 1139 944 q 1297 993 1128 993 l 1297 1019 l 922 1019 l 922 993 q 1031 950 1031 993 l 1031 54 q 863 0 1031 -6 l 863 -28 l 1297 -28 l 1297 0 q 1139 54 1139 0 l 1139 944 m 917 993 l 917 1019 l 651 1019 l 651 993 q 765 960 771 988 l 538 65 l 515 65 l 299 950 q 413 993 288 993 l 413 1019 l 60 1019 l 60 993 q 196 939 185 988 l 444 -28 l 558 -28 l 814 965 q 917 993 819 993 "},"Ⅶ":{"ha":1389,"x_min":60,"x_max":1318,"o":"m 950 950 q 1036 993 944 999 l 1036 1019 l 781 1019 l 781 993 q 851 950 856 999 l 851 49 q 743 0 857 0 l 743 -28 l 1036 -28 l 1036 0 q 950 43 944 -6 l 950 950 m 1232 944 q 1318 993 1226 999 l 1318 1019 l 1042 1019 l 1042 993 q 1133 944 1139 993 l 1133 49 q 1042 0 1144 0 l 1042 -28 l 1318 -28 l 1318 -6 q 1232 43 1226 -6 l 1232 944 m 786 993 l 786 1019 l 575 1019 l 575 993 q 667 950 672 993 l 467 65 l 456 65 l 261 950 q 353 993 256 993 l 353 1019 l 60 1019 l 60 993 q 163 950 157 993 l 385 -28 l 489 -28 l 711 950 q 786 993 715 993 "},"Ⅷ":{"ha":1389,"x_min":49,"x_max":1329,"o":"m 846 956 q 900 993 846 993 l 900 1019 l 700 1019 l 700 993 q 749 956 760 993 l 749 49 q 657 0 760 -6 l 657 -28 l 911 -28 l 911 0 q 846 49 846 0 l 846 956 m 1058 956 q 1118 993 1053 993 l 1118 1019 l 906 1019 l 906 993 q 960 956 971 999 l 960 43 q 917 0 971 -6 l 917 -28 l 1118 -28 l 1118 0 q 1058 43 1053 -6 l 1058 956 m 1269 956 q 1329 993 1258 999 l 1329 1019 l 1124 1019 l 1124 993 q 1172 956 1178 993 l 1172 49 q 1124 0 1178 -6 l 1124 -28 l 1329 -28 l 1329 0 q 1269 43 1258 -6 l 1269 956 m 694 993 l 694 1019 l 521 1019 l 521 993 q 586 956 592 993 l 413 65 l 407 65 l 233 956 q 288 993 222 989 l 288 1019 l 49 1019 l 49 993 q 131 956 125 988 l 331 -28 l 439 -28 l 640 956 q 694 993 646 994 "},"Ⅸ":{"ha":1389,"x_min":103,"x_max":1292,"o":"m 717 -6 q 629 38 614 0 l 851 424 l 1074 38 q 976 -6 1096 -6 l 976 -32 l 1292 -32 l 1292 -6 q 1188 32 1219 0 l 906 515 l 1161 956 q 1292 993 1189 994 l 1292 1019 l 1010 1019 l 1010 993 q 1113 960 1124 992 l 885 558 l 678 944 q 776 993 651 993 l 776 1019 l 489 1019 l 489 993 q 564 960 536 997 l 825 467 l 581 32 q 493 -6 558 -6 l 493 -32 l 717 -32 l 717 -6 m 347 944 q 467 993 336 993 l 467 1019 l 103 1019 l 103 993 q 239 939 250 993 l 239 43 q 103 -6 249 -6 l 103 -32 l 467 -32 l 467 -6 q 347 38 336 -6 l 347 944 "},"Ⅹ":{"ha":1389,"x_min":239,"x_max":1156,"o":"m 538 0 q 429 32 418 6 l 672 429 l 896 32 q 792 0 900 -6 l 792 -28 l 1156 -28 l 1156 0 q 1004 38 1026 0 l 726 521 l 999 956 q 1124 993 1021 994 l 1124 1019 l 836 1019 l 836 993 q 939 933 967 993 l 706 564 l 493 956 q 603 993 489 989 l 603 1019 l 239 1019 l 239 993 q 390 939 358 988 l 646 467 l 401 60 q 256 0 364 6 l 256 -28 l 538 -28 l 538 0 "},"Ⅺ":{"ha":1389,"x_min":119,"x_max":1281,"o":"m 1161 939 q 1281 993 1150 993 l 1281 1019 l 956 1019 l 956 993 q 1058 944 1058 993 l 1058 38 q 956 0 1058 0 l 956 -28 l 1275 -28 l 1275 0 q 1161 38 1161 0 l 1161 939 m 358 0 q 276 38 261 -6 l 515 439 l 726 43 q 635 0 726 -6 l 635 -28 l 928 -28 l 928 0 q 846 32 863 -6 l 575 532 l 836 956 q 928 993 857 994 l 928 1019 l 717 1019 l 717 993 q 786 944 808 993 l 558 569 l 353 956 q 450 993 336 994 l 450 1019 l 125 1019 l 125 993 q 233 960 217 992 l 493 483 l 228 32 q 119 0 211 0 l 119 -28 l 358 -28 l 358 0 "},"Ⅻ":{"ha":1389,"x_min":54,"x_max":1329,"o":"m 1010 956 q 1074 993 1004 993 l 1074 1019 l 836 1019 l 836 993 q 900 956 906 993 l 900 28 q 836 -6 907 -11 l 836 -32 l 1074 -32 l 1074 -6 q 1010 28 1004 -4 l 1010 956 m 1253 950 q 1324 993 1247 993 l 1324 1019 l 1079 1019 l 1079 993 q 1144 956 1150 993 l 1144 28 q 1079 -6 1150 -6 l 1079 -32 l 1329 -32 l 1329 -6 q 1253 38 1247 -6 l 1253 950 m 293 -6 q 206 17 196 -6 l 429 424 l 624 38 q 553 -6 644 -11 l 553 -32 l 814 -32 l 814 -6 q 743 17 765 -6 l 489 521 l 738 960 q 814 993 754 993 l 814 1019 l 624 1019 l 624 993 q 694 960 706 992 l 472 564 l 276 956 q 375 993 256 994 l 375 1019 l 54 1019 l 54 993 q 163 956 146 993 l 407 467 l 163 17 q 54 -6 146 -6 l 54 -32 l 293 -32 l 293 -6 "},"ⅰ":{"ha":1389,"x_min":543,"x_max":911,"o":"m 672 885 q 748 887 710 868 q 783 952 786 906 q 746 1015 781 999 q 670 1012 711 1031 q 632 947 629 993 q 672 885 635 901 m 776 168 l 776 706 l 564 706 l 564 678 q 683 635 694 678 l 683 179 q 543 114 694 114 l 543 86 l 911 86 l 911 114 q 776 168 776 114 "},"ⅱ":{"ha":1389,"x_min":310,"x_max":1096,"o":"m 429 885 q 505 887 467 868 q 543 949 543 906 q 505 1012 543 993 q 426 1009 467 1031 q 388 944 385 988 q 429 885 392 901 m 538 163 l 538 706 l 319 706 l 319 678 q 444 635 450 678 l 444 174 q 310 114 451 114 l 310 86 l 667 86 l 667 114 q 538 163 532 108 m 857 879 q 933 884 894 863 q 971 947 971 906 q 933 1009 971 988 q 855 1012 896 1031 q 817 947 814 993 q 857 879 819 901 m 965 163 l 965 706 l 749 706 l 749 678 q 874 635 879 678 l 874 174 q 738 114 879 114 l 738 86 l 1096 86 l 1096 114 q 965 163 960 108 "},"ⅲ":{"ha":1389,"x_min":54,"x_max":1329,"o":"m 196 874 q 269 879 233 863 q 307 936 304 896 q 272 998 310 976 q 192 998 233 1019 q 155 933 151 976 q 196 874 158 890 m 304 163 l 304 700 l 86 700 l 86 672 q 211 624 217 672 l 211 174 q 54 108 217 108 l 54 82 l 433 82 l 433 108 q 304 163 297 108 m 663 879 q 738 881 700 863 q 776 944 776 900 q 738 1006 776 988 q 659 1001 700 1025 q 624 936 618 976 q 663 879 631 896 m 749 163 l 749 700 l 532 700 l 532 672 q 657 629 663 672 l 657 174 q 521 108 663 108 l 521 82 l 879 82 l 879 108 q 749 163 743 103 m 1085 879 q 1160 881 1122 863 q 1199 944 1199 900 q 1161 1009 1199 988 q 1083 1009 1124 1031 q 1044 942 1042 988 q 1085 879 1047 896 m 1183 163 l 1183 700 l 965 700 l 965 672 q 1090 635 1096 672 l 1090 168 q 956 108 1097 108 l 956 82 l 1329 82 l 1329 108 q 1183 163 1178 108 "},"ⅳ":{"ha":1389,"x_min":157,"x_max":1247,"o":"m 1247 678 l 1247 678 l 1247 706 l 1019 706 l 1019 678 q 1101 635 1113 683 l 906 222 l 722 618 q 797 678 689 678 l 797 706 l 515 706 l 515 678 q 624 613 581 683 l 879 82 l 1144 640 q 1247 678 1161 683 m 276 885 q 355 892 319 874 q 390 952 390 911 q 353 1012 390 993 q 274 1012 315 1031 q 236 947 233 993 q 276 885 239 901 m 385 168 l 385 706 l 168 706 l 168 678 q 293 618 299 678 l 293 168 q 157 114 299 114 l 157 86 l 515 86 l 515 114 q 385 168 379 108 "},"ⅴ":{"ha":1389,"x_min":276,"x_max":1010,"o":"m 1010 683 l 1010 683 l 1010 711 l 781 711 l 781 683 q 863 635 867 689 l 667 228 l 483 624 q 558 683 450 683 l 558 711 l 276 711 l 276 683 q 385 613 342 689 l 640 86 l 906 640 q 1010 683 928 683 "},"ⅵ":{"ha":1389,"x_min":146,"x_max":1238,"o":"m 879 678 l 879 678 l 879 706 l 651 706 l 651 678 q 726 629 732 683 l 538 217 l 358 613 q 429 678 321 683 l 429 706 l 146 706 l 146 678 q 256 608 224 679 l 510 82 l 776 640 q 879 678 797 683 m 1019 885 q 1095 887 1057 868 q 1133 947 1133 906 q 1096 1009 1133 988 q 1020 1012 1058 1031 q 985 947 982 993 q 1019 885 988 901 m 1133 168 l 1133 706 l 922 706 l 922 672 q 1042 618 1047 667 l 1042 179 q 911 114 1047 114 l 911 86 l 1238 86 l 1238 114 q 1133 168 1128 114 "},"ⅶ":{"ha":1389,"x_min":54,"x_max":1329,"o":"m 754 683 l 754 683 l 754 711 l 543 711 l 543 683 q 613 635 618 683 l 433 239 l 265 624 q 331 683 233 689 l 331 711 l 54 711 l 54 683 q 168 613 131 689 l 407 86 l 657 640 q 754 683 672 683 m 1113 885 q 1185 887 1150 868 q 1221 947 1221 906 q 1185 1006 1221 988 q 1112 1009 1150 1025 q 1074 947 1074 993 q 1113 885 1075 901 m 1215 168 l 1215 711 l 1019 711 l 1019 683 q 1128 635 1133 683 l 1128 179 q 1042 114 1133 119 l 1042 86 l 1329 86 l 1329 114 q 1215 168 1210 114 m 960 168 l 960 711 l 776 711 l 776 683 q 874 613 879 683 l 874 179 q 749 114 879 114 l 749 86 l 1042 86 l 1042 114 q 960 168 954 114 m 851 885 q 924 887 889 868 q 960 947 960 906 q 925 1006 960 988 q 852 1009 890 1025 q 814 947 814 993 q 851 885 814 901 "},"ⅷ":{"ha":1389,"x_min":54,"x_max":1329,"o":"m 646 700 l 646 700 l 646 726 l 483 726 l 483 700 q 549 657 549 700 l 385 256 l 239 640 q 299 700 213 706 l 299 726 l 54 726 l 54 700 q 146 629 124 700 l 364 103 l 586 657 q 646 700 597 706 m 922 896 q 984 898 954 885 q 1014 949 1014 911 q 985 1003 1014 988 q 923 1003 956 1019 q 892 950 890 988 q 922 896 894 913 m 1014 179 l 1014 726 l 857 726 l 857 700 q 933 646 939 700 l 933 190 q 868 131 939 136 l 868 103 l 1090 103 l 1090 131 q 1014 179 1008 131 m 803 185 l 803 726 l 667 726 l 667 700 q 726 657 732 700 l 726 196 q 618 131 732 125 l 618 103 l 868 103 l 868 131 q 803 185 797 131 m 1150 896 q 1210 898 1182 885 q 1238 947 1238 911 q 1208 1001 1238 982 q 1145 1003 1178 1019 q 1115 947 1113 988 q 1150 896 1118 907 m 1238 185 l 1238 726 l 1079 726 l 1079 700 q 1156 651 1161 700 l 1156 190 q 1090 131 1161 131 l 1090 103 l 1329 103 l 1329 131 q 1238 185 1238 131 m 700 896 q 756 898 732 885 q 783 947 781 911 q 756 1001 786 982 q 694 1003 726 1019 q 665 947 663 988 q 700 896 668 907 "},"ⅸ":{"ha":1389,"x_min":119,"x_max":1275,"o":"m 776 86 l 776 114 q 706 151 678 108 l 890 353 l 1031 151 q 956 114 1042 108 l 956 86 l 1275 86 l 1275 114 q 1113 190 1172 108 l 944 413 l 1144 646 q 1269 678 1172 678 l 1269 706 l 1014 706 l 1014 678 q 1101 646 1096 678 l 922 439 l 786 635 q 851 678 765 678 l 851 706 l 553 706 l 553 678 q 694 618 640 678 l 868 379 l 667 163 q 526 114 603 108 l 526 86 l 776 86 m 239 885 q 315 887 276 868 q 353 947 353 906 q 315 1006 353 988 q 236 1006 276 1025 q 199 944 196 988 q 239 885 201 901 m 347 163 l 347 706 l 131 706 l 131 678 q 256 624 261 678 l 256 174 q 119 114 261 119 l 119 86 l 478 86 l 478 114 q 347 163 342 114 "},"ⅹ":{"ha":1389,"x_min":336,"x_max":1085,"o":"m 586 86 l 586 114 q 521 157 489 108 l 700 353 l 840 157 q 765 114 851 108 l 765 86 l 1085 86 l 1085 114 q 922 196 993 110 l 754 413 l 960 646 q 1079 678 1003 678 l 1079 706 l 825 706 l 825 678 q 900 635 906 678 l 738 444 l 597 629 q 663 678 576 678 l 663 706 l 364 706 l 364 678 q 499 618 450 672 l 678 379 l 483 168 q 336 114 413 108 l 336 86 l 586 86 "},"←":{"ha":1389,"x_min":114,"x_max":1269,"o":"m 1269 526 l 489 526 l 581 651 l 581 667 l 114 499 l 581 325 l 581 342 l 489 461 l 1269 461 l 1269 526 "},"↑":{"ha":1389,"x_min":521,"x_max":863,"o":"m 722 -76 l 722 694 l 846 603 l 863 603 l 700 1069 l 521 608 l 538 608 l 657 694 l 657 -76 l 722 -76 "},"→":{"ha":1389,"x_min":114,"x_max":1275,"o":"m 114 461 l 900 461 l 808 336 l 808 319 l 1275 493 l 808 667 l 808 651 l 900 526 l 114 526 l 114 461 "},"↓":{"ha":1389,"x_min":515,"x_max":857,"o":"m 657 1069 l 657 288 l 532 379 l 515 379 l 694 -86 l 857 379 l 840 379 l 722 288 l 722 1069 l 657 1069 "},"↖":{"ha":1389,"x_min":211,"x_max":1161,"o":"m 364 754 l 1118 11 l 1161 60 l 401 797 l 603 831 l 603 846 l 233 922 q 217 906 211 928 l 304 543 l 319 543 l 364 754 "},"↗":{"ha":1389,"x_min":201,"x_max":1107,"o":"m 933 781 l 201 38 l 250 -6 l 976 738 l 1010 543 l 1025 543 l 1101 911 q 1085 928 1107 933 l 722 840 l 722 825 l 933 781 "},"↘":{"ha":1389,"x_min":196,"x_max":1107,"o":"m 965 233 l 239 960 l 196 922 l 922 196 l 722 163 l 717 146 l 1085 60 q 1101 82 1107 54 l 1019 444 l 1004 444 l 965 233 "},"↙":{"ha":1389,"x_min":200,"x_max":1118,"o":"m 375 131 l 1118 868 l 1074 911 l 336 168 l 310 390 l 293 390 l 206 6 q 222 -11 200 -17 l 581 76 l 581 92 l 375 131 "},"∂":{"ha":694,"x_min":24,"x_max":667,"o":"m 81 765 q 238 735 174 756 q 334 694 301 713 q 400 644 367 676 q 428 612 418 626 q 472 538 438 597 q 394 587 431 574 q 303 600 357 600 q 101 514 182 600 q 24 304 24 429 q 76 124 24 204 q 167 35 113 69 q 342 -12 243 -12 q 607 125 515 -12 q 667 363 667 215 q 549 721 667 579 q 338 869 463 822 q 104 922 238 907 l 81 765 m 347 450 q 438 414 400 449 q 483 300 483 372 q 436 185 483 229 q 343 149 394 149 q 247 190 288 149 q 203 299 203 233 q 253 415 203 372 q 347 450 294 450 "},"∆":{"ha":901,"x_min":11,"x_max":890,"o":"m 11 0 l 890 0 l 556 926 l 344 926 l 11 0 m 271 176 l 451 711 l 626 176 l 271 176 "},"∈":{"ha":1389,"x_min":261,"x_max":1118,"o":"m 1118 868 l 608 868 q 356 770 450 868 q 261 496 261 672 q 356 222 261 319 q 608 125 451 125 l 1118 125 l 1118 190 l 646 190 q 413 263 483 190 q 336 467 342 336 l 1118 467 l 1118 532 l 336 532 q 413 733 342 663 q 646 803 483 803 l 1118 803 l 1118 868 "},"∏":{"ha":1389,"x_min":151,"x_max":1232,"o":"m 1232 999 l 151 999 l 151 944 l 206 944 q 319 792 319 943 l 319 97 q 179 28 321 22 l 179 -28 l 532 -28 l 532 28 q 407 97 407 26 l 407 840 q 515 944 407 944 l 851 944 q 976 836 976 944 l 976 97 q 846 28 976 22 l 846 -28 l 1210 -28 l 1210 28 q 1064 103 1064 21 l 1064 797 q 1178 944 1064 944 l 1232 944 l 1232 999 "},"∑":{"ha":1389,"x_min":211,"x_max":1113,"o":"m 874 54 l 364 54 l 678 461 l 364 944 l 846 944 q 1096 749 993 944 l 1113 749 l 1058 999 l 211 999 l 581 433 l 222 -32 l 1064 -32 l 1113 211 l 1096 211 q 874 54 999 54 "},"−":{"ha":776,"x_min":50,"x_max":724,"o":"m 50 549 l 50 397 l 724 397 l 724 549 l 50 549 "},"∕":{"ha":1389,"x_min":353,"x_max":971,"o":"m 917 1118 l 353 -103 l 407 -125 l 971 1096 l 917 1118 "},"∙":{"ha":311,"x_min":71,"x_max":239,"o":"m 239 553 l 71 553 l 71 374 l 239 374 l 239 553 "},"√":{"ha":1389,"x_min":396,"x_max":1090,"o":"m 1090 976 l 1036 1014 l 760 168 l 538 450 l 396 310 l 424 282 l 504 364 l 771 -6 l 1090 976 "},"∝":{"ha":1389,"x_min":151,"x_max":1221,"o":"m 743 553 q 624 656 672 624 q 510 703 575 689 q 374 706 444 717 q 231 646 304 694 q 154 510 157 597 q 238 364 151 424 q 439 304 325 304 q 629 350 553 304 q 743 456 706 396 q 968 315 846 336 q 1221 347 1090 293 l 1215 375 q 1056 358 1124 358 q 920 388 988 358 q 776 504 853 418 q 901 605 836 575 q 1047 649 965 635 q 1210 646 1128 663 l 1221 667 q 1003 694 1156 722 q 743 553 851 667 m 706 504 q 553 374 635 401 q 391 361 472 347 q 260 421 310 375 q 219 521 211 467 q 285 616 228 575 q 428 662 342 657 q 592 613 515 667 q 706 504 668 558 "},"∞":{"ha":1389,"x_min":157,"x_max":1232,"o":"m 689 569 q 534 681 607 656 q 388 703 461 706 q 236 643 315 700 q 160 485 157 586 q 239 333 163 385 q 404 282 315 282 q 567 317 493 282 q 689 433 640 351 q 922 290 781 297 q 1148 336 1064 282 q 1232 491 1232 390 q 1153 649 1232 592 q 974 706 1074 706 q 806 670 874 706 q 689 569 738 635 m 722 499 q 844 619 771 581 q 993 649 917 657 q 1115 594 1069 640 q 1161 502 1161 549 q 1123 410 1161 456 q 1003 353 1085 364 q 849 372 922 342 q 722 499 776 401 m 657 499 q 529 369 603 396 q 380 350 456 342 q 266 401 304 358 q 228 491 228 444 q 272 583 228 538 q 388 640 315 629 q 535 613 461 651 q 657 499 608 575 "},"∟":{"ha":1389,"x_min":206,"x_max":1215,"o":"m 206 71 l 1215 71 l 1215 125 l 265 125 l 265 982 l 206 982 l 206 71 "},"∠":{"ha":1389,"x_min":174,"x_max":1253,"o":"m 1253 939 l 1215 982 l 174 -6 l 1172 -6 l 1172 49 l 310 49 l 1253 939 "},"∣":{"ha":1389,"x_min":646,"x_max":706,"o":"m 706 1124 l 646 1124 l 646 -131 l 706 -131 l 706 1124 "},"∥":{"ha":1389,"x_min":211,"x_max":1167,"o":"m 765 960 l 717 988 l 211 32 l 261 6 l 765 960 m 1167 960 l 1118 988 l 608 28 l 663 6 l 1167 960 "},"∧":{"ha":1389,"x_min":190,"x_max":1199,"o":"m 706 1058 l 694 1058 l 190 -37 l 233 -65 l 700 939 l 1144 -71 l 1199 -49 l 706 1058 "},"∨":{"ha":1389,"x_min":174,"x_max":1215,"o":"m 694 -65 l 711 -65 l 1215 976 l 1167 999 l 700 49 l 217 1004 l 174 976 l 694 -65 "},"∩":{"ha":1389,"x_min":310,"x_max":1074,"o":"m 1074 65 l 1074 629 q 965 844 1074 760 q 692 928 857 928 q 418 844 526 928 q 310 608 310 760 l 310 65 l 375 65 l 375 608 q 456 790 375 717 q 692 863 538 863 q 928 789 846 863 q 1010 624 1010 715 l 1010 65 l 1074 65 "},"∪":{"ha":1389,"x_min":310,"x_max":1064,"o":"m 310 917 l 310 364 q 418 149 310 233 q 686 65 526 65 q 955 149 846 65 q 1064 385 1064 233 l 1064 917 l 999 917 l 999 385 q 917 203 999 276 q 687 131 836 131 q 456 204 538 131 q 375 369 375 278 l 375 917 l 310 917 "},"∫":{"ha":1389,"x_min":418,"x_max":999,"o":"m 717 933 q 681 767 689 863 q 672 567 672 672 q 662 356 672 461 q 632 119 651 250 q 558 -6 613 -11 q 521 30 504 0 q 508 78 538 60 q 448 78 478 97 q 424 27 418 60 q 461 -33 429 -6 q 578 -49 493 -60 q 687 95 663 -37 q 722 336 711 228 q 732 558 732 444 q 738 762 732 672 q 770 919 743 851 q 841 1001 797 988 q 890 998 885 1014 q 890 958 896 982 q 909 915 885 933 q 966 915 933 896 q 988 976 999 933 q 925 1042 976 1019 q 809 1037 874 1064 q 717 933 744 1010 "},"∮":{"ha":1389,"x_min":429,"x_max":976,"o":"m 683 711 q 518 622 569 700 q 480 461 467 543 q 548 333 493 379 q 663 282 603 288 q 619 51 640 92 q 567 6 597 11 q 543 33 538 0 q 513 78 549 65 q 453 65 478 92 q 445 5 429 38 q 497 -38 461 -28 q 567 -46 532 -49 q 640 -8 603 -43 q 694 103 678 28 q 722 276 711 179 q 917 388 863 293 q 933 586 971 483 q 743 711 894 689 q 749 849 743 786 q 767 955 754 911 q 816 1015 781 999 q 874 1015 851 1031 q 879 969 896 999 q 895 919 863 939 q 952 922 928 900 q 971 974 976 944 q 949 1023 965 1004 q 901 1056 933 1042 q 827 1064 868 1069 q 749 1023 786 1058 q 697 912 711 988 q 683 711 683 836 m 726 336 q 743 657 738 499 q 874 556 851 640 q 857 410 896 472 q 726 336 818 347 m 667 336 q 539 507 531 385 q 683 657 547 629 q 667 336 672 478 "},"∴":{"ha":1389,"x_min":250,"x_max":1144,"o":"m 401 49 q 483 147 467 65 q 431 272 499 228 q 307 272 364 315 q 250 168 250 228 q 293 70 250 108 q 401 49 336 32 m 1047 49 q 1128 147 1113 65 q 1077 272 1144 228 q 953 272 1010 315 q 896 168 896 228 q 939 70 896 108 q 1047 49 982 32 m 722 711 q 803 809 788 728 q 751 933 819 890 q 626 933 683 976 q 569 831 569 890 q 613 733 569 771 q 722 711 657 694 "},"∵":{"ha":1389,"x_min":250,"x_max":1144,"o":"m 722 43 q 803 141 788 60 q 751 266 819 222 q 626 266 683 310 q 569 163 569 222 q 613 65 569 103 q 722 43 657 26 m 401 711 q 483 809 467 728 q 431 933 499 890 q 307 933 364 976 q 250 831 250 890 q 293 733 250 771 q 401 711 336 694 m 1047 711 q 1128 809 1113 728 q 1077 933 1144 890 q 953 933 1010 976 q 896 831 896 890 q 939 733 896 771 q 1047 711 982 694 "},"∶":{"ha":1389,"x_min":586,"x_max":792,"o":"m 726 71 q 783 155 781 99 q 740 241 786 211 q 643 247 694 271 q 589 165 592 222 q 629 76 586 108 q 726 71 672 43 m 732 749 q 789 833 786 776 q 746 917 792 890 q 649 922 700 944 q 594 843 597 900 q 635 756 592 786 q 732 749 678 726 "},"∷":{"ha":1389,"x_min":250,"x_max":1129,"o":"m 450 836 q 404 923 450 896 q 310 923 358 950 q 258 833 261 896 q 307 741 256 771 q 407 744 358 711 q 450 836 456 776 m 1124 836 q 1077 923 1124 896 q 982 923 1031 950 q 931 833 933 896 q 979 741 928 771 q 1080 744 1031 711 q 1124 836 1129 776 m 444 163 q 399 249 444 222 q 304 249 353 276 q 253 160 256 222 q 301 67 250 97 q 401 70 353 38 q 444 163 450 103 m 1124 168 q 1077 255 1124 228 q 982 255 1031 282 q 931 165 933 228 q 979 73 928 103 q 1080 76 1031 43 q 1124 168 1129 108 "},"∽":{"ha":1389,"x_min":151,"x_max":1226,"o":"m 396 657 l 396 711 q 222 651 293 711 q 151 505 151 592 q 219 358 151 418 q 393 299 288 299 q 564 344 499 299 q 676 453 629 390 q 784 581 722 515 q 944 651 846 646 q 1104 610 1042 657 q 1158 499 1167 564 q 1093 393 1150 433 q 976 353 1036 353 l 976 299 q 1145 356 1069 299 q 1224 502 1221 413 q 1150 651 1226 592 q 960 708 1074 711 q 778 654 846 706 q 667 538 711 603 q 556 413 624 472 q 407 353 489 353 q 271 396 325 353 q 217 504 217 439 q 271 613 217 569 q 396 657 325 657 "},"≈":{"ha":1389,"x_min":157,"x_max":1232,"o":"m 1232 379 l 1232 444 q 1052 317 1133 358 q 892 303 971 276 q 686 404 814 331 q 474 494 558 478 q 315 475 390 510 q 157 358 239 440 l 157 293 q 366 437 288 413 q 531 423 444 461 q 713 325 618 385 q 903 247 808 265 q 1085 271 999 228 q 1232 379 1172 314 m 1232 640 l 1232 706 q 1052 578 1133 618 q 892 565 971 538 q 686 665 814 592 q 474 754 558 738 q 315 735 390 771 q 157 618 239 700 l 157 553 q 366 697 288 672 q 531 684 444 722 q 713 586 618 646 q 903 508 808 526 q 1085 532 999 489 q 1232 640 1172 575 "},"≌":{"ha":1389,"x_min":157,"x_max":1232,"o":"m 1226 108 l 157 108 l 157 54 l 1226 54 l 1226 108 m 401 803 l 401 857 q 228 797 299 857 q 157 651 157 738 q 225 504 157 564 q 399 444 293 444 q 569 491 504 444 q 681 600 635 538 q 789 727 726 663 q 949 797 851 792 q 1110 757 1047 803 q 1164 646 1172 711 q 1099 540 1156 581 q 982 499 1042 499 l 982 444 q 1150 501 1074 444 q 1229 648 1226 558 q 1156 797 1232 738 q 965 854 1079 857 q 784 800 851 851 q 673 683 717 749 q 561 558 629 618 q 412 499 493 499 q 276 542 331 499 q 222 651 222 586 q 276 760 222 717 q 401 803 331 803 m 1232 347 l 163 347 l 163 293 l 1232 293 l 1232 347 "},"≒":{"ha":1389,"x_min":261,"x_max":1128,"o":"m 261 407 l 1128 407 l 1128 461 l 261 461 l 261 407 m 261 597 l 1128 597 l 1128 651 l 261 651 l 261 597 m 424 846 q 385 917 429 894 q 303 917 342 939 q 265 849 265 896 q 303 784 265 803 q 383 784 342 765 q 424 846 424 803 m 1113 217 q 1074 288 1118 265 q 993 288 1031 310 q 956 219 956 265 q 993 155 956 174 q 1072 155 1031 136 q 1113 217 1113 174 "},"≠":{"ha":1389,"x_min":151,"x_max":1232,"o":"m 1036 960 l 988 982 l 776 672 l 151 672 l 151 618 l 743 618 l 581 375 l 151 375 l 151 319 l 543 319 l 358 43 l 407 22 l 608 319 l 1232 319 l 1232 375 l 646 375 l 808 618 l 1232 618 l 1232 672 l 840 672 l 1036 960 "},"≡":{"ha":1389,"x_min":157,"x_max":1232,"o":"m 1232 526 l 157 526 l 157 472 l 1232 472 l 1232 526 m 1232 749 l 157 749 l 157 694 l 1232 694 l 1232 749 m 1232 304 l 157 304 l 157 250 l 1232 250 l 1232 304 "},"≤":{"ha":1389,"x_min":151,"x_max":1232,"o":"m 1232 28 l 168 385 l 151 336 l 1215 -22 l 1232 28 m 1232 965 l 1210 1014 l 151 657 l 151 629 l 1215 265 l 1232 315 l 276 640 l 1232 965 "},"≥":{"ha":1389,"x_min":190,"x_max":1238,"o":"m 228 -11 l 1238 336 l 1221 385 l 211 43 l 228 -11 m 190 353 l 211 299 l 1232 635 l 1232 663 l 222 1019 l 201 971 l 1113 651 l 190 353 "},"≦":{"ha":1389,"x_min":250,"x_max":1118,"o":"m 265 136 l 1118 136 l 1118 190 l 265 190 l 265 136 m 265 331 l 1118 331 l 1118 385 l 265 385 l 265 331 m 250 706 l 1113 489 l 1113 553 l 424 717 l 1101 868 l 1101 928 l 250 726 l 250 706 "},"≧":{"ha":1389,"x_min":256,"x_max":1128,"o":"m 256 119 l 1128 119 l 1128 174 l 256 174 l 256 119 m 256 299 l 1128 299 l 1128 353 l 256 353 l 256 299 m 1128 689 l 271 928 l 271 868 l 976 678 l 256 526 l 256 467 l 1128 663 l 1128 689 "},"≮":{"ha":1389,"x_min":151,"x_max":1232,"o":"m 1232 825 l 1232 874 l 672 683 l 672 1042 l 618 1042 l 618 667 l 151 510 l 151 478 l 618 319 l 618 -37 l 672 -37 l 672 304 l 1226 114 l 1226 174 l 672 364 l 672 635 l 1232 825 m 618 624 l 618 375 l 244 493 l 618 624 "},"≯":{"ha":1389,"x_min":157,"x_max":1232,"o":"m 157 174 l 157 119 l 711 310 l 711 -43 l 765 -43 l 765 325 l 1232 483 l 1232 521 l 765 672 l 765 1031 l 711 1031 l 711 689 l 163 879 l 163 819 l 711 635 l 711 364 l 157 174 m 765 379 l 765 618 l 1139 499 l 765 379 "},"⊕":{"ha":1389,"x_min":364,"x_max":1069,"o":"m 726 131 q 968 231 878 136 q 1064 469 1058 325 q 974 719 1069 613 q 727 828 879 825 q 469 724 575 831 q 369 461 364 618 q 475 215 375 304 q 726 131 575 125 m 515 256 q 431 462 433 332 q 516 686 429 592 q 730 773 603 781 q 931 676 857 765 q 999 472 1004 586 q 919 274 993 358 q 722 188 846 190 q 515 256 597 185 m 689 510 l 467 510 l 467 450 l 689 450 l 689 233 l 754 233 l 754 450 l 971 450 l 971 510 l 754 510 l 754 717 l 689 717 l 689 510 "},"⊙":{"ha":1389,"x_min":151,"x_max":1226,"o":"m 276 146 q 540 -19 390 21 q 844 -19 689 -60 q 1107 152 999 22 q 1221 480 1215 282 q 1120 814 1226 678 q 865 999 1014 950 q 553 1006 717 1047 q 271 824 390 965 q 160 477 151 683 q 276 146 168 271 m 1161 510 q 1066 203 1167 331 q 833 38 965 76 q 565 33 700 0 q 323 190 429 65 q 219 499 217 315 q 326 797 222 683 q 562 949 429 911 q 822 952 694 988 q 1053 803 950 917 q 1161 510 1156 689 m 792 483 q 757 575 803 538 q 651 591 711 613 q 583 510 592 569 q 624 415 575 450 q 729 404 672 379 q 792 483 786 429 "},"⊥":{"ha":1389,"x_min":196,"x_max":1193,"o":"m 717 993 l 663 993 l 663 49 l 196 49 l 196 -6 l 1193 -6 l 1193 49 l 717 49 l 717 993 "},"⊿":{"ha":1389,"x_min":244,"x_max":1139,"o":"m 1139 956 l 244 38 l 1139 38 l 1139 956 m 1085 825 l 1085 86 l 364 86 l 1085 825 "},"⌒":{"ha":1389,"x_min":125,"x_max":1264,"o":"m 125 413 l 185 413 q 377 686 228 575 q 692 797 526 797 q 1006 686 857 797 q 1204 407 1156 575 l 1264 407 q 1131 660 1232 549 q 865 825 1031 771 q 540 833 700 879 q 266 670 379 786 q 125 413 153 554 "},"①":{"ha":1389,"x_min":49,"x_max":1346,"o":"m 510 142 q 651 196 651 136 l 651 726 q 510 776 651 776 l 510 803 q 711 874 629 803 l 738 874 l 738 196 q 879 142 738 136 l 879 108 l 510 108 l 510 142 m 726 -146 q 1172 49 1008 -129 q 1340 480 1335 228 q 1199 903 1346 732 q 874 1117 1053 1074 q 513 1113 694 1161 q 190 895 331 1064 q 51 472 49 726 q 252 27 54 217 q 726 -146 450 -162 m 1183 142 q 893 -76 1064 -21 q 556 -92 722 -131 q 247 98 390 -54 q 97 488 103 250 q 263 908 92 726 q 681 1099 433 1090 q 1104 942 928 1107 q 1292 540 1281 776 q 1183 142 1303 304 "},"②":{"ha":1389,"x_min":43,"x_max":1340,"o":"m 722 -146 q 1167 49 1004 -129 q 1335 480 1329 228 q 1194 903 1340 732 q 868 1117 1047 1074 q 507 1113 689 1161 q 184 895 325 1064 q 46 472 43 726 q 247 27 49 217 q 722 -146 446 -162 m 1178 142 q 888 -76 1058 -21 q 551 -92 717 -131 q 241 98 385 -54 q 92 488 97 250 q 258 908 86 726 q 676 1099 429 1090 q 1099 942 922 1107 q 1286 540 1275 776 q 1178 142 1297 304 m 461 185 l 911 185 l 976 325 l 999 325 l 976 114 l 396 114 l 396 190 q 713 464 618 369 q 827 638 808 558 q 797 781 846 717 q 640 841 749 846 q 494 774 532 836 q 474 708 456 711 q 513 686 493 706 q 524 640 532 667 q 485 602 515 613 q 428 610 456 592 q 401 681 401 629 q 453 800 401 732 q 608 884 504 868 q 806 857 711 900 q 925 727 900 814 q 898 562 950 640 q 735 399 846 483 q 461 185 624 315 "},"③":{"ha":1389,"x_min":43,"x_max":1340,"o":"m 722 510 q 944 426 890 493 q 977 288 999 358 q 879 160 956 217 q 670 108 803 103 q 472 168 538 114 q 391 276 407 222 q 407 355 375 331 q 477 358 439 379 q 504 306 515 336 q 469 266 493 276 q 499 203 444 256 q 662 154 553 151 q 828 206 771 157 q 885 320 885 256 q 819 442 885 385 q 549 493 754 499 l 549 526 q 767 551 683 521 q 849 678 851 581 q 776 808 846 776 q 619 827 706 840 q 505 778 532 814 q 510 735 478 743 q 538 683 543 726 q 488 635 532 640 q 420 667 444 629 q 444 773 396 706 q 580 865 493 840 q 765 868 667 890 q 917 784 863 846 q 942 632 971 722 q 722 510 913 542 m 722 -146 q 1167 49 1004 -129 q 1335 480 1329 228 q 1194 903 1340 732 q 868 1117 1047 1074 q 507 1113 689 1161 q 184 895 325 1064 q 46 472 43 726 q 247 27 49 217 q 722 -146 446 -162 m 1178 142 q 888 -76 1058 -21 q 551 -92 717 -131 q 241 98 385 -54 q 92 488 97 250 q 258 908 86 726 q 676 1099 429 1090 q 1099 942 922 1107 q 1286 540 1275 776 q 1178 142 1297 304 "},"④":{"ha":1389,"x_min":43,"x_max":1340,"o":"m 797 896 l 797 347 l 960 347 l 960 310 l 797 310 l 797 185 q 911 142 797 142 l 911 114 l 575 114 l 575 142 q 700 190 700 142 l 700 310 l 353 310 l 353 336 l 711 896 l 797 896 m 700 347 l 700 792 l 413 347 l 700 347 m 722 -146 q 1167 49 1004 -129 q 1335 480 1329 228 q 1194 903 1340 732 q 868 1117 1047 1074 q 507 1113 689 1161 q 184 895 325 1064 q 46 472 43 726 q 247 27 49 217 q 722 -146 446 -162 m 1178 142 q 888 -76 1058 -21 q 551 -92 717 -131 q 241 98 385 -54 q 92 488 97 250 q 258 908 86 726 q 676 1099 429 1090 q 1099 942 922 1107 q 1286 540 1275 776 q 1178 142 1297 304 "},"⑤":{"ha":1389,"x_min":43,"x_max":1340,"o":"m 429 499 l 444 896 q 624 871 564 874 q 751 876 683 868 q 882 912 819 885 q 936 890 944 939 q 868 822 928 840 q 694 803 808 803 q 489 814 581 803 l 478 558 q 808 626 646 689 q 990 426 971 564 q 915 198 1010 288 q 692 114 819 108 q 494 168 564 119 q 404 271 424 217 q 417 350 385 325 q 488 356 450 375 q 518 301 526 336 q 488 258 510 265 q 513 209 467 250 q 659 157 558 168 q 838 219 760 146 q 898 418 917 293 q 787 583 879 543 q 605 591 694 624 q 467 499 515 558 l 429 499 m 722 -146 q 1167 49 1004 -129 q 1335 480 1329 228 q 1194 903 1340 732 q 868 1117 1047 1074 q 507 1113 689 1161 q 184 895 325 1064 q 46 472 43 726 q 247 27 49 217 q 722 -146 446 -162 m 1178 142 q 888 -76 1058 -21 q 551 -92 717 -131 q 241 98 385 -54 q 92 488 97 250 q 258 908 86 726 q 676 1099 429 1090 q 1099 942 922 1107 q 1286 540 1275 776 q 1178 142 1297 304 "},"⑥":{"ha":1389,"x_min":43,"x_max":1340,"o":"m 489 504 q 719 602 597 613 q 911 515 840 592 q 969 331 982 439 q 860 154 956 222 q 632 106 765 86 q 447 220 499 125 q 390 437 396 315 q 420 667 385 558 q 540 836 456 776 q 719 893 624 896 q 874 852 814 890 q 949 768 933 814 q 947 690 965 722 q 887 660 928 657 q 827 703 846 663 q 849 767 808 743 q 833 830 890 792 q 690 854 776 868 q 549 762 603 840 q 489 504 494 683 m 483 418 q 521 222 483 276 q 621 149 558 168 q 760 149 683 131 q 871 272 836 168 q 878 453 906 375 q 767 559 851 532 q 610 556 683 586 q 483 418 538 526 m 722 -146 q 1167 49 1004 -129 q 1335 480 1329 228 q 1194 903 1340 732 q 868 1117 1047 1074 q 507 1113 689 1161 q 184 895 325 1064 q 46 472 43 726 q 247 27 49 217 q 722 -146 446 -162 m 1178 142 q 888 -76 1058 -21 q 551 -92 717 -131 q 241 98 385 -54 q 92 488 97 250 q 258 908 86 726 q 676 1099 429 1090 q 1099 942 922 1107 q 1286 540 1275 776 q 1178 142 1297 304 "},"⑦":{"ha":1389,"x_min":43,"x_max":1340,"o":"m 413 885 l 999 885 l 999 803 q 817 592 874 717 q 738 353 760 467 q 722 179 717 239 q 699 111 726 119 q 645 130 672 103 q 629 236 618 157 q 683 434 640 315 q 773 618 726 553 q 950 803 819 683 l 472 803 l 413 651 l 401 651 l 413 885 m 722 -146 q 1167 49 1004 -129 q 1335 480 1329 228 q 1194 903 1340 732 q 868 1117 1047 1074 q 507 1113 689 1161 q 184 895 325 1064 q 46 472 43 726 q 247 27 49 217 q 722 -146 446 -162 m 1178 142 q 888 -76 1058 -21 q 551 -92 717 -131 q 241 98 385 -54 q 92 488 97 250 q 258 908 86 726 q 676 1099 429 1090 q 1099 942 922 1107 q 1286 540 1275 776 q 1178 142 1297 304 "},"⑧":{"ha":1389,"x_min":43,"x_max":1340,"o":"m 760 483 q 944 399 896 461 q 982 266 993 336 q 890 144 971 196 q 692 89 808 92 q 488 138 575 86 q 388 263 401 190 q 423 399 375 336 q 613 489 471 461 q 474 578 510 515 q 447 700 439 640 q 504 811 456 760 q 618 879 553 863 q 740 885 683 896 q 841 841 797 874 q 912 751 885 808 q 915 608 939 694 q 760 483 890 521 m 678 467 q 515 404 553 450 q 472 288 478 358 q 521 171 467 217 q 665 119 575 125 q 814 147 754 114 q 895 247 874 179 q 868 383 917 315 q 678 467 819 450 m 678 499 q 827 577 792 531 q 863 673 863 624 q 835 774 863 722 q 743 847 808 825 q 605 833 678 868 q 513 730 532 797 q 526 605 493 663 q 678 499 558 547 m 250 22 q 728 -147 451 -162 q 1167 49 1004 -131 q 1335 480 1329 228 q 1194 903 1340 732 q 868 1117 1047 1074 q 507 1113 689 1161 q 184 895 325 1064 q 46 467 43 726 q 250 22 49 207 m 1178 142 q 888 -76 1058 -21 q 551 -92 717 -131 q 241 98 385 -54 q 92 488 97 250 q 258 908 86 726 q 676 1099 429 1090 q 1099 942 922 1107 q 1286 540 1275 776 q 1178 142 1297 304 "},"⑨":{"ha":1389,"x_min":43,"x_max":1340,"o":"m 433 174 q 412 252 406 211 q 464 301 418 293 q 529 269 510 310 q 521 209 549 228 q 518 168 493 190 q 616 144 543 146 q 751 172 689 142 q 841 263 814 201 q 871 396 868 325 q 874 464 874 467 q 825 423 874 461 q 673 377 776 385 q 472 448 569 369 q 391 662 375 526 q 515 851 407 797 q 735 884 624 906 q 901 792 846 863 q 963 651 956 722 q 968 488 971 581 q 944 320 965 396 q 871 190 922 244 q 765 119 819 136 q 651 100 711 103 q 528 117 592 97 q 433 174 465 136 m 532 472 q 659 413 581 413 q 784 451 738 413 q 852 524 831 489 q 871 632 874 558 q 824 778 868 706 q 689 854 781 851 q 543 803 597 857 q 486 640 489 749 q 532 472 483 532 m 722 -146 q 1167 49 1004 -129 q 1335 480 1329 228 q 1194 903 1340 732 q 868 1117 1047 1074 q 507 1113 689 1161 q 184 895 325 1064 q 46 472 43 726 q 247 27 49 217 q 722 -146 446 -162 m 1178 142 q 888 -76 1058 -21 q 551 -92 717 -131 q 241 98 385 -54 q 92 488 97 250 q 258 908 86 726 q 676 1099 429 1090 q 1099 942 922 1107 q 1286 540 1275 776 q 1178 142 1297 304 "},"⑩":{"ha":1389,"x_min":43,"x_max":1340,"o":"m 836 879 q 738 778 776 863 q 694 589 700 694 q 697 380 689 483 q 746 201 706 276 q 857 114 786 125 q 985 160 928 103 q 1056 325 1042 217 q 1067 545 1069 433 q 1039 741 1064 657 q 958 860 1014 825 q 836 879 901 896 m 851 157 q 797 242 824 174 q 768 421 771 310 q 771 616 765 532 q 803 770 776 700 q 879 843 831 840 q 958 776 928 846 q 988 610 988 706 q 988 417 988 515 q 966 249 988 319 q 914 160 944 179 q 851 157 883 140 m 358 142 l 358 114 l 629 114 l 629 142 q 532 190 532 142 l 532 890 l 510 890 q 358 819 456 819 l 358 797 q 461 754 472 797 l 461 185 q 358 142 461 142 m 722 -146 q 1167 49 1004 -129 q 1335 480 1329 228 q 1194 903 1340 732 q 868 1117 1047 1074 q 507 1113 689 1161 q 184 895 325 1064 q 46 472 43 726 q 247 27 49 217 q 722 -146 446 -162 m 1178 142 q 888 -76 1058 -21 q 551 -92 717 -131 q 241 98 385 -54 q 92 488 97 250 q 258 908 86 726 q 676 1099 429 1090 q 1099 942 922 1107 q 1286 540 1275 776 q 1178 142 1297 304 "},"⑴":{"ha":1389,"x_min":54,"x_max":1324,"o":"m 1069 -17 q 1161 70 1107 15 q 1269 239 1215 125 q 1324 485 1324 353 q 1283 722 1324 618 q 1188 890 1243 825 q 1076 1001 1133 956 q 1022 1031 1019 1047 q 1082 947 1025 1014 q 1188 776 1139 879 q 1248 521 1238 672 q 1188 228 1258 369 q 1069 27 1118 86 q 1026 -40 1019 -32 q 1069 -17 1032 -49 m 331 1019 q 233 933 303 1003 q 108 738 163 863 q 57 494 54 613 q 95 288 60 375 q 179 131 131 201 q 293 3 228 60 q 361 -41 358 -54 q 301 49 364 -28 q 188 247 239 125 q 133 494 136 369 q 190 754 131 618 q 307 955 250 890 q 361 1028 364 1019 q 331 1019 358 1036 m 510 119 l 510 92 l 868 92 l 868 119 q 738 196 738 119 l 738 971 l 711 971 q 543 900 640 894 l 543 879 l 608 879 q 651 836 653 879 l 651 196 q 510 119 656 119 "},"⑵":{"ha":1389,"x_min":54,"x_max":1324,"o":"m 1069 -17 q 1161 70 1107 15 q 1269 239 1215 125 q 1324 485 1324 353 q 1283 722 1324 618 q 1188 890 1243 825 q 1076 1001 1133 956 q 1022 1031 1019 1047 q 1082 947 1025 1014 q 1188 776 1139 879 q 1248 521 1238 672 q 1188 228 1258 369 q 1069 27 1118 86 q 1026 -40 1019 -32 q 1069 -17 1032 -49 m 331 1019 q 233 933 303 1003 q 108 738 163 863 q 57 494 54 613 q 95 288 60 375 q 179 131 131 201 q 293 3 228 60 q 361 -41 358 -54 q 301 49 364 -28 q 188 247 239 125 q 133 494 136 369 q 190 754 131 618 q 307 955 250 890 q 361 1028 364 1019 q 331 1019 358 1036 m 521 157 q 763 472 663 353 q 887 643 863 592 q 922 765 911 694 q 882 898 933 836 q 744 971 831 960 q 597 949 657 982 q 508 854 538 917 q 491 749 478 792 q 540 703 504 706 q 599 722 575 700 q 618 770 624 743 q 594 803 613 797 q 572 827 575 808 q 597 884 569 846 q 673 928 624 922 q 771 906 722 933 q 825 778 819 879 q 768 580 831 678 q 472 146 706 482 l 472 86 l 874 86 l 906 276 l 890 276 l 825 157 l 521 157 "}}}
